<svg width="141" height="141" viewBox="0 0 141 141" fill="none" xmlns="http://www.w3.org/2000/svg">
<path d="M138.146 135.589H128.669C128.768 134.822 128.813 134.039 128.813 133.256C128.813 126.67 125.023 121.064 119.48 118.468V39.9223C119.48 38.5223 118.547 37.5891 117.147 37.5891H82.1467V2.58898C82.1467 1.18898 81.2134 0.255737 79.8134 0.255737H16.8134C15.4129 0.255464 14.4796 1.18871 14.4796 2.58871V135.589H2.81289C1.41289 135.589 0.479645 136.522 0.479645 137.922C0.479645 139.322 1.41289 140.256 2.81289 140.256H16.8129H23.8129H79.8129H125.78H138.146C139.546 140.256 140.48 139.322 140.48 137.922C140.48 136.522 139.546 135.589 138.146 135.589ZM114.813 117.087C114.051 116.981 113.273 116.922 112.48 116.922C110.718 116.922 108.99 117.222 107.358 117.783C106.951 117.241 106.296 116.922 105.48 116.922C104.08 116.922 103.146 117.855 103.146 119.255V119.97C102.262 120.608 101.44 121.334 100.694 122.142C100.576 122.267 100.46 122.393 100.346 122.522C98.4129 120.105 95.9225 118.357 93.1066 117.505C92.7022 117.134 92.1446 116.922 91.4796 116.922C91.2196 116.922 90.9757 116.954 90.7507 117.016C90.2237 116.954 89.6886 116.922 89.1464 116.922C87.6841 116.922 86.0374 117.112 84.7033 117.653C84.5382 117.709 84.3741 117.767 84.2117 117.828C82.5992 116.517 80.7133 115.574 78.726 115.054C78.7049 115.049 78.6833 115.044 78.6625 115.039C78.4892 114.994 78.3153 114.952 78.1405 114.914C77.9989 114.883 77.8556 114.856 77.7126 114.829C77.6505 114.817 77.5885 114.805 77.5261 114.794C77.376 114.768 77.2253 114.745 77.0736 114.724C77.0058 114.715 76.938 114.706 76.8699 114.698C76.7307 114.681 76.591 114.664 76.4504 114.652C76.3479 114.642 76.2451 114.635 76.1423 114.627C76.0323 114.62 75.9227 114.611 75.812 114.606C75.5902 114.595 75.3684 114.588 75.1464 114.588C74.9747 114.588 74.8043 114.592 74.6348 114.598C74.5238 114.602 74.413 114.609 74.3023 114.615C74.258 114.618 74.2132 114.62 74.1689 114.623C72.0432 114.764 69.9546 115.364 68.1461 116.426V42.2555H79.8129H114.813V117.087ZM19.1464 4.92223H77.4796V37.5891H65.8129C64.4129 37.5891 63.4796 38.5223 63.4796 39.9223V112.489C62.2872 111.297 60.9126 110.288 59.4161 109.499C59.284 109.428 59.1506 109.36 59.0166 109.293C58.9638 109.267 58.9116 109.24 58.8586 109.215C57.1933 108.407 55.3812 107.877 53.4877 107.679C53.4612 107.676 53.4344 107.674 53.4076 107.671C53.1877 107.649 52.9668 107.632 52.7448 107.619C52.686 107.615 52.6272 107.612 52.5681 107.609C52.3174 107.597 52.0658 107.589 51.8129 107.589C48.3402 107.589 45.123 108.731 42.4796 110.651V109.923C42.4796 108.523 41.5464 107.589 40.1464 107.589C38.7464 107.589 37.8132 108.523 37.8132 109.923V114.589C37.8132 114.939 37.8714 115.26 37.9808 115.545C36.8351 117.433 36.0457 119.561 35.7132 121.823C33.0269 122.13 30.5706 123.097 28.4799 124.542V123.923C28.4799 122.523 27.5467 121.59 26.1467 121.59C24.7467 121.59 23.8134 122.523 23.8134 123.923V128.59C23.8134 128.862 23.8498 129.116 23.9171 129.35C22.7602 131.221 21.9729 133.338 21.6486 135.59H19.1469V4.92223H19.1464ZM36.7511 126.304C36.7973 126.3 36.8441 126.297 36.8906 126.294C37.0136 126.284 37.1367 126.275 37.2608 126.269C37.4437 126.261 37.6278 126.255 37.8132 126.255C39.2132 126.255 40.1464 125.322 40.1464 123.922C40.1464 117.389 45.2796 112.255 51.8132 112.255C57.6464 112.255 62.5464 116.455 63.2464 122.289C63.4042 122.92 63.7788 123.44 64.2912 123.785C64.3235 123.808 64.3566 123.829 64.3902 123.851C64.4263 123.873 64.4621 123.895 64.4996 123.915C64.5857 123.963 64.6754 124.006 64.7689 124.044C64.7725 124.045 64.7757 124.047 64.7793 124.048C64.8862 124.091 64.9978 124.127 65.1129 124.155C65.1132 124.155 65.1132 124.155 65.1134 124.156C65.2523 124.202 65.4101 124.22 65.5769 124.214C66.3439 124.226 67.0573 123.806 67.4464 123.223C67.4464 123.223 67.4467 123.223 67.4469 123.222L67.6802 122.989C69.547 120.656 72.1134 119.256 75.1469 119.256C76.7225 119.256 78.2972 119.697 79.7106 120.523C76.9273 123.14 75.349 126.551 75.1655 130.202C75.1532 130.44 75.1469 130.681 75.1469 130.923C75.1469 132.545 75.4168 134.1 75.9509 135.59H26.3796C27.4718 130.566 31.6307 126.769 36.7511 126.304ZM81.4593 135.589C80.5678 134.081 80.0464 132.299 80.0464 130.689C80.0464 128.109 81.0636 125.784 82.812 124.085C83.1461 123.775 83.5024 123.489 83.8786 123.23C84.2431 123.233 84.6098 123.157 84.9464 122.989C90.0797 120.189 96.1464 122.756 98.0132 127.889C98.2464 128.589 98.9464 129.289 100.113 129.289C100.335 129.289 100.58 129.218 100.826 129.093C101.411 128.997 101.874 128.567 102.213 127.889C103.117 125.968 104.517 124.434 106.221 123.358C106.589 123.256 106.905 123.074 107.156 122.828C108.759 122.022 110.576 121.589 112.48 121.589C119.013 121.589 124.147 126.722 124.147 133.256C124.147 133.956 124.147 134.889 123.913 135.589H81.4593Z" fill="white"/>
<path d="M77.4796 60.9224C76.0796 60.9224 75.1464 61.8556 75.1464 63.2556V67.9224C75.1464 69.3224 76.0796 70.2556 77.4796 70.2556C78.8796 70.2556 79.8128 69.3224 79.8128 67.9224V63.2556C79.8128 61.8556 78.8796 60.9224 77.4796 60.9224Z" fill="white"/>
<path d="M77.4796 102.922C76.0796 102.922 75.1464 103.856 75.1464 105.256V109.922C75.1464 111.322 76.0796 112.256 77.4796 112.256C78.8796 112.256 79.8128 111.322 79.8128 109.922V105.256C79.8128 103.856 78.8796 102.922 77.4796 102.922Z" fill="white"/>
<path d="M77.4796 74.9224C76.0796 74.9224 75.1464 75.8556 75.1464 77.2556V81.9224C75.1464 83.3224 76.0796 84.2556 77.4796 84.2556C78.8796 84.2556 79.8128 83.3224 79.8128 81.9224V77.2556C79.8128 75.8556 78.8796 74.9224 77.4796 74.9224Z" fill="white"/>
<path d="M77.4796 88.9224C76.0796 88.9224 75.1464 89.8556 75.1464 91.2556V95.9224C75.1464 97.3224 76.0796 98.2556 77.4796 98.2556C78.8796 98.2556 79.8128 97.3224 79.8128 95.9224V91.2556C79.8128 89.8556 78.8796 88.9224 77.4796 88.9224Z" fill="white"/>
<path d="M77.4796 46.9224C76.0796 46.9224 75.1464 47.8556 75.1464 49.2556V53.9224C75.1464 55.3224 76.0796 56.2556 77.4796 56.2556C78.8796 56.2556 79.8128 55.3224 79.8128 53.9224V49.2556C79.8128 47.8556 78.8796 46.9224 77.4796 46.9224Z" fill="white"/>
<path d="M91.4797 70.2556C92.8797 70.2556 93.8129 69.3224 93.8129 67.9224V63.2556C93.8129 61.8556 92.8797 60.9224 91.4797 60.9224C90.0797 60.9224 89.1464 61.8556 89.1464 63.2556V67.9224C89.1464 69.3224 90.0797 70.2556 91.4797 70.2556Z" fill="white"/>
<path d="M91.4797 56.2556C92.8797 56.2556 93.8129 55.3224 93.8129 53.9224V49.2556C93.8129 47.8556 92.8797 46.9224 91.4797 46.9224C90.0797 46.9224 89.1464 47.8556 89.1464 49.2556V53.9224C89.1464 55.3224 90.0797 56.2556 91.4797 56.2556Z" fill="white"/>
<path d="M91.4797 84.2556C92.8797 84.2556 93.8129 83.3224 93.8129 81.9224V77.2556C93.8129 75.8556 92.8797 74.9224 91.4797 74.9224C90.0797 74.9224 89.1464 75.8556 89.1464 77.2556V81.9224C89.1464 83.3224 90.0797 84.2556 91.4797 84.2556Z" fill="white"/>
<path d="M91.4797 98.2556C92.8797 98.2556 93.8129 97.3224 93.8129 95.9224V91.2556C93.8129 89.8556 92.8797 88.9224 91.4797 88.9224C90.0797 88.9224 89.1464 89.8556 89.1464 91.2556V95.9224C89.1464 97.3224 90.0797 98.2556 91.4797 98.2556Z" fill="white"/>
<path d="M91.4797 112.256C92.8797 112.256 93.8129 111.322 93.8129 109.922V105.256C93.8129 103.856 92.8797 102.922 91.4797 102.922C90.0797 102.922 89.1464 103.856 89.1464 105.256V109.922C89.1464 111.322 90.0797 112.256 91.4797 112.256Z" fill="white"/>
<path d="M105.48 84.2556C106.88 84.2556 107.813 83.3224 107.813 81.9224V77.2556C107.813 75.8556 106.88 74.9224 105.48 74.9224C104.08 74.9224 103.146 75.8556 103.146 77.2556V81.9224C103.146 83.3224 104.08 84.2556 105.48 84.2556Z" fill="white"/>
<path d="M105.48 70.2556C106.88 70.2556 107.813 69.3224 107.813 67.9224V63.2556C107.813 61.8556 106.88 60.9224 105.48 60.9224C104.08 60.9224 103.146 61.8556 103.146 63.2556V67.9224C103.146 69.3224 104.08 70.2556 105.48 70.2556Z" fill="white"/>
<path d="M105.48 112.256C106.88 112.256 107.813 111.322 107.813 109.922V105.256C107.813 103.856 106.88 102.922 105.48 102.922C104.08 102.922 103.146 103.856 103.146 105.256V109.922C103.146 111.322 104.08 112.256 105.48 112.256Z" fill="white"/>
<path d="M105.48 98.2556C106.88 98.2556 107.813 97.3224 107.813 95.9224V91.2556C107.813 89.8556 106.88 88.9224 105.48 88.9224C104.08 88.9224 103.146 89.8556 103.146 91.2556V95.9224C103.146 97.3224 104.08 98.2556 105.48 98.2556Z" fill="white"/>
<path d="M105.48 56.2556C106.88 56.2556 107.813 55.3224 107.813 53.9224V49.2556C107.813 47.8556 106.88 46.9224 105.48 46.9224C104.08 46.9224 103.146 47.8556 103.146 49.2556V53.9224C103.146 55.3224 104.08 56.2556 105.48 56.2556Z" fill="white"/>
<path d="M26.1464 88.9224C27.5464 88.9224 28.4797 87.9891 28.4797 86.5891V81.9224C28.4797 80.5224 27.5464 79.5891 26.1464 79.5891C24.7464 79.5891 23.8132 80.5224 23.8132 81.9224V86.5891C23.8129 87.9889 24.7464 88.9224 26.1464 88.9224Z" fill="white"/>
<path d="M26.1464 102.922C27.5464 102.922 28.4797 101.989 28.4797 100.589V95.9224C28.4797 94.5224 27.5464 93.5891 26.1464 93.5891C24.7464 93.5891 23.8132 94.5224 23.8132 95.9224V100.589C23.8129 101.989 24.7464 102.922 26.1464 102.922Z" fill="white"/>
<path d="M26.1464 116.922C27.5464 116.922 28.4797 115.989 28.4797 114.589V109.922C28.4797 108.522 27.5464 107.589 26.1464 107.589C24.7464 107.589 23.8132 108.522 23.8132 109.922V114.589C23.8129 115.989 24.7464 116.922 26.1464 116.922Z" fill="white"/>
<path d="M26.1464 18.9222C27.5464 18.9222 28.4797 17.989 28.4797 16.589V11.9222C28.4797 10.5222 27.5464 9.58899 26.1464 9.58899C24.7464 9.58899 23.8132 10.5222 23.8132 11.9222V16.589C23.8129 17.9887 24.7464 18.9222 26.1464 18.9222Z" fill="white"/>
<path d="M26.1464 32.9223C27.5464 32.9223 28.4797 31.989 28.4797 30.589V25.9222C28.4797 24.5222 27.5464 23.589 26.1464 23.589C24.7464 23.589 23.8132 24.5222 23.8132 25.9222V30.589C23.8129 31.9887 24.7464 32.9223 26.1464 32.9223Z" fill="white"/>
<path d="M26.1464 46.9224C27.5464 46.9224 28.4797 45.9891 28.4797 44.5891V39.9224C28.4797 38.5224 27.5464 37.5891 26.1464 37.5891C24.7464 37.5891 23.8132 38.5224 23.8132 39.9224V44.5891C23.8129 45.9889 24.7464 46.9224 26.1464 46.9224Z" fill="white"/>
<path d="M26.1464 60.9224C27.5464 60.9224 28.4797 59.9891 28.4797 58.5891V53.9224C28.4797 52.5224 27.5464 51.5891 26.1464 51.5891C24.7464 51.5891 23.8132 52.5224 23.8132 53.9224V58.5891C23.8129 59.9889 24.7464 60.9224 26.1464 60.9224Z" fill="white"/>
<path d="M26.1464 74.9224C27.5464 74.9224 28.4797 73.9891 28.4797 72.5891V67.9224C28.4797 66.5224 27.5464 65.5891 26.1464 65.5891C24.7464 65.5891 23.8132 66.5224 23.8132 67.9224V72.5891C23.8129 73.9889 24.7464 74.9224 26.1464 74.9224Z" fill="white"/>
<path d="M40.1464 32.9223C41.5464 32.9223 42.4797 31.989 42.4797 30.589V25.9222C42.4797 24.5222 41.5464 23.589 40.1464 23.589C38.7464 23.589 37.8132 24.5222 37.8132 25.9222V30.589C37.8129 31.9887 38.7464 32.9223 40.1464 32.9223Z" fill="white"/>
<path d="M40.1464 18.9222C41.5464 18.9222 42.4797 17.989 42.4797 16.589V11.9222C42.4797 10.5222 41.5464 9.58899 40.1464 9.58899C38.7464 9.58899 37.8132 10.5222 37.8132 11.9222V16.589C37.8129 17.9887 38.7464 18.9222 40.1464 18.9222Z" fill="white"/>
<path d="M40.1464 60.9224C41.5464 60.9224 42.4797 59.9891 42.4797 58.5891V53.9224C42.4797 52.5224 41.5464 51.5891 40.1464 51.5891C38.7464 51.5891 37.8132 52.5224 37.8132 53.9224V58.5891C37.8129 59.9889 38.7464 60.9224 40.1464 60.9224Z" fill="white"/>
<path d="M40.1464 46.9224C41.5464 46.9224 42.4797 45.9891 42.4797 44.5891V39.9224C42.4797 38.5224 41.5464 37.5891 40.1464 37.5891C38.7464 37.5891 37.8132 38.5224 37.8132 39.9224V44.5891C37.8129 45.9889 38.7464 46.9224 40.1464 46.9224Z" fill="white"/>
<path d="M40.1464 74.9224C41.5464 74.9224 42.4797 73.9891 42.4797 72.5891V67.9224C42.4797 66.5224 41.5464 65.5891 40.1464 65.5891C38.7464 65.5891 37.8132 66.5224 37.8132 67.9224V72.5891C37.8129 73.9889 38.7464 74.9224 40.1464 74.9224Z" fill="white"/>
<path d="M40.1464 88.9224C41.5464 88.9224 42.4797 87.9891 42.4797 86.5891V81.9224C42.4797 80.5224 41.5464 79.5891 40.1464 79.5891C38.7464 79.5891 37.8132 80.5224 37.8132 81.9224V86.5891C37.8129 87.9889 38.7464 88.9224 40.1464 88.9224Z" fill="white"/>
<path d="M40.1464 102.922C41.5464 102.922 42.4797 101.989 42.4797 100.589V95.9224C42.4797 94.5224 41.5464 93.5891 40.1464 93.5891C38.7464 93.5891 37.8132 94.5224 37.8132 95.9224V100.589C37.8129 101.989 38.7464 102.922 40.1464 102.922Z" fill="white"/>
<path d="M54.1464 46.9224C55.5464 46.9224 56.4797 45.9891 56.4797 44.5891V39.9224C56.4797 38.5224 55.5464 37.5891 54.1464 37.5891C52.7464 37.5891 51.8132 38.5224 51.8132 39.9224V44.5891C51.8129 45.9889 52.7464 46.9224 54.1464 46.9224Z" fill="white"/>
<path d="M54.1464 32.9223C55.5464 32.9223 56.4797 31.989 56.4797 30.589V25.9222C56.4797 24.5222 55.5464 23.589 54.1464 23.589C52.7464 23.589 51.8132 24.5222 51.8132 25.9222V30.589C51.8129 31.9887 52.7464 32.9223 54.1464 32.9223Z" fill="white"/>
<path d="M54.1464 18.9222C55.5464 18.9222 56.4797 17.989 56.4797 16.589V11.9222C56.4797 10.5222 55.5464 9.58899 54.1464 9.58899C52.7464 9.58899 51.8132 10.5222 51.8132 11.9222V16.589C51.8129 17.9887 52.7464 18.9222 54.1464 18.9222Z" fill="white"/>
<path d="M54.1464 102.922C55.5464 102.922 56.4797 101.989 56.4797 100.589V95.9224C56.4797 94.5224 55.5464 93.5891 54.1464 93.5891C52.7464 93.5891 51.8132 94.5224 51.8132 95.9224V100.589C51.8129 101.989 52.7464 102.922 54.1464 102.922Z" fill="white"/>
<path d="M54.1464 88.9224C55.5464 88.9224 56.4797 87.9891 56.4797 86.5891V81.9224C56.4797 80.5224 55.5464 79.5891 54.1464 79.5891C52.7464 79.5891 51.8132 80.5224 51.8132 81.9224V86.5891C51.8129 87.9889 52.7464 88.9224 54.1464 88.9224Z" fill="white"/>
<path d="M54.1464 74.9224C55.5464 74.9224 56.4797 73.9891 56.4797 72.5891V67.9224C56.4797 66.5224 55.5464 65.5891 54.1464 65.5891C52.7464 65.5891 51.8132 66.5224 51.8132 67.9224V72.5891C51.8129 73.9889 52.7464 74.9224 54.1464 74.9224Z" fill="white"/>
<path d="M54.1464 60.9224C55.5464 60.9224 56.4797 59.9891 56.4797 58.5891V53.9224C56.4797 52.5224 55.5464 51.5891 54.1464 51.5891C52.7464 51.5891 51.8132 52.5224 51.8132 53.9224V58.5891C51.8129 59.9889 52.7464 60.9224 54.1464 60.9224Z" fill="white"/>
<path d="M68.1463 32.9223C69.5463 32.9223 70.4796 31.989 70.4796 30.589V25.9222C70.4796 24.5222 69.5463 23.589 68.1463 23.589C66.7463 23.589 65.8131 24.5222 65.8131 25.9222V30.589C65.8128 31.9887 66.7463 32.9223 68.1463 32.9223Z" fill="white"/>
<path d="M68.1463 18.9222C69.5463 18.9222 70.4796 17.989 70.4796 16.589V11.9222C70.4796 10.5222 69.5463 9.58899 68.1463 9.58899C66.7463 9.58899 65.8131 10.5222 65.8131 11.9222V16.589C65.8128 17.9887 66.7463 18.9222 68.1463 18.9222Z" fill="white"/>
</svg>
