<svg width="483" height="552" viewBox="0 0 483 552" fill="none" xmlns="http://www.w3.org/2000/svg">
<path d="M3.99999 3.33341C-4.66667 12.0001 4.79999 26.6667 16 22.0001C20.9333 20.0001 22.6667 17.0667 22.6667 10.9334C22.6667 2.00008 10.4 -3.06659 3.99999 3.33341Z" fill="white"/>
<path d="M49.4666 4.1334C40.2666 15.7334 56.6666 29.8667 66.2666 18.6667C72.8 11.2001 67.6 0.666733 57.3333 0.666733C53.3333 0.666733 51.6 1.46673 49.4666 4.1334Z" fill="white"/>
<path d="M97.6 1.60004C94.6666 2.80004 91.7333 10 92.6666 14C95.4666 26.8 114.667 24.5334 114.667 11.3334C114.667 4.93337 110.267 0.666706 103.867 0.80004C101.333 0.80004 98.5333 1.20004 97.6 1.60004Z" fill="white"/>
<path d="M221.467 4.1333C219.867 6.1333 218.667 8.53334 218.667 9.46667C218.667 10.9333 215.733 11.3333 205.2 11.3333C192.133 11.3333 191.733 11.4667 187.867 15.2C182.933 20.2667 182.667 26.1333 187.333 30.6667C190.4 33.7333 191.467 34 204.667 34H218.8L218.4 45.6L218 57.3333L203.6 58C190.4 58.6667 188.8 58.9333 186.533 61.8667C183.067 66.1333 183.333 71.7333 187.2 76.2667C190.267 79.8667 190.933 80 204.533 80.4L218.667 80.9333V92.1333V103.333H206C199.067 103.333 192 104 190.133 104.8C183.467 107.867 182.4 117.867 188.267 123.333C190.8 125.6 192.933 126 204.933 126H218.667V137.2V148.4L204.533 148.933C190.933 149.333 190.267 149.467 187.2 153.067L184 156.8V349.733C184 564.133 183.2 547.2 193.067 550C199.867 551.867 466.8 551.867 473.6 549.867C480.933 547.867 482.667 543.6 482.667 528.133C482.667 521.2 482.133 514 481.333 512.133C479.467 507.067 474.267 504.267 468.667 505.2C462.667 506.4 460 510.4 459.067 519.867L458.267 527.333H413.2H368V504C368 468.933 368.8 469.6 330.8 470.267L305.067 470.667L301.867 474.4C298.8 478.133 298.667 478.667 298.667 502.8V527.333H252.667H206.667V418.667V310H332.667H458.533L458.933 369.2L459.333 428.4L462.533 431.867C468 437.733 477.333 436.267 481.067 429.067C483.333 424.8 483.333 160.933 481.067 156C478.533 150.4 473.6 148.667 460 148.667H448V137.333V126H461.2C473.333 126 474.8 125.733 478.133 122.8C483.333 118.4 483.333 110.933 478.133 106.533C474.8 103.6 473.333 103.333 461.2 103.333H448V92V80.6667H460C474 80.6667 478.8 78.8 481.333 72.6667C482.667 69.4667 482.667 67.8667 481.333 64.6667C478.933 58.8 476.4 58 461.467 58H448V46V34H461.733C474.8 34 475.733 33.8667 478.667 30.6667C483.2 25.7333 483.067 18.6667 478.133 14.5333C474.8 11.6 473.333 11.3333 461.333 11.3333C448.267 11.3333 448 11.3333 447.2 8C445.333 0.533337 433.733 -2.00003 428.267 3.7333C426.667 5.46664 425.333 7.86667 425.333 9.06667C425.333 11.0667 422.933 11.3333 402 11.3333C383.2 11.3333 378.667 10.9333 378.667 9.46667C378.667 8.53334 377.467 6.1333 375.867 4.1333C372.133 -0.666695 364 -0.800029 359.333 3.99997C357.467 5.7333 356 8.13334 356 9.33334C356 11.0667 352.933 11.3333 333.2 11.3333H310.533L309.067 7.33334C307.467 2.53334 304.4 0.666638 298.267 0.666638C293.733 0.666638 289.333 4.13334 287.6 8.93334C286.8 11.0667 284.4 11.3333 264 11.3333C244.4 11.3333 241.333 11.0667 241.333 9.33334C241.333 8.13334 239.867 5.7333 238 3.99997C233.333 -0.800029 225.2 -0.666695 221.467 4.1333ZM286.667 46V58H264H241.333V46V34H264H286.667V46ZM356 46V58H333.333H310.667V46V34H333.333H356V46ZM424.667 46V57.3333H402H379.333L378.933 47.4667C378.667 42 378.8 36.8 379.2 35.7333C379.867 34.2667 384.4 34 402.267 34.2667L424.667 34.6667V46ZM286.667 92V103.333H264H241.333V92V80.6667H264H286.667V92ZM356 92V103.333H333.333H310.667V92V80.6667H333.333H356V92ZM425.333 92V103.333H402H378.667V92V80.6667H402H425.333V92ZM286.667 137.333V148.667H264H241.333V137.333V126H264H286.667V137.333ZM356 137.333V148.667H333.333H310.667V137.333V126H333.333H356V137.333ZM425.333 137.333V148.667H402H378.667V137.333V126H402H425.333V137.333ZM458.667 184V195.333H332.667H206.667V184V172.667H332.667H458.667V184ZM458.667 229.333V240.667H332.667H206.667V229.333V218H332.667H458.667V229.333ZM458.667 275.333V287.333L333.067 287.067L207.333 286.667L206.933 276.8C206.667 271.333 206.8 266.133 207.2 265.067C207.733 263.6 229.6 263.333 333.333 263.333H458.667V275.333ZM344 510V527.333H332.667H321.333V510.933C321.333 501.867 321.733 494 322.267 493.6C322.667 493.067 327.867 492.667 333.6 492.667H344V510Z" fill="white"/>
<path d="M4.53332 49.2C1.73332 51.6 0.799988 53.4667 0.799988 57.3334C0.799988 61.2 1.73332 63.0667 4.53332 65.4667L8.13332 68.6667H53.7333H99.3333L114.667 82.1334C143.067 107.2 145.067 108.667 150 108.667C153.333 108.667 155.333 107.6 157.867 104.533C165.333 95.7334 164.933 95.3334 118.4 54.9334L108 46H58.1333H8.13332L4.53332 49.2Z" fill="white"/>
<path d="M6.66663 127.733C-0.266701 131.2 -1.33337 139.6 4.26663 145.6L7.06663 148.667H57.6H108.133L111.333 145.333C116.8 140 115.733 131.333 109.2 128C104.133 125.333 11.8666 125.067 6.66663 127.733Z" fill="white"/>
<path d="M4.26665 175.333C2.66665 176.8 1.06665 179.467 0.533317 181.2C-0.53335 185.467 3.33332 192.4 7.46665 194C9.33332 194.8 30.1333 195.333 55.2 195.333H99.6L119.467 212.8C141.2 231.867 145.867 235.333 150.267 235.333C154.4 235.333 159.867 230.133 160.8 225.333C161.867 219.733 159.467 217.067 132 193.067L108.667 172.667H57.8667C8.79998 172.667 7.06665 172.8 4.26665 175.333Z" fill="white"/>
<path d="M7.19996 265.2C1.59996 267.733 -0.933371 273.867 1.46663 279.467C4.26663 286.267 8.79996 287.333 34.9333 287.333C54.2666 287.333 58.8 286.933 62.6666 284.933C71.4666 280.533 71.4666 270.133 62.6666 265.733C58.8 263.733 54.2666 263.333 34.6666 263.333C18.1333 263.467 10.1333 264 7.19996 265.2Z" fill="white"/>
<path d="M98.9333 265.333C87.7333 270.133 91.7333 286.4 104.133 286.4C113.333 286.4 118.4 273.867 111.733 267.733C107.467 263.867 104 263.2 98.9333 265.333Z" fill="white"/>
<path d="M4.53332 313.2C1.73332 315.6 0.799988 317.467 0.799988 321.333C0.799988 325.2 1.73332 327.067 4.53332 329.467L8.13332 332.667H58.1333H108.133L111.333 329.333C113.6 327.2 114.667 324.667 114.667 321.333C114.667 318 113.6 315.467 111.333 313.333L108.133 310H58.1333H8.13332L4.53332 313.2Z" fill="white"/>
<path d="M234 335.733C228.8 340.133 228.8 347.867 233.867 352.133C243.067 360.133 256.133 351.2 251.467 340C248.133 332.267 240.267 330.267 234 335.733Z" fill="white"/>
<path d="M282 334.267C277.867 336.667 276.133 339.6 276 344.4C276 355.6 291.6 359.733 296.667 349.867C299.6 344.267 299.067 340.933 294.8 336.533C290.667 332.533 286.4 331.733 282 334.267Z" fill="white"/>
<path d="M326.133 335.6C320.8 340.267 320.4 346 324.667 351.067C331.6 359.333 344 354.8 344 344C344 334.267 333.333 329.333 326.133 335.6Z" fill="white"/>
<path d="M373.733 334C367.333 336.533 366 346.667 371.333 352C376.133 356.933 382.8 356.533 387.2 351.2C391.733 345.867 391.6 341.333 386.8 336.533C382.8 332.667 379.067 331.867 373.733 334Z" fill="white"/>
<path d="M417.2 336.533C413.067 340.667 412.4 344.4 414.933 349.067C417.2 353.467 420.133 355.2 425.067 355.333C436.267 355.333 440.4 339.733 430.533 334.667C424.933 331.733 421.6 332.267 417.2 336.533Z" fill="white"/>
<path d="M7.06664 356.667C3.19997 358.267 -0.400031 365.467 0.533302 369.467C3.59997 381.733 22.6666 380.267 22.6666 367.733C22.6666 361.733 21.4666 359.467 17.2 357.333C12.9333 355.067 11.3333 354.933 7.06664 356.667Z" fill="white"/>
<path d="M50.8 358.8C45.4666 363.2 45.0666 369.867 50 374.667C53.2 378 53.2 378 81.2 378H109.2L111.867 374.533C114.933 370.667 115.467 363.867 112.933 360.533C109.333 355.867 105.733 355.333 80.1333 355.333C54.9333 355.333 54.9333 355.333 50.8 358.8Z" fill="white"/>
<path d="M236.4 380.133C223.6 386.4 232 405.067 245.467 400.4C254.667 397.2 254.933 383.6 245.867 379.867C240.533 377.6 241.6 377.6 236.4 380.133Z" fill="white"/>
<path d="M284.4 379.067C282.667 379.333 280.133 381.067 278.667 382.933C272.8 390.4 277.867 401.2 287.333 401.2C296.267 401.2 301.733 390.933 296.667 383.733C294.4 380.533 288.667 378.4 284.4 379.067Z" fill="white"/>
<path d="M328.4 380C319.867 383.6 319.733 395.733 328.267 400.133C335.467 403.867 344 398.267 344 390C344 381.867 336.133 376.8 328.4 380Z" fill="white"/>
<path d="M376.667 379.067C364.8 381.6 365.333 398.4 377.333 401.2C382.133 402.4 388.8 397.867 390 392.8C391.733 385.067 384.267 377.333 376.667 379.067Z" fill="white"/>
<path d="M420.267 380.133C409.2 384.8 412.533 401.2 424.4 401.2C434.267 401.2 439.467 390.667 433.333 383.067C430.133 378.933 425.467 377.867 420.267 380.133Z" fill="white"/>
<path d="M3.99998 405.333C-0.266688 409.867 -0.266688 416.933 3.73331 421.067C6.66665 424 7.19998 424 53.2 424.4L99.7333 424.8L122.533 444.667C147.2 466.133 149.467 467.333 156.4 462C160.8 458.533 162.267 452.267 159.467 448C157.6 445.2 120.667 412.133 111.467 404.933C107.733 402 107.2 402 57.3333 402H7.06665L3.99998 405.333Z" fill="white"/>
<path d="M233.867 427.867C226.267 434.267 231.333 447.333 241.333 447.333C251.333 447.333 256.4 434.267 248.8 427.867C244.133 423.733 238.533 423.733 233.867 427.867Z" fill="white"/>
<path d="M279.333 428C272.4 434.8 277.333 447.333 286.933 447.333C291.6 447.333 298.667 440.933 298.667 436.667C298.667 426.267 286.533 420.8 279.333 428Z" fill="white"/>
<path d="M325.067 428.667C321.733 432.133 321.2 433.467 321.867 437.067C323.6 446.4 334.4 450.4 340.667 444C347.6 437.2 342.8 424.667 333.333 424.667C330.4 424.667 327.867 426 325.067 428.667Z" fill="white"/>
<path d="M371.333 428C364.4 434.8 369.2 447.333 378.667 447.333C384 447.333 390.667 441.067 390.667 436C390.667 433.867 389.067 430.933 386.8 428.533C381.733 423.6 375.867 423.333 371.333 428Z" fill="white"/>
<path d="M416.8 428.8C412.267 434.133 412.4 438.667 417.2 443.467C424.8 450.933 436 446.533 436 436C436 425.333 423.6 420.667 416.8 428.8Z" fill="white"/>
<path d="M462.933 462.4C459.2 466.267 459.067 473.867 462.533 478.133C466 482.4 474.8 482.533 478.933 478.267C482.933 474.267 482.8 467.067 478.667 462.667C474.533 458.267 466.933 458.133 462.933 462.4Z" fill="white"/>
</svg>
