<svg width="141" height="141" viewBox="0 0 141 141" fill="none" xmlns="http://www.w3.org/2000/svg">
<path d="M5.43211 128.068V87.4822C5.43211 86.261 6.42142 85.2717 7.64259 85.2717C8.86377 85.2717 9.85307 86.2613 9.85307 87.4822V128.039H15.8649V121.827V113.405V104.983V96.5603C15.8649 95.3391 16.8542 94.3498 18.0754 94.3498H44.9947C46.2158 94.3498 47.2051 95.3391 47.2051 96.5603V104.983V113.405V121.827V128.039H131.982V71.3417H125.249H103.578H95.4289H73.758H66.8047H45.2265H37.6432H16.0653H9.85335V80.1139C9.85335 81.335 8.86404 82.3243 7.64287 82.3243C6.42169 82.3243 5.43239 81.335 5.43239 80.1139V69.131C5.43239 67.9098 6.42169 66.9205 7.64287 66.9205H14.0465C14.976 61.5212 19.2443 57.2523 24.6439 56.3232V52.323C24.6439 51.1019 25.6332 50.1126 26.8544 50.1126C28.0756 50.1126 29.0649 51.1019 29.0649 52.323V56.3232C34.464 57.2526 38.7326 61.5212 39.662 66.9205H43.2077C44.1371 61.5212 48.4055 57.2523 53.8051 56.3232V52.323C53.8051 51.1019 54.7944 50.1126 56.0156 50.1126C57.2368 50.1126 58.2261 51.1019 58.2261 52.323V56.3232C63.6254 57.2526 67.8941 61.5212 68.8235 66.9205H71.6498L73.0377 37.6392C73.0952 36.4199 74.1208 35.4818 75.3505 35.5359C76.5698 35.5933 77.5115 36.6291 77.4538 37.8486L76.0759 66.9202H93.1112L91.0393 23.214H78.1472L77.8207 30.1065C77.7628 31.326 76.7349 32.2735 75.508 32.2098C74.2887 32.1524 73.347 31.1166 73.4047 29.8971L73.8206 21.1236C73.8165 21.0486 73.8162 20.9732 73.8201 20.8977L74.2185 12.6021C74.2206 12.5603 74.2261 12.5196 74.2305 12.4783L74.5756 5.17667H73.9756C72.7545 5.17667 71.7652 4.1871 71.7652 2.96621C71.7652 1.74531 72.7547 0.755737 73.9759 0.755737H76.8932H92.2922H95.2098C96.431 0.755737 97.4203 1.74531 97.4203 2.96621C97.4203 4.1871 96.431 5.17667 95.2098 5.17667H94.6096L94.9555 12.4753C94.9599 12.5174 94.9659 12.5589 94.9678 12.6016L95.3662 20.8971C95.3698 20.9729 95.3695 21.0484 95.3657 21.1233L97.5365 66.92H101.469L103.641 21.1214C103.637 21.047 103.636 20.9726 103.64 20.8977L104.038 12.6021C104.041 12.5609 104.046 12.5204 104.05 12.4799L104.396 5.17695H103.796C102.575 5.17695 101.586 4.18738 101.586 2.96648C101.586 1.74558 102.575 0.755737 103.796 0.755737H106.714H122.112H125.03C126.251 0.755737 127.24 1.74531 127.24 2.96621C127.24 4.1871 126.251 5.17667 125.03 5.17667H124.43L124.776 12.4744C124.781 12.5168 124.787 12.5587 124.789 12.6021L125.187 20.8977C125.191 20.9734 125.19 21.0489 125.186 21.1241L127.358 66.9205H134.192C135.414 66.9205 136.403 67.9098 136.403 69.131V128.472C138.566 129.349 140.097 131.469 140.097 133.943V134.851C140.097 138.107 137.448 140.756 134.192 140.756H25.5512C24.33 140.756 23.3407 139.766 23.3407 138.545C23.3407 137.324 24.3303 136.335 25.5512 136.335H134.192C135.01 136.335 135.676 135.669 135.676 134.851V133.944C135.676 133.126 135.01 132.46 134.192 132.46H44.9952H18.0759H7.64314H6.00114C5.18329 132.46 4.51773 133.126 4.51773 133.944V134.851C4.51773 135.669 5.18329 136.335 6.00114 136.335H17.7084C18.9296 136.335 19.9189 137.324 19.9189 138.545C19.9189 139.766 18.9293 140.756 17.7084 140.756H6.00114C2.74557 140.756 0.0967712 138.107 0.0967712 134.851V133.944C0.0959473 130.88 2.44261 128.355 5.43211 128.068ZM26.8541 60.5521C22.8879 60.5521 19.5416 63.2578 18.5643 66.9202H35.1437C34.1667 63.2575 30.8201 60.5521 26.8541 60.5521ZM56.0153 60.5521C52.0491 60.5521 48.7028 63.2578 47.7255 66.9202H64.3052C63.3277 63.2575 59.9816 60.5521 56.0153 60.5521ZM90.1837 5.17667H79.0017L78.7496 10.4972H90.4364L90.1837 5.17667ZM90.6456 14.9184H78.5399L78.3561 18.793H90.8291L90.6456 14.9184ZM120.004 5.17667H108.822L108.57 10.4972H120.257L120.004 5.17667ZM120.466 14.9184H108.36L108.177 18.793H120.65L120.466 14.9184ZM120.859 23.214H107.967L105.896 66.9202H122.931L120.859 23.214ZM20.2861 128.039H42.7844V124.038H20.2861V128.039ZM20.2861 119.617H42.7844V115.616H20.2861V119.617ZM20.2861 111.194H42.7844V107.193H20.2861V111.194ZM20.2861 102.772H42.7844V98.7708H20.2861V102.772Z" fill="white"/>
<path d="M18.0756 86.981H44.9949C46.2161 86.981 47.2054 87.9705 47.2054 89.1914C47.2054 90.4123 46.2161 91.4019 44.9949 91.4019H18.0756C16.8545 91.4019 15.8652 90.4123 15.8652 89.1914C15.8652 87.9705 16.8547 86.981 18.0756 86.981Z" fill="white"/>
<path d="M57.3592 94.3499H72.391C73.6122 94.3499 74.6015 95.3392 74.6015 96.5603V110.189C74.6015 111.41 73.6119 112.399 72.391 112.399H57.3592C56.1381 112.399 55.1488 111.41 55.1488 110.189V96.5603C55.1488 95.3392 56.1386 94.3499 57.3592 94.3499ZM59.5697 107.978H70.1803V98.7708H59.5697V107.978Z" fill="white"/>
<path d="M57.3592 86.981H72.391C73.6122 86.981 74.6015 87.9705 74.6015 89.1914C74.6015 90.4123 73.6119 91.4019 72.391 91.4019H57.3592C56.1381 91.4019 55.1488 90.4123 55.1488 89.1914C55.1488 87.9705 56.1386 86.981 57.3592 86.981Z" fill="white"/>
<path d="M82.8651 94.3499H97.8969C99.1181 94.3499 100.107 95.3392 100.107 96.5603V110.189C100.107 111.41 99.1178 112.399 97.8969 112.399H82.8651C81.6439 112.399 80.6546 111.41 80.6546 110.189V96.5603C80.6546 95.3392 81.6442 94.3499 82.8651 94.3499ZM85.0756 107.978H95.6861V98.7708H85.0756V107.978Z" fill="white"/>
<path d="M82.8651 86.981H97.8969C99.1181 86.981 100.107 87.9705 100.107 89.1914C100.107 90.4123 99.1178 91.4019 97.8969 91.4019H82.8651C81.6439 91.4019 80.6546 90.4123 80.6546 89.1914C80.6546 87.9705 81.6442 86.981 82.8651 86.981Z" fill="white"/>
<path d="M108.371 94.3499H123.402C124.624 94.3499 125.613 95.3392 125.613 96.5603V110.189C125.613 111.41 124.623 112.399 123.402 112.399H108.371C107.15 112.399 106.16 111.41 106.16 110.189V96.5603C106.16 95.3392 107.15 94.3499 108.371 94.3499ZM110.581 107.978H121.192V98.7708H110.581V107.978Z" fill="white"/>
<path d="M108.371 86.981H123.402C124.624 86.981 125.613 87.9705 125.613 89.1914C125.613 90.4123 124.623 91.4019 123.402 91.4019H108.371C107.15 91.4019 106.16 90.4123 106.16 89.1914C106.16 87.9705 107.15 86.981 108.371 86.981Z" fill="white"/>
</svg>
