<svg width="844" height="972" viewBox="0 0 844 972" fill="none" xmlns="http://www.w3.org/2000/svg">
<path d="M112.5 783.5H517.5V948.5H112.5V783.5Z" stroke="white" stroke-width="5"/>
<path d="M322.012 573.5H517.012V768.5H322.012V573.5Z" stroke="white" stroke-width="5"/>
<path d="M322.012 363.5H517.012V558.5H322.012V363.5Z" stroke="white" stroke-width="5"/>
<rect x="532.5" y="363.5" width="195" height="195" stroke="white" stroke-width="5"/>
<path d="M112.5 573.5H307.5V768.5H112.5V573.5Z" stroke="white" stroke-width="5"/>
<rect x="112.5" y="363.5" width="195" height="195" stroke="white" stroke-width="5"/>
<path d="M533 971L533 571" stroke="white" stroke-width="5"/>
<line x1="533" y1="573.5" x2="729" y2="573.5" stroke="white" stroke-width="5"/>
<line x1="727.479" y1="571" x2="727.479" y2="971" stroke="white" stroke-width="5"/>
<path d="M323.5 137.5H518.5V332.5H323.5V137.5Z" stroke="white" stroke-width="5"/>
<path d="M24.5001 347.5H819.5V968.5H24.5001V347.5Z" stroke="white" stroke-width="5"/>
<path d="M2.00003 365.999L422 3.50004L842 365.999" stroke="white" stroke-width="5"/>
<path d="M637.077 189.5L637.077 42" stroke="white" stroke-width="5"/>
<path d="M710.923 252.5L710.923 42" stroke="white" stroke-width="5"/>
<path d="M634.582 44H713.427" stroke="white" stroke-width="5"/>
<path d="M0 969H844" stroke="white" stroke-width="5"/>
<line x1="712.5" y1="746" x2="712.5" y2="796" stroke="white" stroke-width="5"/>
</svg>
