<svg width="800" height="800" viewBox="0 0 800 800" fill="none" xmlns="http://www.w3.org/2000/svg">
<g clip-path="url(#clip0_1_33)">
<path d="M735.484 103.226H645.161V206.452H0V800H735.484C771.058 800 800 771.058 800 735.484V167.742C800 132.168 771.058 103.226 735.484 103.226ZM735.484 774.194H25.8065V232.258H645.161V696.774H735.484C756.826 696.774 774.194 714.142 774.194 735.484C774.194 756.826 756.826 774.194 735.484 774.194ZM774.194 683.897C763.406 675.781 750 670.968 735.484 670.968H670.968V129.032H735.484C756.826 129.032 774.194 146.4 774.194 167.742V683.897Z" fill="white"/>
<path d="M529.032 464.516H425.806V412.903H580.645V335.484H387.097V258.065H283.871V335.484H90.3226V412.903H245.161V464.516H141.935V438.71H64.5161V516.129H90.3226V670.968H64.5161V748.387H141.935V722.581H245.161V748.387H425.806V722.581H529.032V748.387H606.452V670.968H580.645V516.129H606.452V438.71H529.032V464.516ZM529.032 361.29H554.839V387.097H529.032V361.29ZM477.419 361.29H503.226V387.097H477.419V361.29ZM425.806 361.29H451.613V387.097H425.806V361.29ZM90.3226 464.516H116.129V490.323H90.3226V464.516ZM116.129 722.581H90.3226V696.774H116.129V722.581ZM245.161 696.774H141.935V670.968H116.129V606.452H219.355V580.645H116.129V516.129H141.935V490.323H245.161V696.774ZM309.677 283.871H361.29V335.484H309.677V283.871ZM141.935 387.097H116.129V361.29H141.935V387.097ZM193.548 387.097H167.742V361.29H193.548V387.097ZM245.161 387.097H219.355V361.29H245.161V387.097ZM400 387.097V400V722.581H348.387V541.935H322.581V722.581H270.968V400V387.097V361.29H283.871H387.097H400V387.097ZM580.645 722.581H554.839V696.774H580.645V722.581ZM554.839 464.516H580.645V490.323H554.839V464.516ZM554.839 580.645H451.613V606.452H554.839V670.968H529.032V696.774H425.806V490.323H529.032V516.129H554.839V580.645Z" fill="white"/>
<path d="M180.645 129.032C201.987 129.032 219.355 111.665 219.355 90.3226C219.355 76.9935 212.581 65.2129 202.297 58.2452C213.652 38.5032 234.748 25.8065 258.065 25.8065C281.381 25.8065 302.477 38.5032 313.832 58.2452C303.548 65.2129 296.774 76.9935 296.774 90.3226C296.774 110.284 312.013 126.568 331.445 128.619C346.206 160.013 377.729 180.645 412.903 180.645C448.077 180.645 479.6 160.013 494.361 128.619C513.794 126.568 529.032 110.284 529.032 90.3226C529.032 68.9806 511.665 51.6129 490.323 51.6129C468.981 51.6129 451.613 68.9806 451.613 90.3226C451.613 103.652 458.387 115.432 468.671 122.4C457.316 142.142 436.219 154.839 412.903 154.839C389.587 154.839 368.49 142.142 357.135 122.4C367.419 115.432 374.194 103.652 374.194 90.3226C374.194 70.3613 358.955 54.0774 339.523 52.0258C324.761 20.6323 293.239 0 258.065 0C222.89 0 191.368 20.6323 176.606 52.0258C157.174 54.0774 141.935 70.3613 141.935 90.3226C141.935 111.665 159.303 129.032 180.645 129.032ZM490.323 77.4194C497.445 77.4194 503.226 83.2 503.226 90.3226C503.226 97.4452 497.445 103.226 490.323 103.226C483.2 103.226 477.419 97.4452 477.419 90.3226C477.419 83.2 483.2 77.4194 490.323 77.4194ZM335.484 77.4194C342.606 77.4194 348.387 83.2 348.387 90.3226C348.387 97.4452 342.606 103.226 335.484 103.226C328.361 103.226 322.581 97.4452 322.581 90.3226C322.581 83.2 328.361 77.4194 335.484 77.4194ZM180.645 77.4194C187.768 77.4194 193.548 83.2 193.548 90.3226C193.548 97.4452 187.768 103.226 180.645 103.226C173.523 103.226 167.742 97.4452 167.742 90.3226C167.742 83.2 173.523 77.4194 180.645 77.4194Z" fill="white"/>
</g>
<defs>
<clipPath id="clip0_1_33">
<rect width="800" height="800" fill="white"/>
</clipPath>
</defs>
</svg>
