<svg width="379" height="97" viewBox="0 0 379 97" fill="white" xmlns="http://www.w3.org/2000/svg">
<path d="M21.2952 0.333959C19.6808 0.853135 18.1377 2.54046 17.7341 4.22778C17.6154 4.72532 15.9536 6.36938 11.4666 10.4363C6.21999 15.1954 5.2229 16.0174 4.36824 16.2337C2.87259 16.5798 1.42443 17.6831 0.664732 19.0459L0 20.2357L0.0712213 25.3193C0.142443 30.9221 0.189924 31.0519 1.73305 32.458C3.29992 33.9073 3.70351 33.9722 10.8969 33.9722H17.3543V56.8809V79.7895L13.0335 79.8761C8.73648 79.941 8.66526 79.941 7.40702 80.5899C6.05381 81.2822 5.24664 82.0826 4.65313 83.3589C4.20206 84.354 4.13084 89.3294 4.5819 89.7404C4.79557 89.9351 10.1846 90 27.3727 90C49.3564 90 49.8787 90 50.1161 89.589C50.2348 89.351 50.3535 88.118 50.3535 86.82C50.3535 84.8299 50.2585 84.3323 49.7837 83.4021C49.1427 82.1258 48.2406 81.2605 46.9111 80.6332C46.0565 80.2222 45.4867 80.1573 41.617 80.0924L37.2962 80.0059L37.3437 57.0539L37.4149 34.0804L54.4606 34.0155L71.4825 33.9722V36.7844V39.5967H67.7315C64.1704 39.5967 63.9093 39.6183 62.746 40.1591C60.4669 41.1974 59.3748 43.0362 59.3748 45.8484C59.3748 47.2112 59.3511 47.2978 58.7101 47.5574C57.7842 47.9251 56.5972 49.0284 55.98 50.0667C55.4577 50.9536 55.4577 50.9753 55.3864 67.8701C55.3152 84.6352 55.339 84.8082 55.8138 85.2409C56.2886 85.6735 56.526 85.6735 72.6695 85.6735C88.813 85.6735 89.0504 85.6735 89.5252 85.2409C90 84.8082 90.0237 84.6352 89.9525 67.8701C89.8813 50.9753 89.8813 50.9536 89.359 50.0667C88.7418 49.0284 87.5547 47.9251 86.6289 47.5574C86.0116 47.2978 85.9641 47.2112 85.9641 45.9133C85.9641 43.1011 84.8483 41.1758 82.6167 40.1591C81.4297 39.6183 81.1923 39.5967 77.6075 39.5967H73.8328L73.904 36.8277L73.9752 34.0804L79.7916 33.9722L85.608 33.8641L86.89 33.2151C87.5785 32.869 88.4094 32.2849 88.718 31.9172C89.905 30.4894 90 29.9919 90 24.9516C90 20.6684 89.9525 20.1492 89.5015 19.2623C88.9554 18.1374 88.0295 17.2072 87.0562 16.7313C86.6763 16.5582 85.0145 16.1039 83.3764 15.7146C81.7383 15.3252 70.6515 12.6428 58.7576 9.74403L37.13 4.46574L36.8214 3.49228C36.4178 2.2376 34.6848 0.636812 33.3553 0.269062C31.9309 -0.12032 22.5297 -0.0770552 21.2952 0.333959ZM32.4057 2.51883C32.7618 2.64862 32.7143 2.77841 31.9071 3.51391C31.4086 3.98982 30.1741 5.07144 29.1533 5.9151L27.3015 7.42937L24.5951 4.98491C22.6721 3.23269 21.9599 2.45393 22.1736 2.32413C22.5059 2.10781 31.741 2.28087 32.4057 2.51883ZM22.9807 6.54244L25.6634 8.96526L22.862 11.5828C21.3427 13.0105 20.0132 14.2003 19.9182 14.2436C19.6808 14.3301 19.6571 5.76368 19.8707 4.79022C19.9657 4.42247 20.0844 4.11962 20.1794 4.11962C20.2506 4.11962 21.5088 5.20124 22.9807 6.54244ZM34.7797 4.46574C34.851 4.66043 34.9222 6.95345 34.9222 9.5926V14.395L31.9546 11.6909L28.9871 8.98689L31.646 6.56407C33.1179 5.22287 34.3999 4.11962 34.4711 4.11962C34.5661 4.11962 34.7085 4.27104 34.7797 4.46574ZM42.0918 7.99181C44.4896 8.57588 52.6326 10.5444 60.2058 12.3399C67.779 14.157 74.0702 15.7362 74.2126 15.8443C74.3313 15.9309 66.0934 15.9958 55.9325 15.9741L37.4149 15.9092L37.3437 11.4097C37.32 8.66241 37.3675 6.93182 37.5099 6.93182C37.6286 6.93182 39.694 7.40773 42.0918 7.99181ZM17.3543 12.1236V16.0174H13.0335H8.689L12.9623 12.1236C15.3126 9.98198 17.2593 8.22976 17.283 8.22976C17.3305 8.22976 17.3543 9.98198 17.3543 12.1236ZM30.2453 13.1619C31.7647 14.5464 33.023 15.7794 33.023 15.866C33.023 15.9525 30.459 16.0174 27.3252 16.0174C24.1915 16.0174 21.6275 15.9525 21.6275 15.866C21.6275 15.6713 27.1353 10.6093 27.3252 10.6093C27.3965 10.6093 28.7022 11.7558 30.2453 13.1619ZM85.7267 18.4402C87.4598 19.5218 87.5073 19.6516 87.5785 24.7352C87.626 29.1482 87.6022 29.3429 87.1037 30.1866C86.7476 30.749 86.1778 31.2249 85.4893 31.5278L84.4447 32.0253H44.8932C6.86099 32.0253 5.31786 32.0037 4.39198 31.6143C3.84595 31.398 3.15748 30.8788 2.84885 30.4894C2.30282 29.7756 2.27908 29.6025 2.20786 25.2544C2.13664 21.0794 2.16038 20.69 2.61145 19.8247C2.92007 19.2623 3.44236 18.7431 3.98839 18.4402L4.89053 17.9643H44.9169H84.9433L85.7267 18.4402ZM33.023 34.1453C33.023 34.2318 31.741 35.4649 30.1741 36.8926L27.3252 39.4885L24.4764 36.8926C22.9095 35.4649 21.6275 34.2318 21.6275 34.1453C21.6275 34.0371 24.1915 33.9722 27.3252 33.9722C30.459 33.9722 33.023 34.0371 33.023 34.1453ZM22.7671 38.3636L25.6634 41.0028L22.6959 43.7068L19.7283 46.4108V41.046C19.7283 38.104 19.752 35.7028 19.7995 35.7028C19.8233 35.7028 21.1527 36.8926 22.7671 38.3636ZM34.9222 41.1542V46.4108L31.9309 43.7068L28.9633 41.0028L31.8359 38.4501C33.4028 37.0657 34.756 35.9192 34.8035 35.9192C34.8747 35.9192 34.9222 38.2771 34.9222 41.1542ZM81.6908 42.1709C82.8779 42.755 83.6376 44.1394 83.5426 45.6537L83.4714 46.8435L72.622 46.9084L61.7489 46.9516V45.697C61.7489 44.0962 62.4848 42.7333 63.6481 42.1709C64.4078 41.8032 65.1438 41.7599 72.6695 41.7599C80.1952 41.7599 80.9312 41.8032 81.6908 42.1709ZM30.9575 45.8268L34.4474 49.0067L30.8863 52.2516L27.3252 55.4964L23.7642 52.2516L20.2031 49.0067L23.693 45.8268C25.6159 44.0529 27.254 42.6252 27.3252 42.6252C27.3965 42.6252 29.0346 44.0529 30.9575 45.8268ZM85.7267 49.4394C86.249 49.7206 86.7713 50.283 87.1512 50.9536L87.7447 52.0352L87.8159 67.762L87.8634 83.5103H82.8779H77.8924V80.8495C77.8924 77.5614 77.5363 76.35 76.3018 75.2467C74.5212 73.6676 72.4558 73.3647 70.2717 74.3598C69.4408 74.7492 68.7523 75.29 68.2775 75.8957C67.5653 76.8259 67.5653 76.8692 67.4941 80.1789L67.4228 83.5103H62.5561H57.713V67.6754C57.713 52.165 57.713 51.8189 58.1878 50.932C58.6864 50.0018 59.4461 49.4177 60.5381 49.0932C60.8705 49.0067 66.497 48.9418 73.0256 48.9635C84.4447 49.0067 84.9195 49.0284 85.7267 49.4394ZM22.7671 54.3715L25.6634 57.0107L22.6959 59.7147L19.7283 62.4188V57.0539C19.7283 54.112 19.752 51.7108 19.7995 51.7108C19.8233 51.7108 21.1527 52.9005 22.7671 54.3715ZM34.9222 57.0323V62.1375L31.9309 59.5849L28.9396 57.0323L31.7884 54.4797C33.3553 53.0736 34.7085 51.9271 34.7797 51.9271C34.851 51.9271 34.9222 54.2201 34.9222 57.0323ZM30.9575 61.8347L34.4474 65.0146L30.8863 68.2595L27.3252 71.5044L23.7642 68.2595L20.2031 65.0146L23.693 61.8347C25.6159 60.0608 27.254 58.6331 27.3252 58.6331C27.3965 58.6331 29.0346 60.0608 30.9575 61.8347ZM21.6275 69.1681C22.4822 69.9901 23.7404 71.1799 24.4052 71.8288L25.6634 73.0186L22.6959 75.7227L19.7283 78.4267V73.0619C19.7283 70.1199 19.7995 67.7187 19.9182 67.7187C20.0132 67.7187 20.7966 68.3677 21.6275 69.1681ZM34.9222 72.9537V78.1671L32.1446 75.701C30.6014 74.3382 29.2957 73.1484 29.2482 73.0402C29.177 72.8888 34.6373 67.7187 34.851 67.7187C34.8984 67.7187 34.9222 70.0766 34.9222 72.9537ZM30.2928 77.2369L33.1417 79.8328H27.3252H21.5088L24.3577 77.2369C25.9246 75.8092 27.254 74.641 27.3252 74.641C27.3965 74.641 28.7259 75.8092 30.2928 77.2369ZM74.2838 76.8043C75.4471 77.4532 75.7557 78.3618 75.7557 81.1307V83.5103H72.9069H70.058V80.8928C70.058 77.9724 70.2954 77.2802 71.5774 76.7177C72.5745 76.2635 73.358 76.2851 74.2838 76.8043ZM46.2701 82.5368C47.6233 83.2723 47.9794 84.0511 47.9794 86.1927V88.0531H27.3015H6.62358L6.71854 86.0196C6.78977 84.0078 6.81351 83.9429 7.62068 83.1858C8.07175 82.7748 8.76022 82.3205 9.16381 82.2124C9.5674 82.1258 17.8053 82.0393 27.6814 82.0609C45.0356 82.1042 45.5104 82.1258 46.2701 82.5368Z" fill=""/>
<path d="M63.6956 51.5161C62.3899 52.1218 60.9418 53.636 60.5857 54.7825C60.372 55.4315 60.3245 57.6596 60.372 62.2024C60.4432 69.3411 60.4195 69.2329 62.0338 70.7256C62.4611 71.1366 63.2921 71.6774 63.8856 71.9153C64.9064 72.348 65.3337 72.3696 72.5508 72.3696C78.1773 72.3696 80.3614 72.3047 81.0262 72.0884C82.4981 71.6125 83.7326 70.639 84.3973 69.4276L85.0146 68.2811V61.6833C85.0146 54.3066 84.9671 54.0687 83.329 52.5977C81.6909 51.105 81.5247 51.0618 72.6695 51.0618C65.0489 51.0618 64.669 51.0834 63.6956 51.5161ZM71.4825 56.9025V60.58H66.9481H62.4137L62.4849 58.1356C62.6036 55.4099 62.936 54.5878 64.3604 53.7226C65.0726 53.2683 65.4287 53.225 68.3013 53.225H71.4825V56.9025ZM80.9312 53.6577C82.3556 54.4581 82.6405 55.1719 82.6405 58.0274V60.58H78.2485H73.8566V56.9025V53.225H77.014C79.7204 53.225 80.2427 53.2899 80.9312 53.6577ZM71.435 66.2477L71.3638 69.9901L69.5833 70.055C68.6099 70.0982 67.1143 70.055 66.2834 69.9901C64.9776 69.8603 64.6453 69.7305 63.8381 69.0599C62.7223 68.1081 62.4849 67.286 62.4611 64.5171V62.5269H66.9718H71.4825L71.435 66.2477ZM82.6405 65.4473V68.1513L81.7859 69.0166C81.3111 69.4925 80.6226 69.9468 80.2427 70.055C79.8629 70.1415 78.3198 70.1631 76.7766 70.0982L73.9753 69.9901L73.904 66.3558L73.8566 62.7432H78.2485H82.6405V65.4473Z" fill=""/>
<path d="M121.375 82.7656H124.375C124.219 84.2031 123.807 85.4896 123.141 86.625C122.474 87.7604 121.531 88.6615 120.312 89.3281C119.094 89.9844 117.573 90.3125 115.75 90.3125C114.417 90.3125 113.203 90.0625 112.109 89.5625C111.026 89.0625 110.094 88.3542 109.312 87.4375C108.531 86.5104 107.927 85.401 107.5 84.1094C107.083 82.8073 106.875 81.3594 106.875 79.7656V77.5C106.875 75.9062 107.083 74.4635 107.5 73.1719C107.927 71.8698 108.536 70.7552 109.328 69.8281C110.13 68.901 111.094 68.1875 112.219 67.6875C113.344 67.1875 114.609 66.9375 116.016 66.9375C117.734 66.9375 119.188 67.2604 120.375 67.9062C121.562 68.5521 122.484 69.4479 123.141 70.5938C123.807 71.7292 124.219 73.0469 124.375 74.5469H121.375C121.229 73.4844 120.958 72.5729 120.562 71.8125C120.167 71.0417 119.604 70.4479 118.875 70.0312C118.146 69.6146 117.193 69.4062 116.016 69.4062C115.005 69.4062 114.115 69.599 113.344 69.9844C112.583 70.3698 111.943 70.9167 111.422 71.625C110.911 72.3333 110.526 73.1823 110.266 74.1719C110.005 75.1615 109.875 76.2604 109.875 77.4688V79.7656C109.875 80.8802 109.99 81.9271 110.219 82.9062C110.458 83.8854 110.818 84.7448 111.297 85.4844C111.776 86.224 112.385 86.8073 113.125 87.2344C113.865 87.651 114.74 87.8594 115.75 87.8594C117.031 87.8594 118.052 87.6562 118.812 87.25C119.573 86.8438 120.146 86.2604 120.531 85.5C120.927 84.7396 121.208 83.8281 121.375 82.7656ZM139.312 73.0938V75.4844H130.766V73.0938H139.312ZM131.188 73.0938V90H128.297V73.0938H131.188ZM141.875 73.0938V90H138.969V73.0938H141.875ZM153.531 90.3125C152.354 90.3125 151.286 90.1146 150.328 89.7188C149.38 89.3125 148.562 88.7448 147.875 88.0156C147.198 87.2865 146.677 86.4219 146.312 85.4219C145.948 84.4219 145.766 83.3281 145.766 82.1406V81.4844C145.766 80.1094 145.969 78.8854 146.375 77.8125C146.781 76.7292 147.333 75.8125 148.031 75.0625C148.729 74.3125 149.521 73.7448 150.406 73.3594C151.292 72.974 152.208 72.7812 153.156 72.7812C154.365 72.7812 155.406 72.9896 156.281 73.4062C157.167 73.8229 157.891 74.4062 158.453 75.1562C159.016 75.8958 159.432 76.7708 159.703 77.7812C159.974 78.7812 160.109 79.875 160.109 81.0625V82.3594H147.484V80H157.219V79.7812C157.177 79.0312 157.021 78.3021 156.75 77.5938C156.49 76.8854 156.073 76.3021 155.5 75.8438C154.927 75.3854 154.146 75.1562 153.156 75.1562C152.5 75.1562 151.896 75.2969 151.344 75.5781C150.792 75.849 150.318 76.2552 149.922 76.7969C149.526 77.3385 149.219 78 149 78.7812C148.781 79.5625 148.672 80.4635 148.672 81.4844V82.1406C148.672 82.9427 148.781 83.6979 149 84.4062C149.229 85.1042 149.557 85.7188 149.984 86.25C150.422 86.7812 150.948 87.1979 151.562 87.5C152.188 87.8021 152.896 87.9531 153.688 87.9531C154.708 87.9531 155.573 87.7448 156.281 87.3281C156.99 86.9115 157.609 86.3542 158.141 85.6562L159.891 87.0469C159.526 87.599 159.062 88.125 158.5 88.625C157.938 89.125 157.245 89.5312 156.422 89.8438C155.609 90.1562 154.646 90.3125 153.531 90.3125ZM163.734 90V73.0938H166.625V87.625H174.406V73.0938H177.312V90H163.734ZM179.312 87.625L179.031 95.0156H176.453V90H174.25V87.625H179.312ZM196.625 82.7656H199.625C199.469 84.2031 199.057 85.4896 198.391 86.625C197.724 87.7604 196.781 88.6615 195.562 89.3281C194.344 89.9844 192.823 90.3125 191 90.3125C189.667 90.3125 188.453 90.0625 187.359 89.5625C186.276 89.0625 185.344 88.3542 184.562 87.4375C183.781 86.5104 183.177 85.401 182.75 84.1094C182.333 82.8073 182.125 81.3594 182.125 79.7656V77.5C182.125 75.9062 182.333 74.4635 182.75 73.1719C183.177 71.8698 183.786 70.7552 184.578 69.8281C185.38 68.901 186.344 68.1875 187.469 67.6875C188.594 67.1875 189.859 66.9375 191.266 66.9375C192.984 66.9375 194.438 67.2604 195.625 67.9062C196.812 68.5521 197.734 69.4479 198.391 70.5938C199.057 71.7292 199.469 73.0469 199.625 74.5469H196.625C196.479 73.4844 196.208 72.5729 195.812 71.8125C195.417 71.0417 194.854 70.4479 194.125 70.0312C193.396 69.6146 192.443 69.4062 191.266 69.4062C190.255 69.4062 189.365 69.599 188.594 69.9844C187.833 70.3698 187.193 70.9167 186.672 71.625C186.161 72.3333 185.776 73.1823 185.516 74.1719C185.255 75.1615 185.125 76.2604 185.125 77.4688V79.7656C185.125 80.8802 185.24 81.9271 185.469 82.9062C185.708 83.8854 186.068 84.7448 186.547 85.4844C187.026 86.224 187.635 86.8073 188.375 87.2344C189.115 87.651 189.99 87.8594 191 87.8594C192.281 87.8594 193.302 87.6562 194.062 87.25C194.823 86.8438 195.396 86.2604 195.781 85.5C196.177 84.7396 196.458 83.8281 196.625 82.7656ZM210.188 73.0938V90H207.281V73.0938H210.188ZM215.859 73.0938V75.4375H201.719V73.0938H215.859ZM221.594 76.3438V96.5H218.688V73.0938H221.344L221.594 76.3438ZM232.984 81.4062V81.7344C232.984 82.9635 232.839 84.1042 232.547 85.1562C232.255 86.1979 231.828 87.1042 231.266 87.875C230.714 88.6458 230.031 89.2448 229.219 89.6719C228.406 90.099 227.474 90.3125 226.422 90.3125C225.349 90.3125 224.401 90.1354 223.578 89.7812C222.755 89.4271 222.057 88.9115 221.484 88.2344C220.911 87.5573 220.453 86.7448 220.109 85.7969C219.776 84.849 219.547 83.7812 219.422 82.5938V80.8438C219.547 79.5938 219.781 78.474 220.125 77.4844C220.469 76.4948 220.922 75.651 221.484 74.9531C222.057 74.2448 222.75 73.7083 223.562 73.3438C224.375 72.9688 225.312 72.7812 226.375 72.7812C227.438 72.7812 228.38 72.9896 229.203 73.4062C230.026 73.8125 230.719 74.3958 231.281 75.1562C231.844 75.9167 232.266 76.8281 232.547 77.8906C232.839 78.9427 232.984 80.1146 232.984 81.4062ZM230.078 81.7344V81.4062C230.078 80.5625 229.99 79.7708 229.812 79.0312C229.635 78.2812 229.359 77.625 228.984 77.0625C228.62 76.4896 228.151 76.0417 227.578 75.7188C227.005 75.3854 226.323 75.2188 225.531 75.2188C224.802 75.2188 224.167 75.3438 223.625 75.5938C223.094 75.8438 222.641 76.1823 222.266 76.6094C221.891 77.026 221.583 77.5052 221.344 78.0469C221.115 78.5781 220.943 79.1302 220.828 79.7031V83.75C221.036 84.4792 221.328 85.1667 221.703 85.8125C222.078 86.4479 222.578 86.9635 223.203 87.3594C223.828 87.7448 224.615 87.9375 225.562 87.9375C226.344 87.9375 227.016 87.776 227.578 87.4531C228.151 87.1198 228.62 86.6667 228.984 86.0938C229.359 85.5208 229.635 84.8646 229.812 84.125C229.99 83.375 230.078 82.5781 230.078 81.7344ZM235.906 81.7344V81.375C235.906 80.1562 236.083 79.026 236.438 77.9844C236.792 76.9323 237.302 76.0208 237.969 75.25C238.635 74.4688 239.443 73.8646 240.391 73.4375C241.339 73 242.401 72.7812 243.578 72.7812C244.766 72.7812 245.833 73 246.781 73.4375C247.74 73.8646 248.552 74.4688 249.219 75.25C249.896 76.0208 250.411 76.9323 250.766 77.9844C251.12 79.026 251.297 80.1562 251.297 81.375V81.7344C251.297 82.9531 251.12 84.0833 250.766 85.125C250.411 86.1667 249.896 87.0781 249.219 87.8594C248.552 88.6302 247.745 89.2344 246.797 89.6719C245.859 90.099 244.797 90.3125 243.609 90.3125C242.422 90.3125 241.354 90.099 240.406 89.6719C239.458 89.2344 238.646 88.6302 237.969 87.8594C237.302 87.0781 236.792 86.1667 236.438 85.125C236.083 84.0833 235.906 82.9531 235.906 81.7344ZM238.797 81.375V81.7344C238.797 82.5781 238.896 83.375 239.094 84.125C239.292 84.8646 239.589 85.5208 239.984 86.0938C240.391 86.6667 240.896 87.1198 241.5 87.4531C242.104 87.776 242.807 87.9375 243.609 87.9375C244.401 87.9375 245.094 87.776 245.688 87.4531C246.292 87.1198 246.792 86.6667 247.188 86.0938C247.583 85.5208 247.88 84.8646 248.078 84.125C248.286 83.375 248.391 82.5781 248.391 81.7344V81.375C248.391 80.5417 248.286 79.7552 248.078 79.0156C247.88 78.2656 247.578 77.6042 247.172 77.0312C246.776 76.4479 246.276 75.9896 245.672 75.6562C245.078 75.3229 244.38 75.1562 243.578 75.1562C242.786 75.1562 242.089 75.3229 241.484 75.6562C240.891 75.9896 240.391 76.4479 239.984 77.0312C239.589 77.6042 239.292 78.2656 239.094 79.0156C238.896 79.7552 238.797 80.5417 238.797 81.375ZM258.047 85.4219L265.844 73.0938H268.75V90H265.844V77.6719L258.047 90H255.172V73.0938H258.047V85.4219ZM264.266 66.9688H266.609C266.609 67.7812 266.422 68.5052 266.047 69.1406C265.672 69.7656 265.135 70.2552 264.438 70.6094C263.74 70.9635 262.911 71.1406 261.953 71.1406C260.505 71.1406 259.359 70.7552 258.516 69.9844C257.682 69.2031 257.266 68.1979 257.266 66.9688H259.609C259.609 67.5833 259.786 68.125 260.141 68.5938C260.495 69.0625 261.099 69.2969 261.953 69.2969C262.786 69.2969 263.38 69.0625 263.734 68.5938C264.089 68.125 264.266 67.5833 264.266 66.9688ZM282.219 81.0781H276.141V78.625H282.219C283.396 78.625 284.349 78.4375 285.078 78.0625C285.807 77.6875 286.339 77.1667 286.672 76.5C287.016 75.8333 287.188 75.0729 287.188 74.2188C287.188 73.4375 287.016 72.7031 286.672 72.0156C286.339 71.3281 285.807 70.776 285.078 70.3594C284.349 69.9323 283.396 69.7188 282.219 69.7188H276.844V90H273.828V67.25H282.219C283.938 67.25 285.391 67.5469 286.578 68.1406C287.766 68.7344 288.667 69.5573 289.281 70.6094C289.896 71.651 290.203 72.8438 290.203 74.1875C290.203 75.6458 289.896 76.8906 289.281 77.9219C288.667 78.9531 287.766 79.7396 286.578 80.2812C285.391 80.8125 283.938 81.0781 282.219 81.0781ZM300.375 90.3125C299.198 90.3125 298.13 90.1146 297.172 89.7188C296.224 89.3125 295.406 88.7448 294.719 88.0156C294.042 87.2865 293.521 86.4219 293.156 85.4219C292.792 84.4219 292.609 83.3281 292.609 82.1406V81.4844C292.609 80.1094 292.812 78.8854 293.219 77.8125C293.625 76.7292 294.177 75.8125 294.875 75.0625C295.573 74.3125 296.365 73.7448 297.25 73.3594C298.135 72.974 299.052 72.7812 300 72.7812C301.208 72.7812 302.25 72.9896 303.125 73.4062C304.01 73.8229 304.734 74.4062 305.297 75.1562C305.859 75.8958 306.276 76.7708 306.547 77.7812C306.818 78.7812 306.953 79.875 306.953 81.0625V82.3594H294.328V80H304.062V79.7812C304.021 79.0312 303.865 78.3021 303.594 77.5938C303.333 76.8854 302.917 76.3021 302.344 75.8438C301.771 75.3854 300.99 75.1562 300 75.1562C299.344 75.1562 298.74 75.2969 298.188 75.5781C297.635 75.849 297.161 76.2552 296.766 76.7969C296.37 77.3385 296.062 78 295.844 78.7812C295.625 79.5625 295.516 80.4635 295.516 81.4844V82.1406C295.516 82.9427 295.625 83.6979 295.844 84.4062C296.073 85.1042 296.401 85.7188 296.828 86.25C297.266 86.7812 297.792 87.1979 298.406 87.5C299.031 87.8021 299.74 87.9531 300.531 87.9531C301.552 87.9531 302.417 87.7448 303.125 87.3281C303.833 86.9115 304.453 86.3542 304.984 85.6562L306.734 87.0469C306.37 87.599 305.906 88.125 305.344 88.625C304.781 89.125 304.089 89.5312 303.266 89.8438C302.453 90.1562 301.49 90.3125 300.375 90.3125ZM317.094 87.9375C317.781 87.9375 318.417 87.7969 319 87.5156C319.583 87.2344 320.062 86.849 320.438 86.3594C320.812 85.8594 321.026 85.2917 321.078 84.6562H323.828C323.776 85.6562 323.438 86.5885 322.812 87.4531C322.198 88.3073 321.391 89 320.391 89.5312C319.391 90.0521 318.292 90.3125 317.094 90.3125C315.823 90.3125 314.714 90.0885 313.766 89.6406C312.828 89.1927 312.047 88.5781 311.422 87.7969C310.807 87.0156 310.344 86.1198 310.031 85.1094C309.729 84.0885 309.578 83.0104 309.578 81.875V81.2188C309.578 80.0833 309.729 79.0104 310.031 78C310.344 76.9792 310.807 76.0781 311.422 75.2969C312.047 74.5156 312.828 73.901 313.766 73.4531C314.714 73.0052 315.823 72.7812 317.094 72.7812C318.417 72.7812 319.573 73.0521 320.562 73.5938C321.552 74.125 322.328 74.8542 322.891 75.7812C323.464 76.6979 323.776 77.7396 323.828 78.9062H321.078C321.026 78.2083 320.828 77.5781 320.484 77.0156C320.151 76.4531 319.693 76.0052 319.109 75.6719C318.536 75.3281 317.865 75.1562 317.094 75.1562C316.208 75.1562 315.464 75.3333 314.859 75.6875C314.266 76.0312 313.792 76.5 313.438 77.0938C313.094 77.6771 312.844 78.3281 312.688 79.0469C312.542 79.7552 312.469 80.4792 312.469 81.2188V81.875C312.469 82.6146 312.542 83.3438 312.688 84.0625C312.833 84.7812 313.078 85.4323 313.422 86.0156C313.776 86.599 314.25 87.0677 314.844 87.4219C315.448 87.7656 316.198 87.9375 317.094 87.9375ZM331.828 88.25L336.531 73.0938H339.625L332.844 92.6094C332.688 93.026 332.479 93.474 332.219 93.9531C331.969 94.4427 331.646 94.9062 331.25 95.3438C330.854 95.7812 330.375 96.1354 329.812 96.4062C329.26 96.6875 328.599 96.8281 327.828 96.8281C327.599 96.8281 327.307 96.7969 326.953 96.7344C326.599 96.6719 326.349 96.6198 326.203 96.5781L326.188 94.2344C326.271 94.2448 326.401 94.2552 326.578 94.2656C326.766 94.2865 326.896 94.2969 326.969 94.2969C327.625 94.2969 328.182 94.2083 328.641 94.0312C329.099 93.8646 329.484 93.5781 329.797 93.1719C330.12 92.776 330.396 92.2292 330.625 91.5312L331.828 88.25ZM328.375 73.0938L332.766 86.2188L333.516 89.2656L331.438 90.3281L325.219 73.0938H328.375ZM345.125 76.3438V96.5H342.219V73.0938H344.875L345.125 76.3438ZM356.516 81.4062V81.7344C356.516 82.9635 356.37 84.1042 356.078 85.1562C355.786 86.1979 355.359 87.1042 354.797 87.875C354.245 88.6458 353.562 89.2448 352.75 89.6719C351.938 90.099 351.005 90.3125 349.953 90.3125C348.88 90.3125 347.932 90.1354 347.109 89.7812C346.286 89.4271 345.589 88.9115 345.016 88.2344C344.443 87.5573 343.984 86.7448 343.641 85.7969C343.307 84.849 343.078 83.7812 342.953 82.5938V80.8438C343.078 79.5938 343.312 78.474 343.656 77.4844C344 76.4948 344.453 75.651 345.016 74.9531C345.589 74.2448 346.281 73.7083 347.094 73.3438C347.906 72.9688 348.844 72.7812 349.906 72.7812C350.969 72.7812 351.911 72.9896 352.734 73.4062C353.557 73.8125 354.25 74.3958 354.812 75.1562C355.375 75.9167 355.797 76.8281 356.078 77.8906C356.37 78.9427 356.516 80.1146 356.516 81.4062ZM353.609 81.7344V81.4062C353.609 80.5625 353.521 79.7708 353.344 79.0312C353.167 78.2812 352.891 77.625 352.516 77.0625C352.151 76.4896 351.682 76.0417 351.109 75.7188C350.536 75.3854 349.854 75.2188 349.062 75.2188C348.333 75.2188 347.698 75.3438 347.156 75.5938C346.625 75.8438 346.172 76.1823 345.797 76.6094C345.422 77.026 345.115 77.5052 344.875 78.0469C344.646 78.5781 344.474 79.1302 344.359 79.7031V83.75C344.568 84.4792 344.859 85.1667 345.234 85.8125C345.609 86.4479 346.109 86.9635 346.734 87.3594C347.359 87.7448 348.146 87.9375 349.094 87.9375C349.875 87.9375 350.547 87.776 351.109 87.4531C351.682 87.1198 352.151 86.6667 352.516 86.0938C352.891 85.5208 353.167 84.8646 353.344 84.125C353.521 83.375 353.609 82.5781 353.609 81.7344ZM366.969 87.9375C367.656 87.9375 368.292 87.7969 368.875 87.5156C369.458 87.2344 369.938 86.849 370.312 86.3594C370.688 85.8594 370.901 85.2917 370.953 84.6562H373.703C373.651 85.6562 373.312 86.5885 372.688 87.4531C372.073 88.3073 371.266 89 370.266 89.5312C369.266 90.0521 368.167 90.3125 366.969 90.3125C365.698 90.3125 364.589 90.0885 363.641 89.6406C362.703 89.1927 361.922 88.5781 361.297 87.7969C360.682 87.0156 360.219 86.1198 359.906 85.1094C359.604 84.0885 359.453 83.0104 359.453 81.875V81.2188C359.453 80.0833 359.604 79.0104 359.906 78C360.219 76.9792 360.682 76.0781 361.297 75.2969C361.922 74.5156 362.703 73.901 363.641 73.4531C364.589 73.0052 365.698 72.7812 366.969 72.7812C368.292 72.7812 369.448 73.0521 370.438 73.5938C371.427 74.125 372.203 74.8542 372.766 75.7812C373.339 76.6979 373.651 77.7396 373.703 78.9062H370.953C370.901 78.2083 370.703 77.5781 370.359 77.0156C370.026 76.4531 369.568 76.0052 368.984 75.6719C368.411 75.3281 367.74 75.1562 366.969 75.1562C366.083 75.1562 365.339 75.3333 364.734 75.6875C364.141 76.0312 363.667 76.5 363.312 77.0938C362.969 77.6771 362.719 78.3281 362.562 79.0469C362.417 79.7552 362.344 80.4792 362.344 81.2188V81.875C362.344 82.6146 362.417 83.3438 362.562 84.0625C362.708 84.7812 362.953 85.4323 363.297 86.0156C363.651 86.599 364.125 87.0677 364.719 87.4219C365.323 87.7656 366.073 87.9375 366.969 87.9375Z" fill=""/>
</svg>
