<svg width="262" height="349" viewBox="0 0 262 349" fill="none" xmlns="http://www.w3.org/2000/svg">
<path d="M125.145 110.714C125.499 110.267 125.781 109.8 126.014 109.301C126.092 111.44 125.871 113.867 125.194 116.422C124.124 120.714 122.061 125.26 120.121 130.001C119.655 131.196 119.193 132.376 118.775 133.594C118.359 134.81 117.898 135.99 117.548 137.201C117.231 138.422 116.913 139.623 116.615 140.782C116.328 141.952 116.174 143.132 115.979 144.25C115.892 144.799 115.8 145.353 115.712 145.892C115.671 146.425 115.63 146.98 115.589 147.493C115.516 148.55 115.455 149.556 115.394 150.52C115.415 151.485 115.445 152.419 115.472 153.296C115.527 154.183 115.518 155.015 115.656 155.819C115.887 157.416 116.077 158.837 116.348 160.114C116.656 161.366 116.968 162.469 117.261 163.428C117.529 164.392 117.898 165.183 118.175 165.86C118.473 166.527 118.729 167.071 118.945 167.492C119.361 168.339 119.597 168.706 119.597 168.706C119.597 168.706 119.653 168.261 119.694 167.316C119.7 166.84 119.71 166.254 119.716 165.551C119.711 164.828 119.644 164.002 119.701 163.032C119.716 162.062 119.716 160.974 119.684 159.753C119.706 158.521 119.793 157.161 119.793 155.664C119.778 154.919 119.901 154.14 119.942 153.318C119.993 152.508 120.034 151.645 120.095 150.763C120.208 149.87 120.321 148.947 120.418 147.977C120.464 147.499 120.521 147.013 120.577 146.505C120.659 146.012 120.736 145.504 120.828 144.991C121.017 143.96 121.131 142.872 121.366 141.774C121.598 140.681 121.843 139.562 122.095 138.419C122.347 137.275 122.716 136.115 123.026 134.942C123.332 133.775 123.678 132.567 124.034 131.369C125.483 126.595 127.089 121.552 127.61 116.855C128.141 112.732 128.25 107.494 126.039 103.825C123.668 99.885 118.332 98.3867 115.023 102.436C112.742 105.229 113.158 109.349 115.946 111.629C118.745 113.913 122.854 113.508 125.145 110.714Z" fill="#2E3133"/>
<path d="M19.5843 155.702C20.1585 155.23 20.9794 154.471 22.1186 153.619C24.3403 151.848 27.6644 149.416 32.057 147.169C34.2172 146.015 36.7105 144.978 39.3883 144.045C42.0717 143.127 45.0013 142.382 48.1097 141.931C54.3287 140.987 61.2704 141.187 68.3351 142.783C75.3849 144.353 81.8083 147.268 87.2467 150.592C89.9711 152.27 92.4962 153.993 94.7378 155.783C95.3077 156.209 95.8507 156.671 96.379 157.118C96.9135 157.569 97.4516 157.964 97.9657 158.436C98.9861 159.354 99.9612 160.226 100.906 161.067C102.773 162.75 104.542 164.192 106.067 165.531C107.576 166.876 108.909 168.025 110.044 168.913C112.307 170.683 113.753 171.514 114.163 171.144C114.564 170.785 113.887 169.267 112.311 166.84C111.526 165.623 110.5 164.177 109.288 162.535C108.062 160.889 106.523 159.113 104.851 157.132C101.624 153.166 97.0726 148.523 91.2185 144.506C85.4004 140.452 78.2169 136.902 70.059 135.086C61.9223 133.228 53.7072 133.542 46.7351 135.424C43.2462 136.326 40.0551 137.63 37.2535 139.098C34.4421 140.576 31.9686 142.186 29.9074 143.859C25.7206 147.163 22.9756 150.431 21.246 152.745C20.3332 153.884 19.7484 154.859 19.322 155.479C18.9062 156.11 18.6856 156.444 18.6856 156.444C18.6856 156.444 18.9939 156.2 19.5843 155.702Z" fill="#2E3133"/>
<path d="M100.023 118.916C101.885 122.02 102.896 126.1 103.583 130.214C104.27 134.329 104.675 138.5 105.163 142.179C105.629 145.848 106.174 148.987 106.826 151.598C107.493 154.215 108.262 156.308 109.052 157.868C109.412 158.658 109.858 159.31 110.181 159.838C110.581 160.361 110.889 160.782 111.182 161.075C111.787 161.67 112.094 161.886 112.094 161.886C112.094 161.886 112.033 161.475 111.863 160.721C111.796 160.326 111.719 159.839 111.616 159.264C111.575 158.648 111.452 157.991 111.396 157.176C111.237 155.58 111.109 153.523 110.924 150.947C110.729 148.362 110.503 145.243 110.016 141.553C109.533 137.85 108.82 133.575 107.63 129.296C107.045 127.162 106.29 125.023 105.382 123.007C104.453 120.989 103.371 119.067 102.006 117.476C98.409 113.222 89.887 110.098 85.6543 115.265C83.371 118.061 83.7762 122.17 86.5721 124.454C89.3644 126.742 93.4833 126.336 95.7708 123.536C98.0548 120.75 97.6496 116.629 94.853 114.346C94.7858 114.3 94.7349 114.269 94.689 114.223C95.3508 114.475 96.0282 114.803 96.6646 115.275C97.9289 116.145 99.0992 117.376 100.023 118.916Z" fill="#2E3133"/>
<path d="M81.2193 170.997C82.5791 170.592 83.8101 170.039 85.0101 169.597C86.2214 169.145 87.4623 168.632 88.8278 168.366C92.9785 167.385 98.4324 168.058 103.265 170.234C103.748 170.439 104.19 170.551 104.533 170.639C106.986 172.353 108.642 171.167 106.145 169.099C103.512 167.002 100.69 165.195 97.8172 163.687C94.964 162.086 92.0755 160.778 89.2386 159.397C84.2775 157.125 79.9415 155.006 74.9034 153.354C73.3287 152.814 71.1635 152.373 68.7106 152.014C67.4887 151.881 66.2017 151.773 64.8879 151.712C63.5798 151.675 62.2511 151.742 60.9536 151.819C59.6405 151.922 58.3522 152.152 57.1671 152.404C55.9763 152.661 54.8477 153.091 53.8734 153.513C52.9089 153.923 52.0674 154.487 51.4261 155.078C50.7897 155.693 50.3583 156.329 50.1738 157.027C49.8916 158.11 50.4411 158.915 51.4664 159.51C51.9953 159.803 52.6359 160.044 53.3642 160.239C53.7334 160.341 54.1187 160.439 54.5239 160.516C54.9298 160.604 55.3498 160.696 55.7861 160.773C59.3004 161.331 63.7078 161.758 67.4738 161.912C68.1201 161.943 68.7671 161.952 69.4078 161.968C70.0385 161.993 70.6799 162.019 71.3269 162.05L73.2608 162.096L75.1947 162.192C75.8573 162.248 76.5234 162.32 77.1909 162.393C75.8933 162.511 74.569 162.685 73.282 162.875C72.005 163.136 70.7789 163.429 69.6807 163.788C67.4951 164.578 65.8227 165.553 65.3087 166.866C65.1298 167.312 65.1029 167.728 65.1857 168.098C64.7911 169.457 65.5455 170.693 67.4639 171.483C68.4496 171.914 69.5471 172.088 70.7223 172.207C71.3021 172.264 71.8968 172.304 72.5233 172.294C73.1187 172.273 73.7438 172.243 74.3703 172.212C75.6013 172.151 76.848 171.931 78.0175 171.755C79.1821 171.567 80.2909 171.258 81.2193 170.997Z" fill="#2E3133"/>
<path d="M210.971 0.785435C208.349 0.112977 205.702 -0.22502 203.136 -0.297145C200.558 -0.336742 198.086 -0.0786522 195.699 0.346319C194.54 0.612899 193.349 0.817956 192.247 1.17222C191.683 1.33627 191.128 1.50031 190.585 1.67496C190.031 1.85952 189.484 2.05682 188.941 2.25269C186.793 3.04536 184.892 4.00205 183.015 4.99766C179.274 7.05534 175.814 9.60235 172.982 12.7525C171.586 14.3534 170.365 16.0879 169.362 17.9222C168.403 19.7946 167.664 21.7448 167.22 23.707C166.368 27.6788 166.703 31.5417 167.71 34.7202C168.698 37.9297 170.232 40.5411 171.833 42.6341C175.66 47.6115 181.812 52.5011 188.279 52.96C194.269 53.3836 199.395 49.0992 201.004 43.5505C201.784 40.8317 201.694 37.9969 200.976 35.2774C200.17 32.1937 196.905 26.1423 193.357 25.7293C188.559 25.17 187.782 31.2016 189.18 34.4826C190.119 36.7043 191.396 37.7141 193.704 38.1461C194.629 38.3307 195.449 38.4127 196.088 38.6361C196.863 38.8879 194.643 42.4411 194.282 42.7402C190.029 46.275 184.296 42.7225 181.289 39.3977C177.428 35.131 176.186 28.5132 179.455 23.4808C184.1 16.3008 193.818 12.6677 202.084 14.0274C206.026 14.6815 212.192 16.6649 215.096 19.5478C217.397 21.8233 219.269 24.7634 220.434 28.1646C221.607 31.5686 222.092 35.3629 221.863 39.3369L221.722 40.8947L221.524 42.4673L221.345 44.0632C221.273 44.5864 221.143 45.0871 221.052 45.6075L220.763 47.1702C220.652 47.6907 220.5 48.2118 220.367 48.735L219.978 50.3055C219.833 50.8387 219.647 51.3549 219.472 51.8675C218.156 56.0981 216.275 60.3592 213.967 64.6174C209.324 73.1394 203.149 81.0484 196.379 87.8904C195.517 88.7318 194.678 89.6115 193.819 90.4098C192.957 91.1996 192.108 91.998 191.225 92.7574C190.335 93.5034 189.447 94.2473 188.537 94.9636C187.619 95.6664 186.7 96.3594 185.772 97.0311C182.047 99.6998 178.189 102.049 174.346 104.24C171.824 105.674 169.31 107.029 166.817 108.343C167.135 108.116 167.447 107.896 167.75 107.675C170.819 105.428 173.404 103.191 175.79 100.672C176.967 99.4127 178.086 98.0579 179.104 96.5164C180.115 94.9827 181.046 93.251 181.667 91.1622C182.283 89.0896 182.48 86.5419 181.723 83.8917C181.665 83.5615 181.521 83.2525 181.398 82.9244C181.272 82.609 181.162 82.2568 181.005 81.962C180.675 81.3489 180.382 80.7076 179.915 80.1079C179.685 79.8053 179.46 79.4949 179.233 79.1795C178.975 78.8925 178.696 78.6174 178.416 78.3331C177.869 77.7299 177.187 77.2838 176.51 76.7909C174.668 75.6164 172.565 74.9694 170.506 74.7828C168.443 74.5982 166.409 74.8266 164.521 75.422C162.643 76.0174 160.878 76.9097 159.34 78.0977C157.827 79.3033 156.547 80.7783 155.582 82.4103C155.634 82.329 155.688 82.2441 155.744 82.1664C154.715 83.7284 154.01 85.4092 153.674 87.1105C153.499 87.9625 153.396 88.8033 153.41 89.6525C153.397 90.5067 153.471 91.2838 153.661 92.1818C153.743 92.6018 153.907 93.1562 154.08 93.6215C154.274 94.1044 154.456 94.5584 154.713 94.9678C155.2 95.8043 155.813 96.4839 156.489 96.9894C157.858 98.0098 159.508 98.2905 160.849 97.9744C162.199 97.7128 163.266 96.9534 163.994 96.2866C164.166 96.1147 164.325 95.9556 164.473 95.7859C164.627 95.6318 164.709 95.489 164.815 95.3426C165.013 95.0527 165.168 94.784 165.287 94.5315C165.772 93.5133 165.756 92.8104 165.41 92.4993C165.055 92.1663 164.381 92.2759 163.471 92.5403C163.253 92.6139 163.001 92.6817 162.747 92.7503C162.624 92.7814 162.481 92.833 162.376 92.8557C162.269 92.8811 162.148 92.8889 162.035 92.9094C161.622 92.9434 161.268 92.9073 160.947 92.7659C160.626 92.6457 160.369 92.3579 160.29 92.0368C160.236 91.8749 160.241 91.7264 160.248 91.585C160.253 91.5079 160.271 91.4492 160.294 91.3849C160.307 91.3099 160.325 91.3135 160.335 91.1487C160.359 90.9104 160.4 90.4791 160.48 90.1121C160.548 89.7352 160.661 89.335 160.82 88.9496C161.097 88.1598 161.544 87.3848 162.098 86.6876L162.255 86.4387C162.787 85.733 163.43 85.0584 164.22 84.4524C165.023 83.8648 165.96 83.3691 166.963 83.0135C168.987 82.2823 171.229 82.2562 172.999 82.9498C173.304 83.1365 173.671 83.2419 173.94 83.4653C174.094 83.5784 174.236 83.6732 174.389 83.7757C174.512 83.8988 174.646 84.0324 174.779 84.1554C175.063 84.3732 175.266 84.7049 175.52 85.0047C175.651 85.1609 175.708 85.3094 175.818 85.4664C175.902 85.6283 176.036 85.7719 176.09 85.9338C176.719 87.2031 176.95 88.6456 176.793 90.1567C176.65 91.655 176.201 93.1704 175.593 94.6001C174.995 96.049 174.231 97.4399 173.363 98.7685C171.624 101.462 169.507 104.009 166.842 106.593C165.509 107.886 164.022 109.187 162.351 110.48C162.055 110.713 161.742 110.934 161.432 111.172C158.186 112.858 155.014 114.512 151.948 116.172C148.404 118.114 145.113 119.97 141.819 122.031C138.628 124.176 135.649 126.487 133.3 129.217C133 129.547 132.685 129.863 132.4 130.199C132.128 130.552 131.861 130.902 131.597 131.259C131.084 131.966 130.519 132.623 130.066 133.345C129.619 134.078 129.184 134.791 128.75 135.502L128.426 136.03L128.162 136.582C127.977 136.952 127.808 137.316 127.631 137.687C126.879 139.106 126.386 140.583 125.863 141.989C125.597 142.707 125.442 143.425 125.232 144.118C125.052 144.821 124.827 145.498 124.704 146.185C123.518 151.64 123.41 156.385 123.462 160.213C123.574 164.04 123.851 166.985 124.082 168.981C124.349 170.972 124.482 172.029 124.482 172.029C124.482 172.029 124.565 170.972 124.734 168.976C124.887 166.975 125.134 164.05 125.523 160.305C125.964 156.58 126.575 152.029 128.022 147.053C128.192 146.412 128.443 145.821 128.653 145.179C128.88 144.553 129.064 143.897 129.341 143.271C129.906 142.029 130.411 140.703 131.145 139.466C131.314 139.143 131.48 138.823 131.666 138.504L131.917 138.016L132.223 137.557C132.631 136.944 133.046 136.324 133.462 135.682C133.882 135.056 134.421 134.496 134.89 133.884C135.137 133.575 135.375 133.276 135.619 132.971C135.891 132.679 136.176 132.404 136.452 132.117C138.577 129.746 141.305 127.735 144.243 125.783C147.244 123.973 150.661 122.053 154.114 120.201C161.069 116.448 168.734 112.723 176.648 108.339C180.606 106.146 184.608 103.744 188.572 101.054C189.554 100.358 190.546 99.6729 191.539 98.9785C192.52 98.2552 193.499 97.5417 194.495 96.8134C195.482 96.0822 196.432 95.2867 197.422 94.5329C198.368 93.7608 199.33 92.9936 200.295 92.2136C204.128 89.1094 208.032 85.8928 211.924 82.4223C215.789 78.9469 219.635 75.2035 223.172 70.9375C226.694 66.6772 229.809 61.9714 232.128 56.8003C232.418 56.1512 232.728 55.5226 232.98 54.8607C233.221 54.1883 233.47 53.5193 233.716 52.8518C233.937 52.1801 234.211 51.5154 234.406 50.838C234.589 50.1535 234.773 49.4556 234.963 48.7732C235.134 48.0887 235.322 47.388 235.474 46.7028C235.589 46.0134 235.715 45.3332 235.83 44.6437C235.946 43.9536 236.056 43.2684 236.169 42.5811C236.264 41.891 236.33 41.1881 236.41 40.493C236.62 38.1688 236.648 35.8112 236.49 33.4764C236.631 33.0486 236.77 32.6222 236.911 32.1944C237.085 31.6916 237.247 31.1811 237.416 30.6833C237.599 30.1933 237.781 29.6934 237.96 29.2161C238.335 28.2261 238.686 27.2581 239.099 26.3332C239.49 25.4097 239.876 24.4884 240.315 23.6193C240.747 22.7567 241.139 21.9032 241.595 21.1077C242.039 20.3143 242.475 19.5506 242.914 18.8343C243.806 17.3975 244.702 16.1332 245.542 15.0683C245.97 14.5478 246.396 14.0699 246.767 13.6265C247.155 13.198 247.516 12.8055 247.873 12.4796C248.55 11.8021 249.127 11.3383 249.521 11.0173C249.908 10.7019 250.116 10.535 250.116 10.535C250.116 10.535 249.983 10.7811 249.724 11.235C249.442 11.6713 249.101 12.341 248.642 13.169C248.413 13.5926 248.188 14.0642 247.934 14.5754C247.682 15.0831 247.418 15.6347 247.161 16.2407C246.879 16.8311 246.607 17.4717 246.338 18.1527C246.058 18.8216 245.774 19.5273 245.509 20.274C244.947 21.7596 244.383 23.3704 243.864 25.0993C243.587 25.9507 243.326 26.8487 243.071 27.7495C242.935 28.2035 242.807 28.6603 242.671 29.1143C242.553 29.5817 242.417 30.0455 242.294 30.5179C242.171 30.9902 242.043 31.4675 241.911 31.9469C241.786 32.4207 241.665 32.9114 241.539 33.3965C241.288 34.3765 241.054 35.3594 240.803 36.3494C240.526 37.3443 240.305 38.3448 240.031 39.3574L239.238 42.4086C238.671 44.4422 238.086 46.495 237.331 48.542C237.078 49.3092 236.749 50.0581 236.429 50.8196C238.532 50.1316 241.223 48.6212 243.709 46.0834C246.187 43.564 248.453 40.0468 249.974 35.6324C251.211 32.0763 251.962 27.9588 252.617 23.8986C253.285 19.8554 253.84 15.8404 254.774 12.4442C255.664 9.0303 257.042 6.20539 258.656 4.40793C258.846 4.18802 259.043 3.94832 259.233 3.75882C259.436 3.57709 259.62 3.39254 259.805 3.22778C259.989 3.06303 260.158 2.9039 260.315 2.75824C260.484 2.63025 260.638 2.51712 260.779 2.41742C261.372 1.98891 261.698 1.74496 261.698 1.74496C261.698 1.74496 261.32 1.69124 260.566 1.59366C260.377 1.5781 260.166 1.55265 259.936 1.52719L259.179 1.52435C258.91 1.53779 258.597 1.54203 258.286 1.54486C257.963 1.55971 257.645 1.62194 257.278 1.66013C255.842 1.83478 254.157 2.35027 252.314 3.18607C250.457 4.01692 248.603 5.25575 246.778 6.73078C243.123 9.70911 239.899 13.6625 237.266 17.6485C236.163 19.3569 235.171 21.0469 234.283 22.7149C232.413 17.5043 229.414 12.6839 225.448 8.89313C221.324 4.9305 216.222 2.08015 210.971 0.785435Z" fill="#2E3133"/>
<path d="M191.335 125.814C186.735 122.389 181.005 120.578 175.209 120.606C169.404 120.644 163.932 122.381 159.515 124.869C155.338 127.25 151.477 129.705 148.216 132.578C144.947 135.436 142.241 138.552 140.029 141.668C139.486 142.457 138.965 143.246 138.455 144.002C137.998 144.798 137.533 145.58 137.089 146.342C136.623 147.085 136.266 147.883 135.891 148.637C135.517 149.402 135.116 150.121 134.824 150.875C134.208 152.362 133.603 153.768 133.176 155.148C132.946 155.841 132.719 156.497 132.53 157.149C132.355 157.806 132.18 158.442 132.022 159.063C131.698 160.279 131.493 161.449 131.309 162.516C131.104 163.582 130.99 164.568 130.924 165.466C130.74 167.231 130.744 168.621 130.765 169.565C130.785 170.509 130.812 170.996 130.812 170.996C130.812 170.996 131.038 170.545 131.401 169.688C131.756 168.831 132.274 167.564 132.931 165.942C133.09 165.537 133.26 165.121 133.424 164.67C133.608 164.218 133.803 163.757 134.004 163.279C134.404 162.305 134.8 161.242 135.292 160.134C135.529 159.58 135.78 159.001 136.026 158.405C136.282 157.82 136.56 157.215 136.836 156.589C137.385 155.332 138.042 154.06 138.698 152.705C140.106 150.045 141.661 147.136 143.746 144.322C145.811 141.498 148.269 138.66 151.268 136.154C154.246 133.669 157.723 131.351 161.812 130.249C165.634 129.146 169.785 129.982 173.348 131.621C175.139 132.426 176.772 133.368 178.276 134.347C179.784 135.322 181.16 136.339 182.402 137.365C183.638 138.405 184.672 139.527 185.48 140.669C186.275 141.803 186.844 142.937 187.191 144.027C187.55 145.124 187.706 146.2 187.715 147.301C187.689 147.573 187.722 147.848 187.681 148.134C187.642 148.419 187.606 148.691 187.584 148.971C187.527 149.274 187.466 149.55 187.409 149.843C187.372 150.128 187.271 150.423 187.174 150.715C187.079 151.005 187.015 151.295 186.91 151.595C186.779 151.89 186.658 152.185 186.545 152.472C186.44 152.772 186.295 153.05 186.155 153.335C186.008 153.625 185.873 153.904 185.749 154.192C185.174 155.177 184.612 156.149 184.038 156.785L183.83 157.054C183.759 157.136 183.691 157.192 183.622 157.272C183.485 157.398 183.348 157.557 183.217 157.688C183.088 157.796 182.959 157.907 182.833 158.033C182.692 158.173 182.567 158.204 182.444 158.318L182.234 158.467C182.17 158.51 182.101 158.538 182.034 158.575C181.891 158.627 181.755 158.741 181.611 158.792C181.314 158.885 180.997 159.037 180.646 159.059C179.269 159.339 177.553 159.003 176.121 158.495C174.682 158.015 173.438 157.494 172.483 157.197C171.522 156.887 170.796 156.852 170.381 157.185C169.946 157.526 169.837 158.223 170.062 159.319C170.306 160.401 170.937 161.852 172.22 163.535C172.561 163.943 172.918 164.377 173.346 164.831C173.787 165.231 174.27 165.671 174.806 166.1C175.955 166.921 177.308 167.786 179.078 168.304C179.939 168.601 180.91 168.74 181.938 168.86C182.453 168.909 182.975 168.892 183.516 168.883C183.786 168.871 184.06 168.873 184.33 168.85C184.602 168.803 184.873 168.757 185.139 168.719C185.669 168.62 186.259 168.553 186.78 168.381C187.319 168.212 187.852 168.027 188.398 167.83C188.932 167.624 189.412 167.36 189.93 167.108C190.189 166.973 190.456 166.849 190.697 166.712C190.923 166.557 191.157 166.396 191.397 166.248C193.332 165.031 194.894 163.479 196.382 161.765C196.712 161.332 197.041 160.9 197.377 160.461C197.718 160.017 198.049 159.563 198.337 159.071C198.636 158.586 198.944 158.093 199.238 157.596C199.535 157.083 199.781 156.529 200.058 155.974C200.612 154.897 201.005 153.653 201.422 152.414C201.582 151.773 201.739 151.114 201.897 150.462C202.049 149.798 202.094 149.095 202.19 148.404C202.487 145.623 202.256 142.632 201.438 139.776C200.619 136.921 199.252 134.235 197.511 131.884C195.758 129.538 193.654 127.507 191.335 125.814Z" fill="#2E3133"/>
<path d="M0.857314 160.372C0.857314 160.372 2.24253 160.607 4.52083 160.997C5.66988 161.08 6.9837 161.203 8.41489 161.239C9.87718 161.202 11.3953 161.224 13.0273 161.029C16.2701 160.72 19.7236 160.049 23.3398 159.5C26.9729 158.945 30.8464 158.571 34.4322 158.997C36.2077 159.172 37.9316 159.613 39.4604 160.126C40.2198 160.372 40.9998 160.742 41.6821 161.065C42.3956 161.42 43.0419 161.758 43.6521 162.153C44.8775 162.989 45.9198 163.856 46.7867 164.723C47.648 165.668 48.331 166.596 48.8593 167.453C49.4087 168.3 49.7728 169.208 50.0444 169.982C50.306 170.767 50.47 171.444 50.5733 172.018C50.784 173.153 50.7529 173.83 50.7529 173.83C50.7529 173.83 50.1526 174.204 49.1371 174.727C48.6139 174.985 48.0128 175.266 47.3312 175.569C46.6792 175.84 45.9255 176.153 45.0586 176.508C44.2433 176.851 43.3707 177.169 42.4628 177.431C41.5287 177.759 40.555 178.036 39.5438 178.216C39.0305 178.319 38.4719 178.426 37.9175 178.488C37.3532 178.57 36.8243 178.586 36.1992 178.637C34.9674 178.719 33.6953 178.657 32.2026 178.508C29.2575 178.16 25.6103 177.303 21.654 175.984C17.6985 174.666 13.5414 172.726 10.2024 170.422C8.52447 169.33 7.07702 168.027 5.85655 166.908C4.65588 165.708 3.70272 164.548 2.94258 163.625C1.54534 161.572 0.857314 160.372 0.857314 160.372Z" fill="#2E3133"/>
<path d="M125.137 237.234C125.5 237.67 125.778 238.151 126.009 238.639C126.101 236.506 125.876 234.073 125.183 231.534C124.127 227.245 122.053 222.688 120.124 217.948C119.652 216.757 119.2 215.567 118.774 214.351C118.359 213.145 117.887 211.956 117.558 210.745C117.224 209.528 116.912 208.333 116.604 207.164C116.327 205.984 116.178 204.819 115.978 203.705C115.885 203.142 115.803 202.587 115.706 202.049C115.665 201.505 115.628 200.977 115.583 200.448C115.521 199.402 115.464 198.391 115.403 197.425C115.418 196.456 115.444 195.537 115.485 194.655C115.542 193.767 115.516 192.921 115.649 192.131C115.875 190.53 116.075 189.099 116.347 187.842C116.67 186.574 116.973 185.473 117.27 184.517C117.527 183.563 117.897 182.762 118.178 182.09C118.471 181.429 118.727 180.886 118.942 180.454C119.359 179.618 119.599 179.233 119.599 179.233C119.599 179.233 119.651 179.695 119.681 180.629C119.701 181.1 119.711 181.686 119.707 182.399C119.701 183.112 119.634 183.938 119.687 184.913C119.706 185.877 119.707 186.975 119.676 188.196C119.712 189.422 119.783 190.787 119.794 192.275C119.768 193.019 119.902 193.809 119.932 194.62C119.989 195.446 120.03 196.309 120.092 197.191C120.204 198.084 120.307 198.997 120.42 199.962C120.471 200.445 120.513 200.937 120.568 201.434C120.651 201.937 120.738 202.445 120.83 202.959C121.01 203.99 121.139 205.072 121.355 206.17C121.6 207.258 121.842 208.381 122.084 209.525C122.35 210.675 122.709 211.814 123.011 212.999C123.325 214.174 123.678 215.38 124.033 216.575C125.479 221.357 127.095 226.389 127.608 231.1C128.143 235.204 128.234 240.447 126.028 244.121C123.652 248.056 118.337 249.554 115.032 245.512C112.739 242.725 113.155 238.605 115.946 236.318C118.733 234.032 122.854 234.447 125.137 237.234Z" fill="#2E3133"/>
<path d="M19.5794 192.237C20.1691 192.715 20.9688 193.474 22.1193 194.336C24.3417 196.096 27.6609 198.523 32.0577 200.774C34.2278 201.929 36.7013 202.966 39.3939 203.895C42.0774 204.813 45.0027 205.562 48.1161 206.018C54.3294 206.966 61.2655 206.762 68.3316 205.166C75.3963 203.591 81.8196 200.677 87.258 197.353C89.9768 195.68 92.4969 193.961 94.7286 192.16C95.3134 191.74 95.8472 191.278 96.3903 190.827C96.9185 190.381 97.458 189.985 97.9607 189.502C98.9818 188.585 99.9612 187.717 100.896 186.875C102.779 185.197 104.539 183.746 106.057 182.411C107.575 181.057 108.905 179.922 110.044 179.03C112.306 177.25 113.759 176.424 114.154 176.798C114.558 177.163 113.886 178.667 112.306 181.098C111.526 182.32 110.51 183.766 109.289 185.418C108.067 187.05 106.528 188.835 104.856 190.815C101.613 194.777 97.0564 199.415 91.2291 203.437C85.4004 207.479 78.207 211.041 70.0647 212.862C61.9224 214.704 53.698 214.39 46.7351 212.529C43.2462 211.615 40.0551 210.322 37.2436 208.845C34.4421 207.357 31.9743 205.762 29.9017 204.079C25.7305 200.78 22.9756 197.522 21.246 195.187C20.3424 194.058 19.7526 193.088 19.3326 192.463C18.9168 191.832 18.6863 191.489 18.6863 191.489C18.6863 191.489 18.9946 191.756 19.5794 192.237Z" fill="#2E3133"/>
<path d="M100.033 229.03C101.884 225.936 102.901 221.841 103.583 217.742C104.27 213.627 104.675 209.446 105.153 205.767C105.636 202.104 106.168 198.964 106.836 196.347C107.483 193.729 108.263 191.637 109.042 190.067C109.417 189.282 109.847 188.645 110.187 188.102C110.572 187.584 110.899 187.175 111.182 186.871C111.788 186.286 112.09 186.066 112.09 186.066C112.09 186.066 112.034 186.472 111.864 187.235C111.797 187.62 111.72 188.097 111.628 188.681C111.577 189.287 111.454 189.944 111.392 190.765C111.254 192.37 111.1 194.423 110.925 197.009C110.735 199.589 110.504 202.703 110.017 206.402C109.54 210.091 108.822 214.381 107.616 218.654C107.036 220.784 106.293 222.924 105.379 224.945C104.466 226.955 103.378 228.885 102.014 230.475C98.4168 234.718 89.8792 237.848 85.662 232.686C83.3781 229.89 83.7896 225.775 86.5855 223.482C89.3715 221.198 93.4862 221.621 95.7751 224.4C98.0527 227.191 97.6475 231.321 94.8516 233.594C94.8 233.646 94.7434 233.681 94.6826 233.723C95.3501 233.476 96.0318 233.153 96.6781 232.671C97.9396 231.801 99.0886 230.569 100.033 229.03Z" fill="#2E3133"/>
<path d="M81.2292 176.948C82.5784 177.343 83.8094 177.898 85.0101 178.339C86.2256 178.807 87.4517 179.314 88.8264 179.592C92.9721 180.555 98.431 179.899 103.264 177.713C103.741 177.503 104.178 177.395 104.537 177.303C106.985 175.595 108.631 176.78 106.148 178.853C103.5 180.947 100.684 182.747 97.8151 184.271C94.9626 185.872 92.0797 187.175 89.2315 188.546C84.2704 190.818 79.9451 192.947 74.8964 194.589C73.3266 195.144 71.1565 195.58 68.7198 195.943C67.4986 196.077 66.2102 196.175 64.8971 196.236C63.584 196.267 62.2504 196.216 60.9416 196.129C59.6327 196.02 58.3557 195.79 57.16 195.539C55.9699 195.292 54.8407 194.862 53.8712 194.446C52.9117 194.02 52.0603 193.456 51.424 192.86C50.7876 192.265 50.3569 191.629 50.1723 190.931C49.8846 189.843 50.4396 189.043 51.4657 188.447C51.9889 188.15 52.6458 187.904 53.3642 187.699C53.7383 187.602 54.118 187.519 54.5239 187.443C54.9248 187.35 55.3505 187.252 55.791 187.171C59.2905 186.617 63.7184 186.19 67.4738 186.027C68.1152 186.012 68.7608 185.992 69.3979 185.981C70.0491 185.955 70.6855 185.935 71.3325 185.903L73.2566 185.857L75.1905 185.76C75.8481 185.698 76.5248 185.627 77.1973 185.56C75.8884 185.432 74.5654 185.267 73.2933 185.072C72.005 184.811 70.7683 184.519 69.6814 184.17C67.4859 183.369 65.8228 182.404 65.3002 181.081C65.1305 180.635 65.0951 180.219 65.192 179.845C64.7918 178.49 65.5413 177.248 67.476 176.463C68.4503 176.043 69.5478 175.848 70.7131 175.729C71.3028 175.673 71.9081 175.653 72.5141 175.652C73.13 175.673 73.7508 175.71 74.3667 175.719C75.5971 175.791 76.855 176.011 78.009 176.192C79.1871 176.384 80.2902 176.697 81.2292 176.948Z" fill="#2E3133"/>
<path d="M210.967 347.168C208.34 347.845 205.703 348.174 203.127 348.235C200.563 348.277 198.079 348.03 195.703 347.605C194.534 347.338 193.349 347.127 192.245 346.774C191.691 346.609 191.137 346.445 190.583 346.282C190.04 346.087 189.49 345.886 188.947 345.691C186.792 344.912 184.888 343.953 183.016 342.963C179.27 340.899 175.807 338.36 172.99 335.195C171.585 333.604 170.353 331.86 169.352 330.028C168.393 328.155 167.66 326.211 167.218 324.231C166.361 320.275 166.7 316.405 167.71 313.23C168.696 310.018 170.23 307.417 171.841 305.313C175.658 300.346 181.809 295.437 188.285 294.984C194.272 294.559 199.404 298.848 201.004 304.409C201.779 307.113 201.681 309.949 200.973 312.67C200.162 315.758 196.898 321.791 193.359 322.213C188.562 322.771 187.782 316.748 189.182 313.46C190.121 311.239 191.394 310.244 193.707 309.797C194.626 309.626 195.452 309.53 196.089 309.324C196.858 309.047 194.637 305.502 194.272 305.21C190.024 301.68 184.294 305.225 181.281 308.556C177.423 312.824 176.192 319.433 179.445 324.471C184.098 331.659 193.816 335.292 202.091 333.921C206.021 333.276 212.194 331.279 215.092 328.411C217.391 326.134 219.254 323.182 220.428 319.792C221.598 316.386 222.091 312.588 221.854 308.617L221.721 307.068L221.521 305.483L221.341 303.898C221.263 303.369 221.141 302.866 221.033 302.337L220.767 300.778C220.659 300.261 220.5 299.752 220.377 299.218L219.966 297.639C219.838 297.121 219.627 296.602 219.469 296.063C218.15 291.861 216.282 287.582 213.958 283.339C209.325 274.806 203.133 266.899 196.365 260.061C195.525 259.22 194.677 258.343 193.815 257.552C192.953 256.762 192.096 255.956 191.219 255.192C190.327 254.453 189.438 253.698 188.536 252.991C187.613 252.294 186.699 251.586 185.766 250.918C182.04 248.26 178.183 245.9 174.334 243.715C171.82 242.289 169.306 240.923 166.823 239.609C167.131 239.824 167.449 240.051 167.742 240.282C170.81 242.53 173.411 244.761 175.781 247.275C176.967 248.552 178.084 249.896 179.101 251.447C180.111 252.981 181.056 254.705 181.655 256.793C182.282 258.865 182.477 261.421 181.737 264.058C181.655 264.396 181.517 264.71 181.404 265.027C181.26 265.356 181.167 265.694 180.993 265.992C180.665 266.609 180.378 267.244 179.9 267.844C179.685 268.152 179.459 268.471 179.233 268.768C178.976 269.055 178.695 269.337 178.412 269.62C177.873 270.221 177.176 270.672 176.508 271.154C174.661 272.344 172.557 272.991 170.506 273.176C168.437 273.366 166.4 273.135 164.518 272.534C162.629 271.939 160.875 271.046 159.336 269.855C157.817 268.655 156.534 267.177 155.581 265.545C155.638 265.632 155.689 265.704 155.735 265.791C154.703 264.227 154.005 262.543 153.672 260.845C153.493 259.998 153.4 259.146 153.395 258.311C153.396 257.449 153.467 256.669 153.668 255.761C153.74 255.351 153.899 254.792 154.078 254.324C154.273 253.862 154.453 253.395 154.71 252.984C155.192 252.153 155.808 251.476 156.49 250.968C157.854 249.932 159.497 249.665 160.84 249.983C162.196 250.25 163.263 251.01 163.996 251.661C164.165 251.83 164.33 251.995 164.473 252.159C164.626 252.334 164.698 252.467 164.816 252.614C165.016 252.887 165.17 253.165 165.288 253.425C165.765 254.436 165.75 255.149 165.416 255.463C165.057 255.781 164.379 255.678 163.466 255.422C163.239 255.34 162.995 255.277 162.753 255.201C162.62 255.17 162.47 255.103 162.358 255.094C162.266 255.084 162.153 255.062 162.03 255.053C161.619 255.012 161.271 255.053 160.942 255.175C160.624 255.308 160.372 255.601 160.287 255.914C160.245 256.079 160.235 256.233 160.245 256.366C160.255 256.438 160.265 256.509 160.275 256.56C160.296 256.632 160.322 256.648 160.342 256.801C160.358 257.053 160.388 257.474 160.47 257.843C160.547 258.218 160.671 258.608 160.808 258.993C161.107 259.793 161.543 260.557 162.087 261.265L162.256 261.496C162.784 262.22 163.426 262.892 164.211 263.502C165.016 264.092 165.955 264.579 166.956 264.944C168.983 265.678 171.225 265.703 172.995 265.001C173.304 264.816 173.667 264.718 173.934 264.472C174.089 264.38 174.231 264.277 174.38 264.179C174.513 264.046 174.636 263.923 174.76 263.799C175.057 263.574 175.273 263.235 175.519 262.948C175.647 262.799 175.708 262.635 175.812 262.491C175.904 262.337 176.027 262.184 176.077 262.02C176.713 260.747 176.95 259.3 176.79 257.798C176.652 256.294 176.196 254.78 175.596 253.349C174.985 251.897 174.231 250.517 173.348 249.173C171.614 246.495 169.504 243.945 166.832 241.364C165.494 240.066 164.031 238.769 162.337 237.464C162.05 237.239 161.737 237.008 161.424 236.777C158.181 235.094 155 233.452 151.937 231.775C148.392 229.841 145.118 227.984 141.815 225.93C138.624 223.786 135.643 221.461 133.298 218.727C132.99 218.41 132.683 218.091 132.395 217.742C132.129 217.393 131.862 217.045 131.589 216.7C131.081 215.997 130.507 215.341 130.06 214.607C129.624 213.884 129.183 213.156 128.741 212.447L128.424 211.923L128.151 211.363C127.977 210.993 127.803 210.634 127.623 210.281C126.879 208.849 126.381 207.356 125.858 205.95C125.591 205.252 125.431 204.529 125.232 203.826C125.053 203.134 124.816 202.456 124.699 201.774C123.518 196.305 123.405 191.553 123.468 187.736C123.569 183.898 123.857 180.964 124.088 178.968C124.339 176.972 124.478 175.929 124.478 175.929C124.478 175.929 124.57 176.976 124.734 178.977C124.893 180.973 125.135 183.913 125.509 187.643C125.97 191.368 126.57 195.909 128.023 200.901C128.182 201.532 128.443 202.132 128.648 202.768C128.884 203.394 129.054 204.056 129.341 204.682C129.901 205.928 130.394 207.243 131.132 208.495C131.311 208.808 131.48 209.12 131.655 209.449L131.917 209.926L132.214 210.387C132.625 211.004 133.046 211.629 133.461 212.259C133.881 212.886 134.405 213.451 134.877 214.065C135.119 214.368 135.37 214.66 135.626 214.979C135.873 215.265 136.171 215.543 136.448 215.83C138.583 218.201 141.292 220.211 144.247 222.161C147.233 223.977 150.66 225.907 154.109 227.753C161.076 231.499 168.725 235.218 176.647 239.61C180.603 241.811 184.615 244.201 188.565 246.901C189.556 247.583 190.54 248.271 191.531 248.964C192.512 249.686 193.491 250.411 194.477 251.128C195.462 251.867 196.426 252.658 197.416 253.411C198.37 254.191 199.325 254.961 200.295 255.736C204.122 258.844 208.032 262.056 211.911 265.525C215.799 269.003 219.637 272.739 223.163 277.012C226.697 281.276 229.806 285.986 232.136 291.147C232.413 291.794 232.726 292.435 232.984 293.091C233.229 293.758 233.465 294.426 233.707 295.097C233.943 295.765 234.21 296.421 234.405 297.119C234.59 297.806 234.78 298.488 234.965 299.177C235.134 299.869 235.328 300.546 235.472 301.245C235.596 301.932 235.708 302.62 235.842 303.308C235.939 303.989 236.047 304.682 236.17 305.379C236.252 306.057 236.335 306.754 236.401 307.448C236.622 309.771 236.646 312.137 236.488 314.481C236.631 314.912 236.765 315.333 236.914 315.748C237.073 316.257 237.247 316.759 237.416 317.257C237.596 317.755 237.781 318.247 237.955 318.74C238.33 319.72 238.674 320.69 239.089 321.618C239.49 322.552 239.885 323.46 240.311 324.327C240.74 325.2 241.136 326.046 241.588 326.847C242.04 327.636 242.46 328.396 242.912 329.125C243.814 330.55 244.697 331.824 245.544 332.875C245.97 333.404 246.386 333.881 246.775 334.321C247.144 334.753 247.514 335.152 247.874 335.471C248.55 336.138 249.12 336.615 249.521 336.933C249.91 337.24 250.116 337.405 250.116 337.405C250.116 337.405 249.977 337.174 249.715 336.717C249.438 336.276 249.084 335.604 248.642 334.762C248.412 334.367 248.186 333.895 247.934 333.377C247.678 332.875 247.411 332.31 247.15 331.711C246.873 331.126 246.611 330.485 246.329 329.801C246.062 329.124 245.769 328.421 245.497 327.677C244.959 326.184 244.388 324.578 243.856 322.855C243.589 321.992 243.322 321.11 243.065 320.198C242.933 319.756 242.805 319.3 242.666 318.832C242.537 318.365 242.42 317.899 242.301 317.432C242.157 316.96 242.039 316.482 241.917 316.012C241.788 315.524 241.66 315.036 241.542 314.559C241.286 313.584 241.039 312.589 240.788 311.598C240.516 310.608 240.306 309.597 240.034 308.586L239.244 305.549C238.659 303.508 238.09 301.45 237.32 299.408C237.073 298.649 236.745 297.89 236.428 297.141C238.543 297.818 241.235 299.322 243.703 301.871C246.187 304.395 248.459 307.9 249.977 312.311C251.204 315.877 251.963 319.982 252.611 324.055C253.277 328.087 253.841 332.12 254.77 335.511C255.658 338.923 257.054 341.735 258.659 343.547C258.854 343.763 259.039 343.999 259.239 344.188C259.434 344.382 259.624 344.551 259.798 344.717C259.983 344.892 260.162 345.051 260.316 345.184C260.475 345.322 260.65 345.434 260.783 345.537C261.372 345.974 261.691 346.199 261.691 346.199C261.691 346.199 261.311 346.261 260.562 346.353C260.378 346.374 260.163 346.404 259.932 346.421L259.183 346.42C258.901 346.415 258.603 346.404 258.285 346.404C257.967 346.385 257.639 346.332 257.285 346.286C255.843 346.127 254.15 345.604 252.308 344.767C250.451 343.936 248.609 342.689 246.788 341.217C243.13 338.237 239.892 334.28 237.26 330.294C236.162 328.6 235.161 326.902 234.28 325.23C232.411 330.453 229.41 335.27 225.439 339.057C221.321 343.012 216.222 345.865 210.967 347.168Z" fill="#2E3133"/>
<path d="M191.343 222.128C186.735 225.556 180.998 227.372 175.197 227.337C169.404 227.311 163.94 225.561 159.517 223.067C155.346 220.702 151.472 218.244 148.215 215.367C144.941 212.514 142.238 209.39 140.027 206.275C139.492 205.484 138.974 204.699 138.456 203.935C137.989 203.15 137.542 202.365 137.091 201.595C136.629 200.846 136.275 200.072 135.891 199.318C135.515 198.553 135.126 197.814 134.829 197.065C134.198 195.593 133.602 194.176 133.171 192.801C132.945 192.114 132.715 191.441 132.525 190.8C132.349 190.132 132.191 189.502 132.027 188.886C131.693 187.66 131.488 186.501 131.308 185.418C131.113 184.362 131 183.366 130.918 182.483C130.722 180.707 130.739 179.327 130.769 178.384C130.78 177.44 130.816 176.941 130.816 176.941C130.816 176.941 131.036 177.398 131.396 178.26C131.76 179.117 132.262 180.379 132.925 181.996C133.084 182.411 133.248 182.832 133.428 183.278C133.612 183.72 133.797 184.192 134.003 184.675C134.404 185.639 134.793 186.696 135.29 187.8C135.536 188.364 135.767 188.944 136.014 189.538C136.285 190.129 136.557 190.739 136.845 191.344C137.369 192.606 138.03 193.884 138.697 195.248C140.097 197.89 141.663 200.8 143.752 203.626C145.803 206.458 148.271 209.275 151.257 211.789C154.254 214.272 157.727 216.596 161.805 217.7C165.632 218.796 169.783 217.951 173.339 216.325C175.124 215.513 176.772 214.565 178.269 213.6C179.788 212.614 181.163 211.609 182.409 210.578C183.635 209.526 184.672 208.398 185.472 207.279C186.283 206.14 186.831 205.006 187.202 203.919C187.55 202.811 187.705 201.753 187.702 200.648C187.679 200.363 187.73 200.097 187.674 199.814C187.641 199.54 187.607 199.246 187.584 198.961C187.517 198.678 187.459 198.389 187.402 198.106C187.362 197.808 187.267 197.534 187.171 197.239C187.072 196.95 187.011 196.641 186.902 196.358C186.779 196.061 186.658 195.771 186.535 195.474C186.438 195.182 186.299 194.888 186.15 194.606C186.01 194.326 185.875 194.039 185.737 193.757C185.181 192.764 184.61 191.804 184.033 191.161L183.826 190.885C183.758 190.801 183.688 190.748 183.621 190.68C183.492 190.552 183.354 190.383 183.213 190.257C183.087 190.147 182.956 190.041 182.823 189.908C182.695 189.769 182.57 189.741 182.431 189.623L182.236 189.469C182.173 189.43 182.102 189.417 182.031 189.376C181.895 189.318 181.761 189.204 181.605 189.145C181.313 189.068 180.994 188.905 180.646 188.884C179.263 188.615 177.552 188.95 176.131 189.438C174.673 189.931 173.432 190.454 172.483 190.757C171.528 191.055 170.795 191.091 170.364 190.752C169.939 190.419 169.83 189.725 170.062 188.623C170.313 187.54 170.938 186.093 172.221 184.4C172.554 183.995 172.921 183.556 173.334 183.123C173.796 182.712 174.272 182.269 174.812 181.83C175.941 181.019 177.302 180.16 179.081 179.654C179.948 179.341 180.917 179.203 181.936 179.076C182.439 179.024 182.977 179.06 183.516 179.066C183.786 179.073 184.055 179.071 184.33 179.105C184.595 179.145 184.86 179.179 185.14 179.228C185.674 179.319 186.264 179.386 186.785 179.563C187.31 179.735 187.849 179.915 188.4 180.101C188.922 180.32 189.403 180.577 189.934 180.836C190.183 180.966 190.45 181.089 190.696 181.233C190.927 181.392 191.16 181.539 191.389 181.69C193.331 182.908 194.896 184.463 196.377 186.184C196.705 186.615 197.038 187.042 197.371 187.487C197.712 187.917 198.045 188.375 198.33 188.867C198.631 189.357 198.931 189.848 199.236 190.353C199.531 190.868 199.78 191.42 200.049 191.962C200.613 193.049 201.008 194.296 201.421 195.525C201.582 196.163 201.743 196.825 201.882 197.485C202.042 198.147 202.095 198.842 202.19 199.537C202.488 202.318 202.249 205.306 201.427 208.162C200.615 211.015 199.243 213.712 197.495 216.056C195.754 218.414 193.657 220.43 191.343 222.128Z" fill="#2E3133"/>
<path d="M0.898332 187.748C0.898332 187.748 2.28849 187.508 4.56679 187.096C5.70594 187.003 7.01339 186.866 8.44528 186.82C9.91748 186.835 11.4257 186.815 13.0683 187.009C16.3161 187.281 19.7639 187.928 23.3914 188.466C27.0181 188.995 30.903 189.338 34.4944 188.896C36.2593 188.713 37.9832 188.25 39.512 187.717C40.2764 187.486 41.0415 187.111 41.7288 186.773C42.4267 186.424 43.0624 186.076 43.6677 185.675C44.9044 184.829 45.9354 183.962 46.8079 183.09C47.665 182.141 48.3367 181.212 48.86 180.339C49.4037 179.487 49.753 178.585 50.0196 177.805C50.2862 177.025 50.4403 176.337 50.5478 175.777C50.7423 174.628 50.7069 173.957 50.7069 173.957C50.7069 173.957 50.1066 173.571 49.0862 173.074C48.563 172.818 47.9577 172.52 47.2654 172.238C46.6191 171.972 45.8647 171.658 45.002 171.299C44.1711 170.97 43.2936 170.657 42.3963 170.406C41.4629 170.088 40.4673 169.811 39.4717 169.637C38.9534 169.55 38.3891 169.437 37.8503 169.37C37.2811 169.293 36.7571 169.283 36.1264 169.247C34.8946 169.165 33.6225 169.247 32.1199 169.396C29.1798 169.771 25.5375 170.642 21.5819 171.992C17.6469 173.341 13.4912 175.301 10.1812 177.625C8.50397 178.728 7.06641 180.041 5.85655 181.171C4.66084 182.386 3.71757 183.546 2.96309 184.474C1.57575 186.537 0.898332 187.748 0.898332 187.748Z" fill="#2E3133"/>
</svg>
