<svg width="262" height="349" viewBox="0 0 262 349" fill="none" xmlns="http://www.w3.org/2000/svg">
<path d="M137.41 237.225C137.056 237.671 136.774 238.138 136.54 238.638C136.463 236.499 136.684 234.072 137.361 231.516C138.431 227.225 140.494 222.679 142.434 217.938C142.9 216.743 143.362 215.563 143.78 214.344C144.196 213.128 144.657 211.949 145.007 210.737C145.324 209.516 145.642 208.315 145.94 207.157C146.227 205.987 146.381 204.806 146.576 203.688C146.663 203.139 146.755 202.585 146.843 202.046C146.884 201.513 146.925 200.959 146.966 200.445C147.039 199.388 147.1 198.383 147.161 197.418C147.14 196.453 147.11 195.52 147.083 194.643C147.028 193.755 147.037 192.924 146.899 192.119C146.668 190.523 146.478 189.102 146.207 187.825C145.899 186.573 145.587 185.47 145.294 184.511C145.026 183.546 144.657 182.756 144.38 182.078C144.082 181.411 143.826 180.868 143.61 180.447C143.194 179.6 142.958 179.232 142.958 179.232C142.958 179.232 142.902 179.678 142.861 180.622C142.855 181.099 142.845 181.684 142.839 182.387C142.844 183.111 142.911 183.937 142.854 184.907C142.839 185.876 142.839 186.964 142.871 188.186C142.849 189.417 142.762 190.777 142.762 192.275C142.777 193.019 142.654 193.799 142.613 194.62C142.562 195.431 142.521 196.293 142.46 197.175C142.347 198.068 142.234 198.992 142.137 199.962C142.091 200.439 142.034 200.926 141.978 201.434C141.896 201.926 141.819 202.434 141.727 202.948C141.538 203.979 141.424 205.066 141.189 206.164C140.957 207.258 140.712 208.376 140.46 209.52C140.208 210.664 139.839 211.823 139.529 212.997C139.223 214.163 138.877 215.372 138.521 216.57C137.072 221.343 135.466 226.386 134.945 231.084C134.414 235.207 134.305 240.444 136.516 244.113C138.887 248.053 144.223 249.552 147.532 245.503C149.813 242.709 149.397 238.59 146.609 236.309C143.81 234.025 139.701 234.43 137.41 237.225Z" fill="#2E3133"/>
<path d="M242.971 192.237C242.396 192.709 241.576 193.468 240.436 194.32C238.215 196.09 234.891 198.522 230.498 200.769C228.338 201.924 225.845 202.961 223.167 203.893C220.483 204.812 217.554 205.556 214.445 206.007C208.226 206.951 201.285 206.751 194.22 205.155C187.17 203.586 180.747 200.671 175.308 197.347C172.584 195.669 170.059 193.946 167.817 192.155C167.247 191.73 166.704 191.267 166.176 190.821C165.641 190.37 165.103 189.975 164.589 189.503C163.569 188.584 162.594 187.713 161.649 186.871C159.782 185.188 158.012 183.746 156.488 182.407C154.979 181.062 153.646 179.913 152.511 179.026C150.248 177.255 148.802 176.424 148.392 176.794C147.991 177.153 148.668 178.671 150.244 181.099C151.029 182.315 152.055 183.761 153.267 185.403C154.493 187.05 156.032 188.825 157.704 190.806C160.931 194.773 165.482 199.416 171.337 203.433C177.155 207.486 184.338 211.036 192.496 212.853C200.633 214.711 208.848 214.397 215.82 212.514C219.309 211.612 222.5 210.309 225.301 208.841C228.113 207.363 230.586 205.752 232.648 204.08C236.834 200.776 239.579 197.507 241.309 195.194C242.222 194.055 242.807 193.079 243.233 192.459C243.649 191.829 243.869 191.495 243.869 191.495C243.869 191.495 243.561 191.738 242.971 192.237Z" fill="#2E3133"/>
<path d="M162.532 229.022C160.67 225.918 159.659 221.839 158.972 217.725C158.285 213.61 157.88 209.438 157.392 205.76C156.926 202.091 156.381 198.951 155.729 196.341C155.062 193.724 154.293 191.631 153.503 190.071C153.143 189.28 152.697 188.629 152.374 188.101C151.974 187.577 151.666 187.157 151.373 186.864C150.768 186.269 150.461 186.053 150.461 186.053C150.461 186.053 150.522 186.464 150.692 187.218C150.759 187.613 150.836 188.1 150.939 188.675C150.98 189.29 151.103 189.948 151.159 190.762C151.318 192.359 151.446 194.415 151.631 196.991C151.826 199.576 152.052 202.695 152.539 206.385C153.022 210.089 153.735 214.363 154.925 218.642C155.51 220.777 156.265 222.916 157.173 224.932C158.102 226.949 159.184 228.872 160.549 230.463C164.146 234.716 172.668 237.84 176.901 232.674C179.184 229.877 178.779 225.768 175.983 223.484C173.191 221.197 169.072 221.602 166.784 224.403C164.5 227.189 164.905 231.309 167.702 233.592C167.769 233.638 167.82 233.669 167.866 233.715C167.204 233.464 166.527 233.136 165.89 232.663C164.626 231.794 163.456 230.562 162.532 229.022Z" fill="#2E3133"/>
<path d="M181.336 176.941C179.976 177.346 178.745 177.9 177.545 178.342C176.334 178.794 175.093 179.306 173.727 179.573C169.577 180.553 164.123 179.881 159.29 177.705C158.807 177.5 158.365 177.387 158.022 177.3C155.569 175.586 153.913 176.771 156.41 178.839C159.043 180.937 161.865 182.744 164.738 184.252C167.591 185.852 170.479 187.161 173.316 188.541C178.277 190.814 182.613 192.932 187.652 194.585C189.226 195.124 191.391 195.566 193.844 195.924C195.066 196.057 196.353 196.166 197.667 196.227C198.975 196.264 200.304 196.196 201.601 196.119C202.914 196.017 204.203 195.786 205.388 195.535C206.579 195.277 207.707 194.847 208.682 194.426C209.646 194.016 210.488 193.451 211.129 192.861C211.765 192.246 212.197 191.609 212.381 190.911C212.663 189.829 212.114 189.023 211.089 188.428C210.56 188.135 209.919 187.895 209.191 187.7C208.822 187.598 208.436 187.5 208.031 187.423C207.625 187.335 207.205 187.243 206.769 187.166C203.255 186.607 198.847 186.181 195.081 186.027C194.435 185.996 193.788 185.986 193.147 185.971C192.516 185.945 191.875 185.919 191.228 185.889L189.294 185.843L187.36 185.746C186.698 185.69 186.032 185.618 185.364 185.546C186.662 185.428 187.986 185.253 189.273 185.064C190.55 184.802 191.776 184.509 192.874 184.151C195.06 183.361 196.732 182.386 197.246 181.073C197.425 180.627 197.452 180.211 197.369 179.841C197.764 178.482 197.009 177.245 195.091 176.455C194.105 176.024 193.008 175.85 191.833 175.731C191.253 175.675 190.658 175.634 190.032 175.644C189.436 175.666 188.811 175.695 188.185 175.726C186.954 175.788 185.707 176.008 184.537 176.183C183.373 176.372 182.264 176.68 181.336 176.941Z" fill="#2E3133"/>
<path d="M51.5844 347.153C54.2057 347.826 56.8531 348.164 59.4185 348.236C61.9966 348.275 64.4693 348.017 66.8558 347.592C68.0148 347.326 69.2055 347.121 70.3079 346.766C70.8722 346.602 71.4266 346.438 71.9703 346.264C72.524 346.079 73.0706 345.882 73.6144 345.686C75.7618 344.893 77.6632 343.936 79.5399 342.941C83.2805 340.883 86.7411 338.336 89.5731 335.186C90.9689 333.585 92.19 331.851 93.1927 330.016C94.1516 328.144 94.8912 326.194 95.3346 324.231C96.1866 320.26 95.8522 316.397 94.8445 313.218C93.8567 310.009 92.323 307.397 90.7221 305.304C86.8945 300.327 80.7434 295.437 74.2755 294.978C68.2856 294.555 63.1598 298.839 61.5511 304.388C60.7712 307.107 60.861 309.942 61.5794 312.661C62.3848 315.745 65.6502 321.796 69.1985 322.209C73.9962 322.768 74.7726 316.737 73.3754 313.456C72.4363 311.234 71.1593 310.224 68.8506 309.792C67.9264 309.608 67.1061 309.526 66.4669 309.302C65.6919 309.051 67.9115 305.497 68.2729 305.198C72.5261 301.663 78.2593 305.216 81.266 308.541C85.1268 312.807 86.3692 319.425 83.1002 324.458C78.4545 331.638 68.7374 335.271 60.4706 333.911C56.5285 333.257 50.3633 331.274 47.4592 328.391C45.1583 326.115 43.2858 323.175 42.1205 319.774C40.9481 316.37 40.4631 312.576 40.6922 308.602L40.8329 307.044L41.0309 305.471L41.2098 303.875C41.2819 303.352 41.412 302.851 41.5025 302.331L41.7924 300.768C41.9027 300.248 42.0548 299.727 42.1877 299.203L42.5773 297.633C42.7216 297.1 42.9082 296.584 43.0829 296.071C44.3988 291.84 46.2797 287.579 48.5877 283.321C53.2306 274.799 59.4058 266.89 66.1756 260.048C67.0383 259.207 67.8769 258.327 68.736 257.529C69.598 256.739 70.4472 255.941 71.3297 255.181C72.2199 254.435 73.1081 253.691 74.0181 252.975C74.9359 252.272 75.8552 251.579 76.7829 250.907C80.5079 248.239 84.3659 245.89 88.209 243.698C90.7306 242.264 93.2451 240.91 95.7383 239.596C95.4201 239.822 95.1076 240.043 94.8049 240.263C91.7361 242.51 89.1509 244.748 86.7651 247.266C85.5878 248.526 84.4691 249.881 83.4509 251.422C82.4405 252.956 81.5092 254.688 80.8884 256.776C80.2725 258.849 80.0752 261.397 80.8318 264.047C80.8905 264.377 81.034 264.686 81.1571 265.014C81.2829 265.329 81.3932 265.682 81.5495 265.977C81.8797 266.59 82.1732 267.231 82.6399 267.831C82.8704 268.133 83.0945 268.444 83.3222 268.759C83.5796 269.046 83.8589 269.321 84.1389 269.605C84.6855 270.209 85.3679 270.655 86.0446 271.148C87.8866 272.322 89.9902 272.969 92.0493 273.156C94.112 273.34 96.1463 273.112 98.0343 272.517C99.9124 271.921 101.677 271.029 103.215 269.841C104.728 268.635 106.008 267.16 106.973 265.528C106.921 265.61 106.867 265.694 106.811 265.772C107.84 264.21 108.545 262.529 108.881 260.828C109.056 259.976 109.158 259.135 109.145 258.286C109.158 257.432 109.084 256.655 108.894 255.757C108.812 255.337 108.648 254.782 108.475 254.317C108.281 253.834 108.099 253.38 107.842 252.971C107.355 252.134 106.742 251.455 106.066 250.949C104.697 249.929 103.047 249.648 101.706 249.964C100.356 250.226 99.2887 250.985 98.5611 251.652C98.3893 251.824 98.2301 251.983 98.0817 252.153C97.9275 252.307 97.8455 252.45 97.7401 252.596C97.5421 252.886 97.3866 253.155 97.2685 253.407C96.7834 254.425 96.799 255.128 97.1455 255.439C97.4997 255.772 98.1736 255.663 99.0843 255.398C99.3021 255.325 99.5539 255.257 99.8077 255.188C99.9307 255.157 100.074 255.105 100.179 255.083C100.286 255.057 100.407 255.05 100.52 255.029C100.933 254.995 101.287 255.031 101.608 255.173C101.929 255.293 102.186 255.581 102.265 255.902C102.319 256.064 102.314 256.212 102.307 256.353C102.302 256.431 102.284 256.489 102.261 256.554C102.248 256.629 102.23 256.625 102.22 256.79C102.196 257.028 102.155 257.459 102.075 257.826C102.007 258.203 101.894 258.603 101.735 258.989C101.458 259.779 101.011 260.554 100.457 261.251L100.3 261.5C99.7681 262.205 99.1247 262.88 98.3348 263.486C97.5322 264.074 96.5953 264.569 95.5919 264.925C93.5682 265.656 91.326 265.682 89.5561 264.989C89.2506 264.802 88.8836 264.697 88.6149 264.473C88.4608 264.36 88.3193 264.265 88.1659 264.163C88.0429 264.04 87.9092 263.906 87.7763 263.783C87.492 263.565 87.2891 263.234 87.0345 262.934C86.9037 262.778 86.8472 262.629 86.7368 262.472C86.6527 262.31 86.519 262.167 86.4646 262.005C85.836 260.735 85.6055 259.293 85.7617 257.782C85.9053 256.283 86.3543 254.768 86.9624 253.338C87.5599 251.89 88.3243 250.499 89.1919 249.17C90.9307 246.477 93.0478 243.93 95.7128 241.345C97.0464 240.053 98.5328 238.751 100.204 237.459C100.5 237.226 100.812 237.005 101.123 236.767C104.369 235.081 107.541 233.427 110.607 231.767C114.151 229.824 117.442 227.969 120.736 225.908C123.927 223.763 126.906 221.451 129.255 218.722C129.555 218.391 129.87 218.076 130.155 217.74C130.427 217.386 130.694 217.037 130.958 216.68C131.471 215.972 132.036 215.315 132.489 214.594C132.936 213.861 133.371 213.148 133.805 212.436L134.129 211.908L134.393 211.357C134.578 210.987 134.747 210.622 134.924 210.252C135.676 208.832 136.169 207.355 136.692 205.949C136.958 205.232 137.113 204.513 137.323 203.82C137.503 203.118 137.728 202.441 137.851 201.754C139.037 196.299 139.145 191.554 139.093 187.726C138.981 183.898 138.704 180.953 138.473 178.957C138.206 176.967 138.073 175.909 138.073 175.909C138.073 175.909 137.99 176.967 137.821 178.963C137.668 180.963 137.421 183.888 137.032 187.633C136.591 191.358 135.98 195.909 134.533 200.886C134.363 201.527 134.112 202.118 133.902 202.759C133.675 203.386 133.491 204.042 133.214 204.667C132.649 205.909 132.144 207.235 131.41 208.472C131.241 208.796 131.075 209.116 130.889 209.434L130.638 209.922L130.332 210.382C129.924 210.995 129.509 211.615 129.093 212.257C128.673 212.883 128.134 213.443 127.665 214.054C127.418 214.363 127.18 214.662 126.936 214.967C126.664 215.26 126.379 215.534 126.103 215.821C123.978 218.192 121.25 220.203 118.312 222.156C115.311 223.966 111.894 225.886 108.441 227.738C101.486 231.49 93.8213 235.215 85.9074 239.599C81.949 241.793 77.9468 244.194 73.9835 246.885C73.0006 247.58 72.0085 248.266 71.0157 248.96C70.035 249.683 69.0556 250.397 68.06 251.125C67.0729 251.856 66.1233 252.652 65.1333 253.406C64.1872 254.178 63.2248 254.945 62.2596 255.725C58.4271 258.829 54.5232 262.046 50.6313 265.516C46.7655 268.992 42.9203 272.735 39.3826 277.001C35.8605 281.261 32.7457 285.967 30.4271 291.138C30.1372 291.787 29.8268 292.416 29.575 293.078C29.3339 293.75 29.085 294.419 28.8389 295.087C28.6183 295.758 28.344 296.423 28.1488 297.1C27.9664 297.785 27.7818 298.483 27.5916 299.165C27.4205 299.85 27.2331 300.55 27.0811 301.236C26.9658 301.925 26.84 302.605 26.7247 303.295C26.6087 303.985 26.4991 304.67 26.386 305.357C26.2912 306.048 26.2248 306.75 26.1449 307.445C25.9348 309.77 25.9066 312.127 26.065 314.462C25.9242 314.89 25.7849 315.316 25.6442 315.744C25.4696 316.247 25.3084 316.757 25.1387 317.255C24.9555 317.745 24.7738 318.245 24.5949 318.722C24.2201 319.712 23.8687 320.68 23.4557 321.605C23.0654 322.529 22.6786 323.45 22.2395 324.319C21.8082 325.182 21.4157 326.035 20.9597 326.831C20.5156 327.624 20.08 328.388 19.6409 329.104C18.7485 330.541 17.8533 331.805 17.0133 332.87C16.5848 333.391 16.1591 333.869 15.7879 334.312C15.4004 334.74 15.039 335.133 14.682 335.459C14.0045 336.136 13.4276 336.6 13.0344 336.921C12.6469 337.237 12.439 337.403 12.439 337.403C12.439 337.403 12.572 337.157 12.8308 336.703C13.1129 336.267 13.4544 335.597 13.9133 334.769C14.1417 334.346 14.3673 333.874 14.6211 333.363C14.8729 332.855 15.1373 332.304 15.394 331.698C15.6761 331.107 15.9477 330.467 16.2171 329.786C16.4971 329.117 16.7814 328.411 17.0458 327.664C17.608 326.179 18.1722 324.568 18.6905 322.839C18.9677 321.988 19.2294 321.09 19.4839 320.189C19.6197 319.735 19.7484 319.278 19.8841 318.824C20.0022 318.357 20.138 317.893 20.261 317.421C20.3841 316.948 20.5121 316.471 20.6436 315.992C20.7694 315.518 20.8897 315.027 21.0155 314.542C21.2672 313.562 21.5006 312.579 21.7523 311.589C22.0288 310.594 22.2501 309.594 22.5245 308.581L23.3171 305.53C23.8842 303.496 24.469 301.444 25.2235 299.396C25.4774 298.629 25.8062 297.88 26.1265 297.119C24.0228 297.807 21.3316 299.317 18.8461 301.855C16.3677 304.374 14.1021 307.892 12.5811 312.306C11.3444 315.862 10.5928 319.98 9.93797 324.04C9.27047 328.083 8.71469 332.098 7.7806 335.494C6.89106 338.908 5.5129 341.733 3.89928 343.531C3.70907 343.75 3.51179 343.99 3.32229 344.18C3.11935 344.361 2.93479 344.546 2.75024 344.711C2.56568 344.875 2.39669 345.035 2.23971 345.18C2.07071 345.308 1.91656 345.421 1.77584 345.521C1.18329 345.95 0.857315 346.194 0.857315 346.194C0.857315 346.194 1.23491 346.247 1.98868 346.345C2.17819 346.36 2.3889 346.386 2.61942 346.411L3.37603 346.414C3.64543 346.401 3.95798 346.396 4.26911 346.394C4.59225 346.379 4.91045 346.317 5.27673 346.278C6.71286 346.104 8.3979 345.588 10.2406 344.752C12.0982 343.922 13.9522 342.683 15.7766 341.208C19.4323 338.229 22.656 334.276 25.2886 330.29C26.3916 328.582 27.3844 326.892 28.2718 325.224C30.1421 330.434 33.141 335.255 37.1071 339.045C41.231 343.008 46.3328 345.858 51.5844 347.153Z" fill="#2E3133"/>
<path d="M71.2201 222.125C75.8198 225.549 81.5502 227.361 87.3456 227.332C93.151 227.294 98.6226 225.558 103.04 223.069C107.217 220.688 111.078 218.233 114.339 215.36C117.608 212.502 120.314 209.386 122.526 206.271C123.069 205.481 123.59 204.693 124.1 203.936C124.557 203.14 125.022 202.358 125.466 201.597C125.932 200.853 126.289 200.055 126.664 199.301C127.038 198.536 127.439 197.818 127.731 197.064C128.347 195.576 128.952 194.17 129.379 192.79C129.609 192.097 129.836 191.441 130.025 190.789C130.2 190.132 130.375 189.497 130.533 188.876C130.857 187.659 131.062 186.49 131.246 185.423C131.451 184.357 131.565 183.371 131.631 182.473C131.815 180.708 131.811 179.318 131.79 178.374C131.77 177.43 131.743 176.943 131.743 176.943C131.743 176.943 131.517 177.394 131.154 178.251C130.799 179.107 130.281 180.375 129.624 181.996C129.465 182.401 129.295 182.817 129.131 183.268C128.947 183.72 128.752 184.182 128.551 184.659C128.151 185.634 127.755 186.696 127.263 187.804C127.026 188.359 126.775 188.938 126.529 189.533C126.273 190.118 125.995 190.723 125.719 191.349C125.17 192.606 124.513 193.878 123.857 195.233C122.449 197.893 120.894 200.802 118.809 203.616C116.744 206.441 114.286 209.279 111.287 211.785C108.309 214.269 104.832 216.587 100.743 217.69C96.9206 218.793 92.7699 217.957 89.2068 216.317C87.4164 215.512 85.7829 214.571 84.2789 213.591C82.7707 212.616 81.3953 211.6 80.153 210.574C78.9169 209.533 77.8831 208.412 77.0749 207.27C76.2801 206.135 75.7109 205.002 75.3644 203.912C75.0052 202.814 74.849 201.739 74.8405 200.637C74.8659 200.365 74.8327 200.09 74.8744 199.804C74.9133 199.519 74.9487 199.248 74.9713 198.968C75.0279 198.665 75.0894 198.388 75.1459 198.096C75.1834 197.811 75.2838 197.515 75.3814 197.224C75.4762 196.934 75.5398 196.644 75.6452 196.343C75.776 196.049 75.8969 195.754 76.01 195.467C76.1154 195.166 76.2596 194.889 76.4003 194.604C76.5467 194.313 76.6825 194.035 76.8062 193.747C77.3811 192.762 77.9433 191.79 78.5167 191.154L78.7253 190.885C78.796 190.803 78.8639 190.746 78.9325 190.666C79.0697 190.54 79.2069 190.382 79.3384 190.25C79.4671 190.143 79.5965 190.032 79.7223 189.906C79.8631 189.765 79.9875 189.734 80.1105 189.621L80.3205 189.472C80.3849 189.429 80.4542 189.4 80.5207 189.364C80.6642 189.312 80.8 189.197 80.9442 189.146C81.2412 189.053 81.558 188.902 81.9087 188.879C83.2862 188.599 85.0023 188.935 86.4342 189.443C87.8732 189.924 89.117 190.445 90.0715 190.742C91.0332 191.051 91.7594 191.086 92.1745 190.753C92.6086 190.412 92.7183 189.716 92.4927 188.619C92.2487 187.538 91.618 186.087 90.3353 184.404C89.9938 183.996 89.6374 183.562 89.2089 183.108C88.7677 182.708 88.2847 182.267 87.7487 181.839C86.5996 181.018 85.247 180.153 83.4771 179.635C82.6158 179.338 81.645 179.198 80.6168 179.078C80.1021 179.03 79.5802 179.047 79.0386 179.055C78.7692 179.067 78.4948 179.066 78.2247 179.089C77.9531 179.135 77.6823 179.181 77.4165 179.219C76.8861 179.318 76.2957 179.386 75.7746 179.557C75.2365 179.726 74.7026 179.911 74.1567 180.109C73.6228 180.315 73.1427 180.578 72.6251 180.83C72.3663 180.966 72.099 181.089 71.8579 181.227C71.6316 181.381 71.3983 181.542 71.1579 181.691C69.2232 182.907 67.6612 184.459 66.1735 186.173C65.8432 186.607 65.5144 187.039 65.1779 187.477C64.837 187.921 64.5061 188.375 64.2183 188.868C63.9185 189.353 63.6109 189.846 63.3175 190.343C63.0198 190.856 62.7737 191.41 62.4965 191.964C61.9428 193.041 61.5497 194.286 61.1325 195.525C60.9734 196.166 60.8164 196.825 60.658 197.477C60.506 198.141 60.4608 198.844 60.3653 199.535C60.0676 202.316 60.2988 205.306 61.1169 208.162C61.9358 211.017 63.3026 213.704 65.0442 216.055C66.7971 218.4 68.9008 220.432 71.2201 222.125Z" fill="#2E3133"/>
<path d="M261.698 187.567C261.698 187.567 260.312 187.331 258.034 186.941C256.885 186.858 255.571 186.735 254.14 186.7C252.678 186.737 251.16 186.715 249.528 186.91C246.285 187.218 242.831 187.89 239.215 188.439C235.582 188.993 231.709 189.368 228.123 188.941C226.347 188.767 224.623 188.326 223.095 187.812C222.335 187.566 221.555 187.196 220.873 186.873C220.159 186.519 219.513 186.181 218.903 185.786C217.677 184.949 216.635 184.082 215.768 183.215C214.907 182.271 214.224 181.343 213.696 180.485C213.146 179.639 212.782 178.73 212.511 177.957C212.249 177.172 212.085 176.494 211.982 175.92C211.771 174.786 211.802 174.108 211.802 174.108C211.802 174.108 212.402 173.734 213.418 173.211C213.941 172.954 214.542 172.672 215.224 172.37C215.876 172.098 216.63 171.786 217.496 171.431C218.312 171.088 219.184 170.77 220.092 170.508C221.026 170.179 222 169.903 223.011 169.723C223.525 169.62 224.083 169.512 224.637 169.45C225.202 169.368 225.731 169.352 226.356 169.302C227.588 169.22 228.86 169.281 230.352 169.43C233.297 169.779 236.945 170.636 240.901 171.955C244.857 173.273 249.014 175.212 252.353 177.516C254.031 178.609 255.478 179.912 256.698 181.03C257.899 182.231 258.852 183.391 259.612 184.313C261.01 186.367 261.698 187.567 261.698 187.567Z" fill="#2E3133"/>
<path d="M137.418 110.704C137.055 110.269 136.777 109.787 136.546 109.299C136.454 111.433 136.679 113.866 137.372 116.404C138.428 120.694 140.502 125.25 142.431 129.991C142.903 131.181 143.355 132.371 143.781 133.588C144.196 134.793 144.668 135.983 144.997 137.194C145.331 138.41 145.643 139.605 145.951 140.775C146.228 141.955 146.377 143.12 146.577 144.233C146.67 144.797 146.752 145.351 146.849 145.89C146.89 146.433 146.927 146.962 146.972 147.491C147.034 148.537 147.091 149.548 147.152 150.513C147.137 151.482 147.111 152.401 147.07 153.283C147.013 154.172 147.039 155.017 146.906 155.808C146.68 157.408 146.48 158.84 146.208 160.096C145.885 161.364 145.582 162.466 145.285 163.421C145.028 164.375 144.658 165.176 144.377 165.848C144.084 166.51 143.828 167.053 143.613 167.484C143.196 168.321 142.956 168.705 142.956 168.705C142.956 168.705 142.904 168.244 142.874 167.31C142.854 166.838 142.844 166.253 142.848 165.54C142.854 164.827 142.921 164 142.868 163.026C142.849 162.061 142.848 160.963 142.879 159.743C142.843 158.516 142.772 157.151 142.761 155.664C142.787 154.919 142.653 154.129 142.623 153.318C142.566 152.492 142.525 151.63 142.463 150.747C142.351 149.854 142.248 148.941 142.135 147.977C142.083 147.494 142.042 147.002 141.987 146.504C141.904 146.002 141.817 145.493 141.725 144.98C141.545 143.949 141.416 142.866 141.2 141.768C140.955 140.68 140.713 139.557 140.471 138.413C140.205 137.264 139.846 136.124 139.544 134.94C139.23 133.764 138.877 132.559 138.522 131.363C137.076 126.582 135.46 121.549 134.947 116.838C134.412 112.734 134.321 107.491 136.527 103.817C138.903 99.8828 144.218 98.3844 147.523 102.427C149.816 105.214 149.4 109.333 146.609 111.621C143.822 113.906 139.701 113.491 137.418 110.704Z" fill="#2E3133"/>
<path d="M242.976 155.701C242.386 155.223 241.586 154.464 240.436 153.602C238.213 151.842 234.894 149.416 230.497 147.164C228.327 146.009 225.854 144.973 223.161 144.044C220.478 143.125 217.552 142.376 214.439 141.92C208.226 140.972 201.29 141.176 194.223 142.772C187.159 144.347 180.735 147.262 175.297 150.586C172.578 152.258 170.058 153.978 167.826 155.778C167.242 156.199 166.708 156.661 166.165 157.112C165.637 157.558 165.097 157.953 164.594 158.436C163.573 159.354 162.594 160.222 161.659 161.063C159.776 162.741 158.016 164.193 156.498 165.527C154.98 166.881 153.65 168.016 152.511 168.908C150.249 170.688 148.796 171.515 148.401 171.14C147.997 170.775 148.669 169.272 150.249 166.84C151.029 165.619 152.045 164.172 153.266 162.52C154.488 160.888 156.027 159.104 157.699 157.123C160.942 153.162 165.499 148.523 171.326 144.502C177.155 140.459 184.348 136.898 192.49 135.077C200.633 133.235 208.857 133.548 215.82 135.41C219.309 136.324 222.5 137.617 225.311 139.093C228.113 140.581 230.581 142.176 232.653 143.86C236.824 147.159 239.579 150.417 241.309 152.752C242.213 153.88 242.802 154.85 243.222 155.476C243.638 156.106 243.869 156.45 243.869 156.45C243.869 156.45 243.56 156.183 242.976 155.701Z" fill="#2E3133"/>
<path d="M162.522 118.909C160.671 122.002 159.654 126.097 158.972 130.196C158.285 134.312 157.88 138.493 157.402 142.171C156.919 145.834 156.387 148.974 155.719 151.591C155.072 154.209 154.292 156.301 153.513 157.871C153.138 158.656 152.708 159.293 152.368 159.836C151.983 160.355 151.656 160.764 151.373 161.067C150.767 161.652 150.465 161.873 150.465 161.873C150.465 161.873 150.521 161.467 150.691 160.703C150.758 160.318 150.835 159.841 150.927 159.257C150.978 158.651 151.101 157.995 151.163 157.174C151.301 155.569 151.455 153.515 151.63 150.93C151.82 148.349 152.051 145.235 152.538 141.536C153.015 137.847 153.733 133.557 154.939 129.284C155.519 127.154 156.262 125.015 157.176 122.994C158.089 120.984 159.177 119.054 160.541 117.464C164.138 113.22 172.676 110.091 176.893 115.252C179.177 118.048 178.765 122.164 175.969 124.456C173.183 126.74 169.069 126.318 166.78 123.538C164.502 120.747 164.907 116.617 167.703 114.345C167.755 114.293 167.812 114.258 167.872 114.215C167.205 114.463 166.523 114.785 165.877 115.267C164.615 116.137 163.466 117.37 162.522 118.909Z" fill="#2E3133"/>
<path d="M181.326 170.99C179.977 170.596 178.746 170.04 177.545 169.599C176.329 169.132 175.103 168.624 173.729 168.347C169.583 167.383 164.124 168.039 159.291 170.225C158.814 170.435 158.377 170.543 158.018 170.635C155.57 172.344 153.924 171.158 156.407 169.085C159.055 166.991 161.871 165.191 164.74 163.667C167.592 162.066 170.475 160.763 173.323 159.393C178.285 157.12 182.61 154.991 187.659 153.349C189.228 152.795 191.399 152.359 193.835 151.995C195.056 151.861 196.345 151.764 197.658 151.702C198.971 151.672 200.305 151.723 201.613 151.81C202.922 151.918 204.199 152.149 205.395 152.4C206.585 152.646 207.714 153.077 208.684 153.492C209.643 153.918 210.495 154.483 211.131 155.078C211.767 155.673 212.198 156.309 212.383 157.007C212.67 158.095 212.115 158.895 211.089 159.491C210.566 159.788 209.909 160.035 209.191 160.24C208.817 160.337 208.437 160.42 208.031 160.496C207.63 160.589 207.204 160.686 206.764 160.767C203.264 161.321 198.837 161.748 195.081 161.912C194.44 161.926 193.794 161.947 193.157 161.958C192.506 161.984 191.869 162.003 191.222 162.035L189.298 162.081L187.364 162.178C186.707 162.24 186.03 162.312 185.358 162.379C186.667 162.507 187.99 162.672 189.262 162.866C190.55 163.128 191.787 163.42 192.874 163.768C195.069 164.57 196.732 165.534 197.255 166.857C197.424 167.304 197.46 167.72 197.363 168.094C197.763 169.449 197.014 170.69 195.079 171.475C194.105 171.895 193.007 172.09 191.842 172.209C191.252 172.266 190.647 172.286 190.041 172.286C189.425 172.266 188.804 172.229 188.188 172.22C186.958 172.148 185.7 171.928 184.546 171.747C183.368 171.554 182.265 171.242 181.326 170.99Z" fill="#2E3133"/>
<path d="M51.588 0.770446C54.2149 0.0937451 56.8517 -0.235061 59.4277 -0.29658C61.9923 -0.338299 64.4764 -0.0915467 66.8516 0.333425C68.0211 0.600711 69.2063 0.811442 70.3101 1.16429C70.8637 1.32904 71.4181 1.49308 71.9717 1.65642C72.5148 1.85158 73.0649 2.05242 73.608 2.24758C75.7632 3.02682 77.6668 3.98565 79.5392 4.9756C83.2848 7.03965 86.7482 9.57816 89.5646 12.7439C90.9703 14.3349 92.2021 16.0786 93.2026 17.9107C94.1622 19.7838 94.8954 21.7277 95.3367 23.7076C96.1937 27.6631 95.855 31.5331 94.8445 34.7087C93.8588 37.9204 92.3251 40.5219 90.7136 42.6255C86.8966 47.5922 80.7455 52.5017 74.2698 52.9542C68.2828 53.3792 63.1513 49.0906 61.5511 43.5292C60.7761 40.8252 60.8744 37.989 61.5822 35.2688C62.3933 32.1808 65.6566 26.1471 69.1964 25.7256C73.9934 25.167 74.7733 31.1909 73.3725 34.4782C72.4342 36.6992 71.1614 37.6948 68.8478 38.1417C67.9292 38.3121 67.1033 38.4083 66.4662 38.6141C65.6969 38.8913 67.9179 42.436 68.2828 42.7287C72.5311 46.2586 78.2615 42.7132 81.2737 39.3827C85.1317 35.1146 86.3628 28.5053 83.1101 23.4678C78.4573 16.2794 68.7388 12.6463 60.4636 14.0174C56.5342 14.663 50.3611 16.6598 47.4627 19.5271C45.1639 21.8047 43.3014 24.7562 42.1269 28.1468C40.9566 31.5529 40.4638 35.3508 40.7007 39.3212L40.8343 40.8705L41.0344 42.4551L41.214 44.0404C41.2918 44.5693 41.4141 45.0721 41.5216 45.601L41.7882 47.1602C41.8957 47.6778 42.0548 48.1862 42.1785 48.72L42.5886 50.2997C42.7173 50.8173 42.928 51.3364 43.0864 51.8752C44.4052 56.0775 46.2726 60.3562 48.5969 64.5995C53.2299 73.1329 59.422 81.0391 66.1897 87.8775C67.0305 88.7183 67.8783 89.5958 68.7396 90.3863C69.6015 91.1762 70.4585 91.9823 71.3361 92.7466C72.2277 93.4856 73.1165 94.24 74.0188 94.9472C74.9423 95.6444 75.8559 96.3529 76.7893 97.0204C80.515 99.6784 84.3723 102.038 88.2211 104.224C90.7348 105.65 93.2486 107.015 95.7319 108.329C95.4236 108.114 95.1062 107.887 94.8134 107.657C91.7453 105.409 89.1438 103.178 86.7736 100.663C85.5885 99.3864 84.4706 98.0422 83.4544 96.4915C82.444 94.9578 81.4993 93.2338 80.8997 91.145C80.2732 89.0732 80.078 86.5177 80.8176 83.8802C80.8997 83.5422 81.0376 83.229 81.1514 82.9115C81.295 82.5827 81.3876 82.244 81.5622 81.9463C81.8903 81.3297 82.1774 80.6947 82.6547 80.0944C82.8704 79.7868 83.096 79.4679 83.3215 79.1702C83.5789 78.8831 83.8603 78.6017 84.1432 78.3188C84.682 77.7178 85.3792 77.2667 86.0467 76.7844C87.8944 75.5944 89.998 74.9474 92.0493 74.7628C94.1176 74.5726 96.1548 74.8038 98.0371 75.4048C99.9258 75.9995 101.68 76.8926 103.219 78.0834C104.738 79.2833 106.021 80.7612 106.974 82.3932C106.917 82.3062 106.866 82.2341 106.82 82.1471C107.852 83.7119 108.55 85.3956 108.883 87.0933C109.062 87.9404 109.155 88.7925 109.16 89.6276C109.159 90.4895 109.088 91.2695 108.887 92.1774C108.815 92.5875 108.656 93.1469 108.477 93.6143C108.282 94.0767 108.102 94.5434 107.845 94.9542C107.363 95.7858 106.747 96.4625 106.065 96.9709C104.701 98.0068 103.058 98.2734 101.715 97.9552C100.359 97.6886 99.2922 96.9285 98.559 96.2772C98.39 96.1082 98.2252 95.9435 98.0824 95.7794C97.9289 95.6048 97.8568 95.4718 97.7387 95.324C97.5386 95.0518 97.3852 94.7739 97.2671 94.513C96.7898 93.5025 96.8046 92.7891 97.1391 92.4758C97.4983 92.1576 98.1757 92.2608 99.0893 92.5168C99.3156 92.5988 99.5602 92.6611 99.802 92.7374C99.935 92.7686 100.085 92.835 100.197 92.8449C100.289 92.8541 100.402 92.876 100.525 92.8859C100.936 92.9262 101.284 92.8859 101.613 92.7636C101.931 92.6307 102.183 92.338 102.268 92.0247C102.31 91.8599 102.32 91.7058 102.31 91.5729C102.3 91.5007 102.29 91.4293 102.28 91.3784C102.259 91.3063 102.233 91.2907 102.213 91.1373C102.197 90.8855 102.167 90.4648 102.085 90.095C102.008 89.7209 101.884 89.3306 101.747 88.9459C101.448 88.1455 101.012 87.3811 100.468 86.6733L100.299 86.4421C99.7709 85.7187 99.1289 85.047 98.344 84.436C97.5393 83.8463 96.5996 83.3591 95.599 82.9949C93.5724 82.261 91.3295 82.2355 89.5596 82.9376C89.2513 83.1229 88.8878 83.2205 88.6206 83.4666C88.4664 83.5585 88.3236 83.6617 88.1751 83.7593C88.0422 83.8922 87.9191 84.0153 87.7954 84.139C87.4977 84.3646 87.282 84.7033 87.0359 84.9904C86.9079 85.1396 86.8471 85.3036 86.7432 85.4472C86.6513 85.6013 86.5282 85.7541 86.478 85.9188C85.8416 87.1916 85.6055 88.6383 85.7646 90.1409C85.9032 91.6443 86.3592 93.1582 86.9589 94.5894C87.5698 96.0418 88.3243 97.4213 89.2075 98.7655C90.9406 101.443 93.0506 103.993 95.7227 106.575C97.0613 107.872 98.5243 109.17 100.218 110.475C100.505 110.699 100.818 110.931 101.131 111.162C104.374 112.844 107.555 114.487 110.618 116.164C114.163 118.098 117.437 119.955 120.74 122.008C123.931 124.152 126.912 126.477 129.257 129.211C129.565 129.529 129.872 129.848 130.16 130.196C130.426 130.546 130.693 130.894 130.966 131.238C131.474 131.942 132.048 132.598 132.495 133.332C132.931 134.054 133.372 134.783 133.814 135.492L134.131 136.016L134.404 136.575C134.578 136.945 134.752 137.304 134.932 137.658C135.676 139.089 136.173 140.582 136.697 141.989C136.964 142.687 137.124 143.409 137.323 144.112C137.502 144.805 137.739 145.483 137.856 146.164C139.037 151.634 139.15 156.386 139.087 160.202C138.986 164.041 138.698 166.974 138.467 168.971C138.216 170.967 138.077 172.009 138.077 172.009C138.077 172.009 137.985 170.963 137.821 168.961C137.662 166.965 137.42 164.025 137.046 160.295C136.585 156.57 135.985 152.03 134.532 147.038C134.373 146.406 134.112 145.807 133.907 145.17C133.671 144.544 133.501 143.882 133.214 143.257C132.654 142.01 132.161 140.696 131.423 139.444C131.244 139.13 131.075 138.818 130.9 138.489L130.638 138.013L130.341 137.551C129.93 136.934 129.509 136.309 129.094 135.679C128.674 135.053 128.15 134.488 127.678 133.873C127.436 133.571 127.185 133.278 126.929 132.96C126.682 132.673 126.384 132.396 126.107 132.108C123.972 129.738 121.263 127.727 118.308 125.778C115.322 123.961 111.895 122.031 108.446 120.185C101.479 116.44 93.8298 112.72 85.9081 108.328C81.9518 106.127 77.9397 103.737 73.9898 101.037C72.9992 100.355 72.0149 99.6678 71.0235 98.9748C70.0435 98.2522 69.0641 97.5274 68.0784 96.8104C67.0934 96.0714 66.1289 95.2809 65.139 94.5271C64.1851 93.7472 63.2305 92.9779 62.2603 92.2029C58.4335 89.0944 54.5232 85.8828 50.644 82.4137C46.7556 78.9354 42.9181 75.1998 39.3925 70.926C35.8584 66.6622 32.7485 61.9528 30.4186 56.7917C30.1421 56.1447 29.8289 55.5033 29.5715 54.8471C29.3261 54.1803 29.09 53.5128 28.8481 52.8411C28.612 52.1736 28.3447 51.5174 28.1502 50.8194C27.965 50.1321 27.7755 49.4505 27.5902 48.7618C27.4212 48.0695 27.2267 47.3928 27.0832 46.6935C26.9594 46.0069 26.847 45.3189 26.7134 44.6309C26.6158 43.9492 26.5083 43.2562 26.3853 42.559C26.3032 41.8816 26.2198 41.1844 26.1541 40.4907C25.9334 38.1672 25.9087 35.8019 26.0671 33.4572C25.9235 33.0265 25.7899 32.6058 25.6414 32.19C25.4823 31.6816 25.3083 31.1796 25.1386 30.6818C24.959 30.184 24.7738 29.6918 24.5998 29.1983C24.2251 28.2182 23.8807 27.2488 23.4656 26.3203C23.0654 25.387 22.6701 24.4783 22.2444 23.6114C21.8145 22.7388 21.4192 21.8924 20.9667 21.092C20.5149 20.3021 20.0948 19.5427 19.643 18.8137C18.7407 17.3881 17.8576 16.1147 17.0111 15.0632C16.5848 14.535 16.169 14.057 15.7801 13.6172C15.411 13.1858 15.0412 12.7863 14.6812 12.4674C14.0045 11.8006 13.4353 11.3233 13.0344 11.0058C12.6448 10.6982 12.439 10.5335 12.439 10.5335C12.439 10.5335 12.5783 10.7647 12.8399 11.2215C13.1171 11.6627 13.4707 12.3345 13.9126 13.1766C14.1431 13.5712 14.3694 14.0435 14.6211 14.5611C14.8771 15.0632 15.1437 15.6282 15.4053 16.2278C15.6818 16.8126 15.9441 17.4539 16.2263 18.1377C16.4928 18.8144 16.7856 19.5172 17.0578 20.2618C17.596 21.7545 18.1666 23.3604 18.699 25.0836C18.9663 25.9463 19.2329 26.828 19.4896 27.7409C19.6225 28.1821 19.7505 28.6382 19.8891 29.1063C20.0178 29.573 20.1352 30.0397 20.254 30.5064C20.3982 30.9787 20.5163 31.456 20.6379 31.927C20.7666 32.4149 20.8946 32.9021 21.0127 33.3794C21.2694 34.3545 21.5161 35.3494 21.7672 36.34C22.0394 37.3307 22.2494 38.3411 22.5209 39.3523L23.3108 42.3893C23.8955 44.4307 24.4655 46.4884 25.2348 48.5305C25.4816 49.2893 25.8097 50.0487 26.1272 50.7975C24.0122 50.1208 21.3203 48.6168 18.8518 46.0677C16.3684 43.5433 14.0958 40.0389 12.5776 35.6273C11.3508 32.0613 10.592 27.9566 9.94434 23.8836C9.27754 19.851 8.71395 15.8184 7.78481 12.4271C6.89739 9.0153 5.50088 6.20315 3.89575 4.39154C3.70129 4.17587 3.51603 3.9397 3.31592 3.7509C3.12146 3.55644 2.93124 3.38743 2.75658 3.22126C2.57203 3.0466 2.39313 2.88752 2.23898 2.75459C2.07989 2.6167 1.90523 2.50425 1.77229 2.40101C1.18256 1.96402 0.864369 1.73918 0.864369 1.73918C0.864369 1.73918 1.24409 1.67765 1.99292 1.58502C2.17747 1.56451 2.39174 1.5341 2.62296 1.51784L3.37178 1.51855C3.65392 1.5235 3.9516 1.53411 4.2698 1.53411C4.588 1.55391 4.91608 1.60623 5.27034 1.65219C6.71213 1.81129 8.40496 2.33456 10.247 3.17107C12.1038 4.00262 13.9459 5.24925 15.7674 6.72145C19.4252 9.7019 22.6631 13.6582 25.2949 17.6448C26.3931 19.3384 27.3936 21.0361 28.2754 22.7084C30.1435 17.4857 33.1452 12.6682 37.1156 8.88165C41.2338 4.9261 46.3335 2.07364 51.588 0.770446Z" fill="#2E3133"/>
<path d="M71.2123 125.81C75.8198 122.382 81.5573 120.566 87.3584 120.602C93.151 120.627 98.6148 122.377 103.038 124.871C107.209 127.236 111.083 129.694 114.34 132.572C117.614 135.424 120.317 138.549 122.528 141.664C123.063 142.454 123.581 143.239 124.099 144.003C124.566 144.789 125.013 145.573 125.464 146.343C125.926 147.092 126.28 147.866 126.664 148.621C127.04 149.385 127.429 150.124 127.726 150.874C128.357 152.346 128.953 153.762 129.384 155.137C129.61 155.825 129.84 156.497 130.03 157.139C130.206 157.806 130.364 158.437 130.528 159.052C130.862 160.279 131.067 161.438 131.247 162.52C131.442 163.577 131.555 164.572 131.637 165.456C131.833 167.231 131.816 168.611 131.786 169.555C131.775 170.499 131.739 170.997 131.739 170.997C131.739 170.997 131.519 170.54 131.159 169.678C130.795 168.821 130.293 167.559 129.63 165.942C129.471 165.527 129.307 165.107 129.127 164.66C128.943 164.218 128.758 163.747 128.552 163.264C128.151 162.3 127.762 161.243 127.265 160.139C127.019 159.575 126.788 158.995 126.541 158.4C126.27 157.81 125.998 157.199 125.71 156.594C125.186 155.333 124.525 154.054 123.858 152.69C122.458 150.048 120.892 147.139 118.803 144.312C116.752 141.48 114.284 138.663 111.298 136.15C108.301 133.666 104.828 131.343 100.75 130.239C96.9227 129.142 92.772 129.988 89.216 131.613C87.4312 132.425 85.783 133.373 84.286 134.339C82.7671 135.324 81.3918 136.329 80.1459 137.36C78.9198 138.412 77.8832 139.541 77.0827 140.659C76.2717 141.799 75.7237 142.932 75.3531 144.02C75.0045 145.128 74.8504 146.186 74.8525 147.291C74.8758 147.576 74.8249 147.842 74.8815 148.124C74.914 148.399 74.948 148.693 74.9713 148.978C75.0385 149.26 75.0965 149.55 75.153 149.833C75.1933 150.13 75.2881 150.405 75.3835 150.7C75.4832 150.989 75.5441 151.297 75.6529 151.58C75.776 151.877 75.8969 152.168 76.0199 152.465C76.1168 152.757 76.2561 153.05 76.4053 153.332C76.5453 153.612 76.6797 153.899 76.8176 154.181C77.374 155.175 77.9447 156.135 78.5217 156.778L78.7289 157.053C78.7975 157.137 78.8667 157.191 78.9339 157.258C79.0626 157.387 79.2012 157.555 79.3419 157.682C79.4678 157.792 79.5986 157.897 79.7315 158.03C79.8595 158.17 79.9854 158.198 80.124 158.315L80.3191 158.469C80.3821 158.508 80.4528 158.521 80.5235 158.562C80.66 158.621 80.7936 158.735 80.9499 158.793C81.2419 158.87 81.5608 159.034 81.9094 159.054C83.2918 159.324 85.003 158.988 86.4243 158.5C87.8816 158.008 89.1233 157.484 90.0723 157.182C91.0269 156.883 91.7601 156.847 92.1915 157.187C92.6164 157.52 92.7246 158.213 92.4934 159.316C92.2424 160.398 91.6173 161.845 90.3339 163.539C90.0008 163.944 89.6339 164.383 89.2209 164.816C88.7592 165.226 88.2833 165.67 87.743 166.108C86.6138 166.919 85.2526 167.778 83.4743 168.284C82.6066 168.597 81.6379 168.736 80.6189 168.862C80.1162 168.914 79.5781 168.878 79.0393 168.872C78.7692 168.865 78.4998 168.867 78.2254 168.833C77.9595 168.794 77.6951 168.76 77.4151 168.71C76.8812 168.619 76.2915 168.553 75.7703 168.375C75.2449 168.203 74.7061 168.024 74.1546 167.837C73.6334 167.619 73.1519 167.362 72.6209 167.102C72.372 166.972 72.1047 166.849 71.8586 166.705C71.6281 166.547 71.3947 166.4 71.1656 166.248C69.2239 165.031 67.6591 163.476 66.1784 161.755C65.8503 161.323 65.5173 160.897 65.1835 160.451C64.8427 160.021 64.5104 159.563 64.2247 159.071C63.9242 158.581 63.6243 158.09 63.3189 157.585C63.024 157.07 62.7751 156.518 62.5064 155.977C61.9421 154.889 61.5469 153.643 61.1339 152.414C60.9727 151.776 60.8122 151.113 60.6729 150.454C60.5131 149.792 60.46 149.097 60.3646 148.402C60.0669 145.621 60.3059 142.632 61.1283 139.776C61.94 136.924 63.3118 134.227 65.0605 131.883C66.8007 129.525 68.898 127.508 71.2123 125.81Z" fill="#2E3133"/>
<path d="M261.657 160.19C261.657 160.19 260.267 160.431 257.988 160.842C256.849 160.935 255.542 161.073 254.11 161.119C252.638 161.103 251.129 161.124 249.487 160.929C246.239 160.657 242.791 160.011 239.164 159.472C235.537 158.944 231.652 158.6 228.061 159.042C226.296 159.226 224.572 159.688 223.043 160.222C222.279 160.453 221.514 160.828 220.826 161.166C220.128 161.514 219.493 161.863 218.887 162.263C217.651 163.109 216.62 163.976 215.747 164.849C214.89 165.798 214.218 166.727 213.695 167.6C213.151 168.452 212.802 169.354 212.535 170.134C212.269 170.914 212.115 171.601 212.007 172.161C211.813 173.31 211.848 173.982 211.848 173.982C211.848 173.982 212.448 174.367 213.469 174.864C213.992 175.12 214.597 175.419 215.29 175.701C215.936 175.967 216.69 176.28 217.553 176.639C218.384 176.968 219.261 177.281 220.159 177.532C221.092 177.85 222.088 178.128 223.083 178.302C223.602 178.389 224.166 178.502 224.705 178.568C225.274 178.645 225.798 178.656 226.429 178.691C227.66 178.773 228.932 178.692 230.435 178.543C233.375 178.168 237.018 177.296 240.973 175.947C244.908 174.597 249.064 172.638 252.374 170.313C254.051 169.21 255.489 167.897 256.698 166.768C257.894 165.552 258.837 164.393 259.592 163.464C260.979 161.401 261.657 160.19 261.657 160.19Z" fill="#2E3133"/>
</svg>
