<svg width="598" height="534" viewBox="0 0 598 534" fill="none" xmlns="http://www.w3.org/2000/svg">
<path d="M60 1.60014C48.1333 3.73347 32.8 12.2668 22.9333 22.0001C12.6667 32.1335 4.53332 47.3335 2.13332 60.5335C0.133324 71.7335 0.133324 463.867 2.13332 473.6C2.93332 477.467 5.86666 485.6 8.79999 491.6C18.4 511.733 39.4667 528 61.2 531.867C66.6667 532.933 151.733 533.333 333.6 533.333H598V288V42.6668H387.333H176.667V53.3335V64.0001H376.667H576.667V288V512L319.733 511.733L62.6667 511.333L53.7333 507.067C41.4667 501.333 33.6 493.733 27.7333 481.733C20.9333 468.133 20.9333 459.867 27.7333 446.267C33.6 434.267 41.4667 426.667 53.7333 420.933L62.6667 416.667L106.4 416.267L150 415.867V207.867V0.000134945L108.4 0.133468C85.4667 0.266802 63.7333 0.800135 60 1.60014ZM128.667 208V394.667H98.9333C82.5333 394.667 65.6 395.333 61.2 396.133C51.0667 398 36.2667 404.933 28.6667 411.333L22.6667 416.4L22.2667 381.2C22.1333 361.867 22.1333 282.133 22.2667 204L22.6667 62.0001L26.9333 53.0668C29.2 48.1335 33.6 41.4668 36.5333 38.2668C42.4 31.8668 54.5333 24.8001 62.8 22.8001C65.7333 22.1335 81.6 21.6001 98.4 21.4668L128.667 21.3335V208Z" fill="white"/>
<path d="M203.333 282.667V469.333H368.667H534V282.667V96.0001H368.667H203.333V282.667ZM331.333 197.333V277.333H342H352.667V197.333V117.333H432.667H512.667V160V202.667H454H395.333V213.333V224H454H512.667V336V448H459.333H406V394.667V341.333H438H470V330.667V320H427.333H384.667V384V448H304.667H224.667V394.667V341.333H288.667H352.667V330.667V320H288.667H224.667V266.667V213.333H256.667H288.667V202.667V192H256.667H224.667V154.667V117.333H278H331.333V197.333Z" fill="white"/>
</svg>
