<svg width="141" height="141" viewBox="0 0 141 141" fill="none" xmlns="http://www.w3.org/2000/svg">
<path d="M140.361 31.1063V14.9521L104.668 0.674316H99.2821L63.5866 14.9521V31.104L72.6189 27.4911V34.5453H0.36084V79.7066H4.87697V122.61H0.36084V140.674H83.9092H86.1673H117.78H120.038H140.361V122.61H131.329V27.4933L140.361 31.1063ZM4.87697 39.0614H72.6189V75.1904H4.87697V39.0614ZM72.6189 79.7066V122.61H9.3931V79.7066H72.6189ZM81.6512 136.158H77.135V131.642H72.6189V136.158H68.1028V131.642H63.5866V136.158H50.0383V131.642H45.5221V136.158H41.006V131.642H36.4899V136.158H31.9737V131.642H27.4576V136.158H22.9415V131.642H18.4254V136.158H13.9092V131.642H9.3931V136.158H4.87697V127.126H72.6189H81.6512V136.158ZM117.78 131.642V136.158H86.1673V127.126H117.78V131.642ZM86.1673 86.4808V81.9646H117.78V86.4808H86.1673ZM113.264 90.9969V122.61H90.6834V90.9969H113.264ZM117.78 122.61V90.9969H122.296V77.4485H81.6512V90.9969H86.1673V122.61H77.135V25.6869L100.149 16.4808H103.798L126.812 25.6869V122.61H117.78ZM135.845 127.126V136.158H131.329V131.642H126.812V136.158H122.296V131.642V127.126H131.329H135.845ZM104.668 11.9646H99.2821L68.1028 24.4359V18.0095L100.149 5.19045H103.798L135.845 18.0095V24.4382L104.668 11.9646Z" fill="white"/>
<path d="M99.7157 43.5777C99.7157 38.5964 95.6647 34.5454 90.6834 34.5454C85.7022 34.5454 81.6512 38.5964 81.6512 43.5777V63.9002H99.7157V43.5777ZM95.1996 59.3841H86.1673V43.5777C86.1673 41.087 88.1928 39.0615 90.6834 39.0615C93.1741 39.0615 95.1996 41.087 95.1996 43.5777V59.3841Z" fill="white"/>
<path d="M113.264 34.5454C108.283 34.5454 104.232 38.5964 104.232 43.5777V63.9002H122.296V43.5777C122.296 38.5964 118.245 34.5454 113.264 34.5454ZM117.78 59.3841H108.748V43.5777C108.748 41.087 110.773 39.0615 113.264 39.0615C115.755 39.0615 117.78 41.087 117.78 43.5777V59.3841Z" fill="white"/>
<path d="M36.4899 95.513C36.4899 90.5317 32.4389 86.4807 27.4576 86.4807C22.4763 86.4807 18.4254 90.5317 18.4254 95.513V115.836H36.4899V95.513ZM31.9737 111.319H22.9415V95.513C22.9415 93.0223 24.967 90.9968 27.4576 90.9968C29.9483 90.9968 31.9737 93.0223 31.9737 95.513V111.319Z" fill="white"/>
<path d="M63.5866 95.513C63.5866 90.5317 59.5356 86.4807 54.5544 86.4807C49.5731 86.4807 45.5221 90.5317 45.5221 95.513V115.836H63.5866V95.513ZM59.0705 111.319H50.0382V95.513C50.0382 93.0223 52.0637 90.9968 54.5544 90.9968C57.045 90.9968 59.0705 93.0223 59.0705 95.513V111.319Z" fill="white"/>
<path d="M122.296 68.4163H81.6512V72.9324H122.296V68.4163Z" fill="white"/>
</svg>
