<svg width="141" height="141" viewBox="0 0 141 141" fill="none" xmlns="http://www.w3.org/2000/svg">
<path d="M137.337 66.2558H134.48V60.0336H128.765V66.2558H104.48V10.2557C104.48 8.53744 103.2 7.1446 101.622 7.1446H98.7653V0.922363H93.051V7.1446H47.3366V0.922363H41.6223V7.1446H38.7652C37.1872 7.1446 35.908 8.53744 35.908 10.2557V66.2558H11.6224V60.0336H5.90811V66.2558H3.05097C1.47296 66.2558 0.193817 67.6487 0.193817 69.3667V137.811C0.193817 139.53 1.47296 140.922 3.05097 140.922H38.7652H101.622H137.337C138.914 140.922 140.194 139.53 140.194 137.811V69.3667C140.194 67.6487 138.914 66.2558 137.337 66.2558ZM35.908 134.7H5.90811V84.9222H28.7653V78.7H5.90811V72.4778H35.908V134.7ZM78.7653 134.7H61.6224V112.922H67.3367V128.478H73.051V112.922H78.7653V134.7ZM98.7653 69.3667V134.7H84.4796V112.922H88.7654V106.7H51.6225V112.922H55.9081V134.7H41.6223V69.3667V25.8113H93.051V19.5891H41.6223V13.3668H98.7653V69.3667ZM134.48 78.7H111.622V84.9222H134.48V134.7H104.48V72.4778H134.48V78.7Z" fill="white"/>
<path d="M15.908 91.1445H10.1937V97.3668H15.908V91.1445Z" fill="white"/>
<path d="M24.4794 91.1445H18.7651V97.3668H24.4794V91.1445Z" fill="white"/>
<path d="M33.0509 91.1445H27.3366V97.3668H33.0509V91.1445Z" fill="white"/>
<path d="M15.908 102.034H10.1937V108.256H15.908V102.034Z" fill="white"/>
<path d="M24.4794 102.034H18.7651V108.256H24.4794V102.034Z" fill="white"/>
<path d="M33.0509 102.034H27.3366V108.256H33.0509V102.034Z" fill="white"/>
<path d="M15.908 112.922H10.1937V119.145H15.908V112.922Z" fill="white"/>
<path d="M24.4794 112.922H18.7651V119.145H24.4794V112.922Z" fill="white"/>
<path d="M33.0509 112.922H27.3366V119.145H33.0509V112.922Z" fill="white"/>
<path d="M15.908 123.811H10.1937V130.034H15.908V123.811Z" fill="white"/>
<path d="M24.4794 123.811H18.7651V130.034H24.4794V123.811Z" fill="white"/>
<path d="M33.0509 123.811H27.3366V130.034H33.0509V123.811Z" fill="white"/>
<path d="M55.9081 35.1447H50.1938V41.3669H55.9081V35.1447Z" fill="white"/>
<path d="M67.3367 35.1447H61.6224V41.3669H67.3367V35.1447Z" fill="white"/>
<path d="M78.7653 35.1447H73.051V41.3669H78.7653V35.1447Z" fill="white"/>
<path d="M55.9081 46.0334H50.1938V52.2557H55.9081V46.0334Z" fill="white"/>
<path d="M67.3367 46.0334H61.6224V52.2557H67.3367V46.0334Z" fill="white"/>
<path d="M78.7653 46.0334H73.051V52.2557H78.7653V46.0334Z" fill="white"/>
<path d="M55.9081 56.9225H50.1938V63.1447H55.9081V56.9225Z" fill="white"/>
<path d="M67.3367 56.9225H61.6224V63.1447H67.3367V56.9225Z" fill="white"/>
<path d="M78.7653 56.9225H73.051V63.1447H78.7653V56.9225Z" fill="white"/>
<path d="M55.9081 67.8113H50.1938V74.0335H55.9081V67.8113Z" fill="white"/>
<path d="M67.3367 67.8113H61.6224V74.0335H67.3367V67.8113Z" fill="white"/>
<path d="M78.7653 67.8113H73.051V74.0335H78.7653V67.8113Z" fill="white"/>
<path d="M90.1939 35.1447H84.4796V41.3669H90.1939V35.1447Z" fill="white"/>
<path d="M90.1939 46.0334H84.4796V52.2557H90.1939V46.0334Z" fill="white"/>
<path d="M90.1939 56.9225H84.4796V63.1447H90.1939V56.9225Z" fill="white"/>
<path d="M90.1939 67.8113H84.4796V74.0335H90.1939V67.8113Z" fill="white"/>
<path d="M55.9081 78.7H50.1938V84.9222H55.9081V78.7Z" fill="white"/>
<path d="M67.3367 78.7H61.6224V84.9222H67.3367V78.7Z" fill="white"/>
<path d="M78.7653 78.7H73.051V84.9222H78.7653V78.7Z" fill="white"/>
<path d="M55.9081 89.5891H50.1938V95.8113H55.9081V89.5891Z" fill="white"/>
<path d="M67.3367 89.5891H61.6224V95.8113H67.3367V89.5891Z" fill="white"/>
<path d="M78.7653 89.5891H73.051V95.8113H78.7653V89.5891Z" fill="white"/>
<path d="M90.1939 78.7H84.4796V84.9222H90.1939V78.7Z" fill="white"/>
<path d="M90.1939 89.5891H84.4796V95.8113H90.1939V89.5891Z" fill="white"/>
<path d="M113.051 91.1445H107.337V97.3668H113.051V91.1445Z" fill="white"/>
<path d="M121.623 91.1445H115.908V97.3668H121.623V91.1445Z" fill="white"/>
<path d="M130.194 91.1445H124.48V97.3668H130.194V91.1445Z" fill="white"/>
<path d="M113.051 102.034H107.337V108.256H113.051V102.034Z" fill="white"/>
<path d="M121.623 102.034H115.908V108.256H121.623V102.034Z" fill="white"/>
<path d="M130.194 102.034H124.48V108.256H130.194V102.034Z" fill="white"/>
<path d="M113.051 112.922H107.337V119.145H113.051V112.922Z" fill="white"/>
<path d="M121.623 112.922H115.908V119.145H121.623V112.922Z" fill="white"/>
<path d="M130.194 112.922H124.48V119.145H130.194V112.922Z" fill="white"/>
<path d="M113.051 123.811H107.337V130.034H113.051V123.811Z" fill="white"/>
<path d="M121.623 123.811H115.908V130.034H121.623V123.811Z" fill="white"/>
<path d="M130.194 123.811H124.48V130.034H130.194V123.811Z" fill="white"/>
</svg>
