<svg width="141" height="141" viewBox="0 0 141 141" fill="none" xmlns="http://www.w3.org/2000/svg">
<path d="M140.133 40.0335V26.169L73.1904 0.779343L72.8043 0.632568H67.4617L0.133011 26.1713V40.0358L4.64914 38.3219V136.116H0.133011V140.633H140.133V136.116H135.617V38.3219L140.133 40.0335ZM110.778 136.116H29.4878V63.8584H110.778V136.116ZM131.101 136.116H115.294V59.3422H24.9717V136.116H9.16527V36.6081L68.2904 14.181H71.9778L131.101 36.6081V136.116ZM73.1904 9.8116L72.8043 9.66483H67.4617L4.64914 33.4897V29.2874L68.2904 5.1487H71.9778L135.617 29.2874V33.4874L73.1904 9.8116Z" fill="white"/>
<path d="M34.004 54.8261H106.262V32.2455H34.004V54.8261ZM38.5201 36.7616H101.746V50.31H38.5201V36.7616Z" fill="white"/>
<path d="M97.2298 41.2777H92.7137V45.7938H97.2298V41.2777Z" fill="white"/>
<path d="M88.1975 41.2777H43.0362V45.7938H88.1975V41.2777Z" fill="white"/>
<path d="M106.262 86.439H34.004V131.6H106.262V86.439ZM47.5524 90.9551H52.0685V104.503H47.5524V90.9551ZM61.1008 127.084H38.5201V90.9551H43.0362V109.02H56.5846V90.9551H61.1008V127.084ZM101.746 127.084H65.6169V90.9551H101.746V127.084Z" fill="white"/>
<path d="M74.6491 118.052H70.133V122.568H74.6491V118.052Z" fill="white"/>
<path d="M83.6814 118.052H79.1653V122.568H83.6814V118.052Z" fill="white"/>
<path d="M74.6491 109.02H70.133V113.536H74.6491V109.02Z" fill="white"/>
</svg>
