<svg width="78" height="10" viewBox="0 0 78 10" fill="none" xmlns="http://www.w3.org/2000/svg">
<path d="M32.2148 4.49995L31.1484 4.49995L31.1484 3.9604C31.1484 3.68404 30.9248 3.4604 30.6484 3.4604C30.3721 3.4604 30.1484 3.68404 30.1484 3.9604L30.1484 4.49995L5.83008 4.49996C5.55371 4.49996 5.33008 4.72359 5.33008 4.99996C5.33008 5.27632 5.55371 5.49996 5.83008 5.49996L30.1484 5.49995L30.1484 6.03951C30.1484 6.31587 30.3721 6.53951 30.6484 6.53951C30.9248 6.53951 31.1484 6.31587 31.1484 6.03951L31.1484 5.49995L32.2148 5.49995C32.4912 5.49995 32.7148 5.27632 32.7148 4.99995C32.7148 4.72359 32.4912 4.49995 32.2148 4.49995Z" fill="#EBE2D1"/>
<path d="M72.1699 4.49997L47.8516 4.49997L47.8516 3.96042C47.8516 3.68405 47.6279 3.46042 47.3516 3.46042C47.0752 3.46042 46.8516 3.68405 46.8516 3.96042L46.8516 4.49997L45.7852 4.49997C45.5088 4.49997 45.2852 4.7236 45.2852 4.99997C45.2852 5.27634 45.5088 5.49997 45.7852 5.49997L46.8516 5.49997L46.8516 6.03952C46.8516 6.31589 47.0752 6.53952 47.3516 6.53952C47.6279 6.53952 47.8516 6.31589 47.8516 6.03952L47.8516 5.49997L72.1699 5.49997C72.4463 5.49997 72.6699 5.27634 72.6699 4.99997C72.6699 4.7236 72.4463 4.49997 72.1699 4.49997Z" fill="#EBE2D1"/>
<path d="M34.8105 5.35345L38.6465 9.18939C38.7441 9.28705 38.8721 9.33588 39 9.33588C39.1279 9.33588 39.2559 9.28705 39.3535 9.18939L43.1895 5.35345C43.3848 5.15814 43.3848 4.84174 43.1895 4.64642L39.3535 0.810486C39.1582 0.615173 38.8418 0.615173 38.6465 0.810486L34.8105 4.64642C34.6152 4.84174 34.6152 5.15814 34.8105 5.35345ZM39 1.87103L42.1289 4.99994L39 8.12885L35.8711 4.99994L39 1.87103Z" fill="#EBE2D1"/>
<path d="M39.3535 6.61078L40.6113 5.35345C40.7051 5.2597 40.7578 5.13275 40.7578 4.99994C40.7578 4.86713 40.7051 4.74017 40.6113 4.64642L39.3535 3.3891C39.1582 3.19379 38.8418 3.19379 38.6465 3.3891L37.3887 4.64642C37.2949 4.74017 37.2422 4.86713 37.2422 4.99994C37.2422 5.13275 37.2949 5.2597 37.3887 5.35345L38.6465 6.61078C38.7441 6.70844 38.8721 6.75726 39 6.75726C39.1279 6.75726 39.2559 6.70844 39.3535 6.61078ZM38.4492 4.99994L39 4.44965L39.5508 4.99994L39 5.55023L38.4492 4.99994Z" fill="#EBE2D1"/>
<path d="M75.3652 6.84027C75.459 6.93402 75.5859 6.98676 75.7188 6.98676C75.8516 6.98676 75.9785 6.93402 76.0723 6.84027L77.5596 5.35345C77.6533 5.2597 77.7061 5.13275 77.7061 4.99994C77.7061 4.86713 77.6533 4.74017 77.5596 4.64642L76.0723 3.15961C75.8848 2.97211 75.5527 2.97211 75.3652 3.15961L73.8789 4.64642C73.6836 4.84174 73.6836 5.15814 73.8789 5.35345L75.3652 6.84027ZM75.7188 4.22015L76.499 4.99994L75.7188 5.77972L74.9395 4.99994L75.7188 4.22015Z" fill="#EBE2D1"/>
<path d="M1.92773 6.84027C2.02148 6.93402 2.14844 6.98676 2.28125 6.98676C2.41406 6.98676 2.54102 6.93402 2.63477 6.84027L4.12109 5.35345C4.31641 5.15814 4.31641 4.84174 4.12109 4.64642L2.63477 3.15961C2.54102 3.06586 2.41406 3.01312 2.28125 3.01312C2.14844 3.01312 2.02148 3.06586 1.92773 3.15961L0.44043 4.64642C0.34668 4.74017 0.293945 4.86713 0.293945 4.99994C0.293945 5.13275 0.34668 5.2597 0.44043 5.35345L1.92773 6.84027ZM2.28125 4.22015L3.06055 4.99994L2.28125 5.77972L1.50098 4.99994L2.28125 4.22015Z" fill="#EBE2D1"/>
</svg>
