<svg width="141" height="140" viewBox="0 0 141 140" fill="none" xmlns="http://www.w3.org/2000/svg">
<path d="M135.276 71.395H137.024L140.381 51.7934H137.515V35.4587H103.948V28.9246H99.4721V35.4587H90.5208V22.3899H72.6186V11.195H90.5208V5.59749V0L72.6186 3.54048e-05L68.1429 0.000140643V22.3899H50.2407V35.458H41.2899V28.9239H36.8142V35.458H5.4855V51.7927H0.380981L3.73761 71.3943H5.4855V107.33H1.00983V140H139.752V107.33H135.276V71.395ZM126.325 84.4624V71.3943H130.801V84.4624H126.325ZM130.801 90.9964V107.331H126.325V90.9964H130.801ZM90.5208 64.8616V58.3275H134.648L133.529 64.8616H90.5208ZM117.374 84.4624V71.3943H121.85V84.4624H117.374ZM121.85 90.9964V107.331H117.374V90.9964H121.85ZM108.423 84.4624V71.3943H112.899V84.4624H108.423ZM112.899 90.9964V107.331H108.423V90.9964H112.899ZM99.4721 84.4624V71.3943H103.948V84.4624H99.4721ZM103.948 90.9964V107.331H99.4721V90.9964H103.948ZM94.9964 71.395V84.4631H90.5208V71.395H94.9964ZM133.039 41.992V51.7927H93.618L86.1595 41.992H133.039ZM86.0456 28.9246V35.4587H81.1849L76.2128 28.9246H86.0456ZM70.381 30.0543L86.927 51.7927H53.8349L70.381 30.0543ZM54.7169 64.8616V58.3275H86.0456V64.8616H54.7169ZM86.0451 71.395V107.331H79.3318V71.395H86.0451ZM74.8567 71.395V107.331H65.9053V71.395H74.8567ZM61.4297 71.395V107.331H54.7164V71.395H61.4297ZM64.5492 28.9246L59.577 35.4587H54.7164V28.9246H64.5492ZM9.96068 41.992H54.6044L47.1459 51.7927H9.96068V41.992ZM45.7655 84.4624V71.3943H50.2412V84.4624H45.7655ZM50.2407 90.9964V107.331H45.7651V90.9964H50.2407ZM50.2407 58.3261V64.8602H7.23291L6.11387 58.3261H50.2407ZM36.8142 84.4624V71.3943H41.2899V84.4624H36.8142ZM41.2899 90.9964V107.331H36.8142V90.9964H41.2899ZM27.8634 90.9964H32.339V107.331H27.8634V90.9964ZM27.8629 84.4624V71.3943H32.3385V84.4624H27.8629ZM18.912 84.4624V71.3943H23.3877V84.4624H18.912ZM23.3877 90.9964V107.331H18.912V90.9964H23.3877ZM9.96068 84.4624V71.3943H14.4364V84.4624H9.96068ZM14.4364 90.9964V107.331H9.96068V90.9964H14.4364ZM45.7655 133.467H5.4855V113.865H45.7655V133.467ZM90.5208 133.466H83.8075V123.666H79.3318V133.467H61.4297V123.666H56.954V133.467H50.2407V113.865H90.5208V133.466ZM90.5208 90.9964H94.9964V107.331H90.5208V90.9964ZM135.276 133.467H94.9964V113.865H135.276V133.467Z" fill="white"/>
<path d="M41.9184 122.44H37.4427V128.974H41.9184V122.44Z" fill="white"/>
<path d="M32.9676 122.44H28.4919V128.974H32.9676V122.44Z" fill="white"/>
<path d="M24.0162 122.44H19.5405V128.974H24.0162V122.44Z" fill="white"/>
<path d="M15.0649 122.44H10.5892V128.974H15.0649V122.44Z" fill="white"/>
<path d="M131.429 122.44H126.954V128.974H131.429V122.44Z" fill="white"/>
<path d="M122.478 122.44H118.003V128.974H122.478V122.44Z" fill="white"/>
<path d="M113.527 122.44H109.052V128.974H113.527V122.44Z" fill="white"/>
<path d="M104.576 122.44H100.101V128.974H104.576V122.44Z" fill="white"/>
<path d="M73.2471 37.5H68.7714V44.034H73.2471V37.5Z" fill="white"/>
</svg>
