<?xml version="1.0" encoding="iso-8859-1"?>
<!-- Uploaded to: SVG Repo, www.svgrepo.com, Generator: SVG Repo Mixer Tools -->
<svg fill="#000000" height="800px" width="800px" version="1.1" id="Layer_1" xmlns="http://www.w3.org/2000/svg" xmlns:xlink="http://www.w3.org/1999/xlink" 
	 viewBox="0 0 512 512" xml:space="preserve">
<g>
	<g>
		<g>
			<path d="M417.616,353.666c-0.829-10.837-9.892-19.408-20.937-19.408h-20.948c-8.596,0-15.994,5.193-19.247,12.602H335.31
				l-27.034-10.121v-9.636c31.732-13.771,53.991-45.397,53.991-82.135v-1.663c14.84-3.638,25.887-17.045,25.887-32.99
				c0-1.524-0.111-3.021-0.306-4.493v-44.267c3.995-4.028,6.468-9.567,6.468-15.675v-3.487c0-11.148-8.238-20.381-18.941-22
				c-4.178-25.79-16.65-49.128-34.762-66.912v-5.015c0-4.466-3.618-8.084-8.084-8.084c-1.951,0-3.739,0.691-5.136,1.841
				c-10.398-7.639-22.086-13.66-34.711-17.68v-2.157C292.682,10.041,282.641,0,270.298,0h-28.599
				c-12.342,0-22.384,10.041-22.384,22.385v2.157c-12.625,4.019-24.313,10.041-34.711,17.68c-1.396-1.15-3.185-1.841-5.135-1.841
				c-4.466,0-8.084,3.618-8.084,8.084v5.015c-18.112,17.784-30.584,41.124-34.762,66.914c-10.701,1.619-18.94,10.853-18.94,22v3.487
				c0,5.945,2.354,11.339,6.162,15.338v49.096c0,15.945,11.046,29.352,25.887,32.99v1.663c0,36.738,22.258,68.363,53.991,82.134
				v9.626l-27.06,10.133h-21.201c-3.253-7.409-10.651-12.602-19.247-12.602h-20.948c-11.053,0-20.12,8.582-20.938,19.429
				c-34.78,14.103-57.773,47.873-57.773,85.802v51.491c0,11.59,9.429,21.019,21.019,21.019h44.757h46.817h155.747
				c4.466,0,8.084-3.618,8.084-8.084c0-4.466-3.618-8.084-8.084-8.084H157.259v-18.343h197.453v18.343h-20.714
				c-4.466,0-8.084,3.619-8.084,8.084c0,4.466,3.618,8.084,8.084,8.084h28.798h46.817h44.811c11.59,0,21.019-9.429,21.019-21.019
				v-51.492C475.443,401.534,452.43,367.755,417.616,353.666z M94.246,409.917v85.915H57.573c-2.675,0-4.851-2.176-4.851-4.851
				v-51.492c0-29.01,16.291-55.086,41.524-68.018V409.917z M141.064,495.832h-30.649v-77.829h30.649V495.832z M141.065,401.835
				h-30.649v-42.509v-4.047h-0.001c0-2.674,2.176-4.851,4.851-4.851h20.948c2.63,0,4.766,2.107,4.838,4.721
				c0,0.009-0.001,0.017,0,0.026c0.003,0.102,0.008,0.203,0.014,0.308V401.835z M321.741,359.045l-33.111,52.871l-21.004-14.555
				l35.297-45.362L321.741,359.045z M362.267,226.172V194.5c3.085,1.591,5.682,4.046,7.409,7.073
				c0.006,0.012,0.014,0.024,0.021,0.036c0.494,0.87,0.912,1.787,1.255,2.741c0.044,0.123,0.081,0.248,0.123,0.372
				c0.11,0.33,0.21,0.663,0.301,1.001c0.044,0.165,0.087,0.331,0.126,0.498c0.082,0.346,0.152,0.697,0.212,1.051
				c0.171,0.991,0.272,2.005,0.272,3.044C371.985,217.222,368.032,223.222,362.267,226.172z M362.268,177.298v-9.14h9.411v12.972
				C368.79,179.407,365.625,178.105,362.268,177.298z M340.613,78.086c9.011,12.331,15.383,26.638,18.321,42.029h-18.321V78.086z
				 M292.681,41.623c11.765,4.403,22.485,10.858,31.763,18.891v59.601h-31.763V41.623z M241.699,16.168h28.599
				c3.428,0,6.216,2.789,6.216,6.216v8.208v89.522h-41.029V30.593v-8.208h-0.001C235.484,18.957,238.272,16.168,241.699,16.168z
				 M187.552,60.514c9.279-8.034,19.999-14.488,31.763-18.891v78.492h-31.763V60.514z M171.384,78.086v42.028h-18.321
				C156.002,104.725,162.374,90.417,171.384,78.086z M149.73,226.172c-5.763-2.95-9.717-8.951-9.717-15.858
				c0-0.548,0.033-1.088,0.082-1.623c0.013-0.146,0.03-0.291,0.046-0.435c0.051-0.44,0.117-0.874,0.199-1.304
				c0.019-0.098,0.032-0.198,0.053-0.296c0.107-0.511,0.238-1.014,0.389-1.508c0.037-0.119,0.078-0.236,0.116-0.354
				c0.13-0.397,0.274-0.788,0.43-1.172c0.049-0.12,0.095-0.24,0.147-0.359c0.204-0.471,0.425-0.933,0.667-1.383
				c0.034-0.064,0.073-0.124,0.109-0.188c0.217-0.39,0.45-0.77,0.694-1.14c0.076-0.114,0.152-0.229,0.23-0.342
				c0.269-0.388,0.55-0.769,0.848-1.134c0.025-0.031,0.048-0.064,0.073-0.095c0.324-0.392,0.669-0.765,1.026-1.129
				c0.093-0.094,0.188-0.185,0.282-0.277c0.297-0.29,0.606-0.57,0.923-0.839c0.082-0.069,0.161-0.142,0.245-0.21
				c0.392-0.32,0.798-0.624,1.217-0.911c0.089-0.06,0.181-0.116,0.272-0.176c0.349-0.23,0.707-0.447,1.072-0.652
				c0.115-0.065,0.23-0.13,0.347-0.193c0.081-0.043,0.167-0.079,0.249-0.121V226.172z M149.732,177.317h-0.001
				c-0.05,0.012-0.097,0.03-0.147,0.042c-0.753,0.189-1.496,0.403-2.228,0.641c-0.156,0.051-0.31,0.106-0.466,0.158
				c-0.716,0.244-1.424,0.506-2.117,0.794c-0.039,0.016-0.079,0.03-0.116,0.046c-0.721,0.304-1.426,0.639-2.121,0.992
				c-0.15,0.075-0.3,0.152-0.448,0.231c-0.677,0.356-1.344,0.728-1.993,1.126c-0.026,0.016-0.054,0.029-0.081,0.045v-13.234h9.718
				V177.317z M139.96,151.99c-3.368,0-6.108-2.741-6.108-6.109v-3.487h-0.001c0-3.368,2.74-6.109,6.108-6.109h3.761h83.68h57.197
				h83.679h3.761c3.368,0,6.109,2.741,6.109,6.109v3.487c0,3.368-2.741,6.109-6.109,6.109h-17.854H157.815H139.96z M165.899,244.968
				V236.2v-51.77v-16.272h180.2v16.272v51.77v8.768c0,34.005-23.271,62.673-54.723,70.931c-0.291,0.077-0.584,0.147-0.876,0.219
				c-0.791,0.197-1.587,0.382-2.388,0.552c-0.33,0.07-0.659,0.142-0.99,0.208c-0.952,0.19-1.91,0.362-2.875,0.515
				c-0.13,0.021-0.26,0.046-0.391,0.067c-1.08,0.165-2.17,0.3-3.264,0.416c-0.324,0.034-0.65,0.061-0.974,0.092
				c-0.821,0.077-1.646,0.14-2.475,0.189c-0.334,0.019-0.668,0.041-1.004,0.056c-1.119,0.051-2.242,0.085-3.374,0.085h-33.54
				c-1.131,0-2.254-0.034-3.373-0.085c-0.335-0.015-0.67-0.037-1.005-0.056c-0.827-0.049-1.65-0.112-2.469-0.189
				c-0.327-0.03-0.654-0.057-0.981-0.093c-1.093-0.116-2.18-0.251-3.257-0.415c-0.138-0.022-0.276-0.049-0.414-0.071
				c-0.956-0.151-1.906-0.322-2.849-0.51c-0.335-0.067-0.668-0.139-1.002-0.21c-0.795-0.17-1.587-0.354-2.373-0.549
				c-0.295-0.073-0.592-0.144-0.886-0.221C189.168,307.638,165.899,278.972,165.899,244.968z M209.047,351.998l35.297,45.362
				l-21.004,14.555l-33.111-52.871L209.047,351.998z M247.887,461.324h-90.655v-0.003v-51.403V363.03h16.416l40.484,64.645
				c1.173,1.872,3.06,3.183,5.225,3.628c0.271,0.055,0.541,0.097,0.813,0.124c0.125,0.013,0.25,0.012,0.375,0.019
				c0.147,0.008,0.293,0.023,0.44,0.023c0,0,0.001,0,0.002,0c0.363,0,0.723-0.033,1.081-0.082c0.088-0.012,0.177-0.026,0.265-0.04
				c0.713-0.121,1.407-0.336,2.066-0.643c0.081-0.038,0.161-0.077,0.24-0.117c0.326-0.165,0.646-0.345,0.949-0.555l22.299-15.452
				V461.324z M219.889,339.568v-7.209c0.307,0.068,0.617,0.126,0.924,0.191c0.253,0.054,0.507,0.107,0.76,0.158
				c1.23,0.247,2.465,0.469,3.706,0.664c0.253,0.04,0.507,0.077,0.761,0.114c1.27,0.189,2.544,0.354,3.822,0.487
				c0.207,0.022,0.414,0.039,0.621,0.059c1.342,0.132,2.687,0.237,4.037,0.308c0.123,0.006,0.246,0.009,0.369,0.015
				c1.443,0.069,2.89,0.11,4.34,0.11h0.001h0.001h33.539h0.001c1.452,0,2.9-0.041,4.345-0.11c0.12-0.005,0.24-0.009,0.36-0.015
				c1.354-0.07,2.703-0.178,4.05-0.309c0.202-0.019,0.404-0.037,0.606-0.057c1.284-0.135,2.563-0.3,3.839-0.489
				c0.247-0.037,0.495-0.073,0.74-0.111c1.246-0.196,2.488-0.418,3.724-0.667c0.248-0.05,0.494-0.101,0.741-0.153
				c0.312-0.066,0.623-0.124,0.935-0.193v7.209L256,385.977L219.889,339.568z M354.712,409.916v51.403h-90.656v-46.761
				l22.328,15.471c0.304,0.21,0.623,0.39,0.949,0.555c0.08,0.041,0.16,0.08,0.24,0.117c0.66,0.307,1.353,0.523,2.066,0.643
				c0.088,0.015,0.176,0.028,0.265,0.04c0.358,0.049,0.719,0.082,1.081,0.082c0,0,0.001,0,0.002,0c0.147,0,0.293-0.014,0.44-0.023
				c0.125-0.007,0.25-0.007,0.375-0.019c0.272-0.028,0.543-0.069,0.813-0.124c2.164-0.445,4.052-1.756,5.225-3.628l40.484-64.645
				h16.389V409.916z M370.88,355.483c0.006-0.103,0.011-0.205,0.014-0.309c0-0.009-0.001-0.017,0-0.026
				c0.069-2.614,2.205-4.72,4.837-4.72h20.948c2.674,0,4.851,2.176,4.851,4.851v4.029v42.526H370.88V355.483z M401.529,495.832
				h-0.001h-30.621v-26.427c0-0.183-0.015-0.362-0.027-0.542v-50.86h30.649V495.832z M459.274,490.981
				c0,2.674-2.176,4.851-4.851,4.851h-36.727v-85.914v-38.474c25.265,12.922,41.578,39.009,41.578,68.046V490.981z"/>
			<circle cx="214.704" cy="220.343" r="10.779"/>
			<circle cx="297.293" cy="220.343" r="10.779"/>
			<path d="M284.855,201.372c0.132-0.055,13.681-5.202,29.804,0.175c0.848,0.282,1.711,0.417,2.558,0.417
				c3.385,0,6.539-2.142,7.668-5.53c1.412-4.236-0.876-8.815-5.112-10.226c-21.978-7.328-40.215-0.135-40.982,0.175
				c-4.139,1.675-6.136,6.387-4.464,10.527C276.002,201.047,280.708,203.045,284.855,201.372z"/>
			<path d="M227.127,201.388c4.136,1.648,8.817-0.355,10.486-4.48c1.674-4.139-0.324-8.852-4.465-10.526
				c-0.764-0.308-19.004-7.499-40.982-0.175c-4.236,1.412-6.524,5.991-5.112,10.226c1.13,3.388,4.284,5.53,7.668,5.53
				c0.847,0,1.71-0.135,2.558-0.417C213.299,196.207,226.817,201.27,227.127,201.388z"/>
			<path d="M228.971,260.918c-3.929,2.121-5.393,7.027-3.27,10.955c5.552,10.281,17.435,16.924,30.271,16.924
				s24.718-6.643,30.271-16.924c2.122-3.929,0.657-8.833-3.27-10.955c-3.931-2.122-8.834-0.656-10.955,3.27
				c-2.769,5.128-9.067,8.44-16.046,8.44s-13.275-3.312-16.046-8.44C237.805,260.262,232.902,258.797,228.971,260.918z"/>
			<path d="M255.971,251.83c4.466,0,8.084-3.619,8.084-8.084V215.72c0-4.466-3.618-8.084-8.084-8.084
				c-4.466,0-8.084,3.619-8.084,8.084v28.025C247.887,248.21,251.507,251.83,255.971,251.83z"/>
		</g>
	</g>
</g>
</svg>