<?xml version="1.0" encoding="iso-8859-1"?>
<!-- Uploaded to: SVG Repo, www.svgrepo.com, Generator: SVG Repo Mixer Tools -->
<svg fill="#000000" height="800px" width="800px" version="1.1" id="Layer_1" xmlns="http://www.w3.org/2000/svg" xmlns:xlink="http://www.w3.org/1999/xlink" 
	 viewBox="0 0 512 512" xml:space="preserve">
<g>
	<g>
		<g>
			<path d="M417.615,353.666c-0.829-10.837-9.892-19.408-20.937-19.408H375.73c-8.08,0-15.099,4.59-18.616,11.293l-22.744-4.577
				h-0.001l-26.091-5.252v-6.002c44.17-13.574,76.371-54.752,76.371-103.313v-44.576h8.422c11.59,0,21.019-9.429,21.019-21.019
				V115.16c0-11.59-9.429-21.019-21.019-21.019h-8.422V72.543c0-18.725-15.234-33.96-33.958-33.96h-8.76V21.019
				C341.93,9.429,332.501,0,320.911,0H187.657c-11.59,0-21.019,9.429-21.019,21.019v17.564h-5.328
				c-18.725,0-33.96,15.235-33.96,33.96v21.598h-8.422c-11.589,0-21.019,9.429-21.019,21.019v45.653
				c0,11.59,9.429,21.019,21.019,21.019h8.422v44.576c0,48.562,32.202,89.74,76.373,103.314v6.001l-26.095,5.246
				c-0.001,0-0.002,0.001-0.003,0.001l-22.794,4.583c-3.516-6.705-10.535-11.295-18.616-11.295h-20.948
				c-11.053,0-20.12,8.582-20.938,19.429c-34.78,14.103-57.773,47.874-57.773,85.802v51.492c0,11.59,9.429,21.019,21.019,21.019
				h44.757h46.817h155.747c4.466,0,8.084-3.618,8.084-8.084c0-4.466-3.619-8.084-8.084-8.084H157.259v-18.343h197.453v18.343
				h-20.714c-4.466,0-8.084,3.619-8.084,8.084c0,4.466,3.619,8.084,8.084,8.084h28.798h46.817h44.812
				c11.59,0,21.019-9.429,21.019-21.019v-51.492C475.444,401.534,452.428,367.755,417.615,353.666z M384.647,110.31h8.422
				c2.674,0,4.851,2.176,4.851,4.851v45.653c0,2.674-2.176,4.851-4.851,4.851h-8.422V110.31z M127.349,165.663h-8.422
				c-2.674,0-4.851-2.176-4.851-4.851v-45.653c0-2.674,2.176-4.851,4.851-4.851h8.422V165.663z M94.245,409.917v85.915H57.572
				c-2.674,0-4.851-2.176-4.851-4.851v-51.492c0-29.01,16.291-55.086,41.524-68.018V409.917z M141.064,495.832h-30.649v-77.829
				h30.649V495.832z M141.065,401.834h-30.649v-42.509v-4.046h-0.001c0-2.674,2.176-4.851,4.851-4.851h20.948
				c2.638,0,4.78,2.118,4.84,4.742c0.001,0.027-0.001,0.054,0,0.081c0.003,0.074,0.008,0.149,0.012,0.226V401.834z M143.517,226.409
				v-52.661v-71.523V72.543c0-9.811,7.981-17.792,17.792-17.792h121.815c4.466,0,8.084-3.618,8.084-8.084
				c0-4.466-3.619-8.084-8.084-8.084H182.806V21.019c0-2.674,2.176-4.851,4.851-4.851h133.255c2.674,0,4.851,2.176,4.851,4.851
				v17.564h-13.535c-4.466,0-8.084,3.618-8.084,8.084c0,4.466,3.619,8.084,8.084,8.084h38.464c9.81,0,17.79,7.981,17.79,17.792
				v29.682v71.523v52.661c0,44.287-31.495,81.355-73.263,89.988c-0.14,0.029-0.281,0.054-0.423,0.082
				c-1.285,0.259-2.579,0.49-3.883,0.695c-0.162,0.025-0.321,0.055-0.483,0.08c-1.312,0.199-2.634,0.362-3.963,0.506
				c-0.303,0.032-0.605,0.065-0.908,0.095c-1.314,0.128-2.634,0.231-3.963,0.303c-0.25,0.013-0.5,0.022-0.75,0.033
				c-1.411,0.065-2.827,0.108-4.253,0.108h-41.185c-1.428,0-2.846-0.043-4.259-0.108c-0.247-0.012-0.494-0.019-0.742-0.033
				c-1.334-0.072-2.661-0.176-3.981-0.304c-0.292-0.028-0.584-0.059-0.876-0.091c-1.34-0.143-2.674-0.308-3.997-0.51
				c-0.143-0.022-0.285-0.047-0.428-0.07c-1.331-0.209-2.653-0.444-3.964-0.71c-0.12-0.024-0.24-0.045-0.36-0.07
				C175.022,307.776,143.517,270.703,143.517,226.409z M292.11,333.35v6.101c-0.069,0.08-0.138,0.157-0.211,0.241
				c-0.04,0.045-0.08,0.089-0.121,0.137c-0.129,0.146-0.267,0.297-0.409,0.454c-0.043,0.046-0.083,0.092-0.127,0.139
				c-0.162,0.177-0.332,0.36-0.509,0.549c-0.027,0.029-0.052,0.056-0.08,0.085c-0.417,0.442-0.873,0.913-1.368,1.406
				c-0.045,0.045-0.093,0.091-0.138,0.136c-0.198,0.197-0.402,0.396-0.612,0.599c-0.076,0.073-0.155,0.148-0.233,0.222
				c-0.188,0.179-0.378,0.359-0.575,0.542c-0.093,0.087-0.19,0.175-0.285,0.262c-0.188,0.172-0.379,0.347-0.575,0.523
				c-0.107,0.096-0.214,0.192-0.323,0.288c-0.196,0.174-0.396,0.348-0.599,0.523c-0.112,0.097-0.224,0.194-0.34,0.291
				c-0.211,0.18-0.428,0.36-0.647,0.541c-0.113,0.094-0.225,0.188-0.342,0.282c-0.239,0.195-0.485,0.391-0.733,0.586
				c-0.1,0.079-0.198,0.158-0.3,0.237c-0.333,0.26-0.674,0.52-1.021,0.779c-0.021,0.015-0.04,0.031-0.06,0.046
				c-0.373,0.277-0.755,0.554-1.144,0.83c-0.088,0.063-0.18,0.124-0.268,0.185c-0.299,0.209-0.599,0.417-0.908,0.623
				c-0.134,0.089-0.272,0.179-0.407,0.267c-0.268,0.177-0.538,0.352-0.813,0.527c-0.158,0.1-0.32,0.199-0.48,0.299
				c-0.26,0.161-0.523,0.321-0.788,0.48c-0.171,0.101-0.344,0.203-0.517,0.303c-0.266,0.154-0.535,0.307-0.806,0.458
				c-0.177,0.098-0.355,0.196-0.534,0.293c-0.277,0.15-0.558,0.296-0.841,0.443c-0.179,0.093-0.358,0.185-0.539,0.277
				c-0.3,0.15-0.605,0.296-0.91,0.441c-0.169,0.081-0.337,0.163-0.509,0.241c-0.358,0.165-0.722,0.324-1.089,0.482
				c-0.124,0.053-0.245,0.109-0.369,0.162c-0.494,0.208-0.994,0.409-1.502,0.6c-0.095,0.036-0.192,0.068-0.288,0.103
				c-0.412,0.153-0.827,0.302-1.248,0.444c-0.18,0.06-0.362,0.115-0.543,0.174c-0.342,0.11-0.683,0.219-1.029,0.32
				c-0.21,0.061-0.423,0.119-0.634,0.177c-0.326,0.091-0.652,0.178-0.983,0.261c-0.224,0.056-0.451,0.109-0.677,0.162
				c-0.324,0.075-0.651,0.147-0.98,0.214c-0.233,0.047-0.468,0.094-0.703,0.138c-0.332,0.063-0.667,0.119-1.004,0.172
				c-0.235,0.038-0.469,0.076-0.706,0.109c-0.349,0.05-0.703,0.091-1.056,0.132c-0.229,0.026-0.455,0.054-0.686,0.077
				c-0.39,0.037-0.785,0.064-1.18,0.088c-0.197,0.013-0.393,0.03-0.592,0.04c-0.596,0.028-1.196,0.045-1.803,0.045
				c-0.605,0-1.203-0.016-1.797-0.045c-0.195-0.01-0.387-0.027-0.582-0.039c-0.396-0.025-0.79-0.051-1.18-0.088
				c-0.23-0.022-0.456-0.051-0.683-0.077c-0.351-0.04-0.703-0.081-1.05-0.129c-0.237-0.033-0.472-0.071-0.707-0.109
				c-0.296-0.047-0.591-0.097-0.884-0.151c-0.036-0.007-0.072-0.012-0.108-0.018c-0.238-0.044-0.474-0.092-0.709-0.14
				c-0.322-0.066-0.641-0.136-0.959-0.209c-0.232-0.054-0.462-0.108-0.691-0.165c-0.319-0.08-0.636-0.165-0.951-0.251
				c-0.221-0.06-0.442-0.121-0.661-0.185c-0.323-0.095-0.643-0.196-0.961-0.298c-0.203-0.065-0.406-0.127-0.608-0.195
				c-0.346-0.116-0.687-0.239-1.027-0.363c-0.167-0.06-0.337-0.119-0.503-0.181c-0.501-0.19-0.998-0.386-1.486-0.592
				c-0.006-0.002-0.012-0.005-0.018-0.009c-0.484-0.203-0.96-0.415-1.431-0.631c-0.158-0.072-0.313-0.149-0.469-0.223
				c-0.316-0.15-0.632-0.3-0.941-0.455c-0.182-0.092-0.361-0.185-0.541-0.278c-0.277-0.143-0.554-0.287-0.826-0.433
				c-0.188-0.101-0.372-0.204-0.557-0.307c-0.26-0.144-0.518-0.29-0.774-0.438c-0.182-0.106-0.363-0.212-0.543-0.319
				c-0.25-0.149-0.499-0.3-0.744-0.451c-0.177-0.109-0.352-0.218-0.526-0.328c-0.244-0.154-0.483-0.309-0.721-0.465
				c-0.167-0.11-0.335-0.219-0.499-0.329c-0.244-0.164-0.483-0.328-0.72-0.493c-0.15-0.104-0.301-0.207-0.448-0.31
				c-0.26-0.183-0.514-0.369-0.766-0.553c-0.119-0.086-0.239-0.172-0.356-0.259c-0.733-0.544-1.434-1.092-2.102-1.635
				c-0.108-0.088-0.211-0.176-0.318-0.263c-0.223-0.184-0.446-0.369-0.663-0.552c-0.12-0.101-0.234-0.202-0.351-0.302
				c-0.196-0.168-0.391-0.337-0.58-0.504c-0.119-0.105-0.234-0.208-0.349-0.312c-0.18-0.162-0.359-0.322-0.532-0.482
				c-0.113-0.105-0.225-0.207-0.336-0.31c-0.168-0.156-0.332-0.31-0.494-0.464c-0.106-0.099-0.209-0.199-0.312-0.297
				c-0.163-0.157-0.321-0.312-0.477-0.465c-0.091-0.089-0.183-0.179-0.272-0.267c-0.162-0.161-0.317-0.318-0.47-0.473
				c-0.076-0.077-0.152-0.154-0.225-0.229c-0.172-0.178-0.339-0.35-0.5-0.521c-0.045-0.047-0.093-0.097-0.137-0.143
				c-0.415-0.44-0.792-0.852-1.129-1.229c-0.031-0.036-0.059-0.068-0.091-0.102c-0.11-0.124-0.216-0.245-0.317-0.36v-6.107
				c0.135,0.019,0.271,0.032,0.405,0.051c1.03,0.142,2.063,0.273,3.1,0.388c0.172,0.019,0.345,0.041,0.518,0.059
				c1.184,0.126,2.372,0.233,3.567,0.32c0.179,0.013,0.357,0.022,0.536,0.033c0.995,0.068,1.993,0.121,2.995,0.161
				c0.297,0.012,0.594,0.025,0.891,0.033c1.165,0.038,2.333,0.063,3.506,0.063h41.185c1.175,0,2.344-0.026,3.512-0.064
				c0.292-0.01,0.584-0.022,0.877-0.033c1.02-0.041,2.035-0.095,3.047-0.164c0.159-0.011,0.318-0.019,0.477-0.03
				c1.209-0.088,2.413-0.196,3.612-0.324c0.143-0.015,0.286-0.033,0.428-0.05c1.076-0.119,2.146-0.254,3.212-0.404
				C291.875,333.378,291.994,333.366,292.11,333.35z M208.72,351.209c0.011,0.012,0.023,0.025,0.033,0.036
				c0.058,0.064,0.122,0.132,0.182,0.195c0.178,0.193,0.36,0.388,0.551,0.59c0.097,0.102,0.198,0.208,0.299,0.313
				c0.167,0.175,0.337,0.351,0.514,0.532c0.113,0.116,0.229,0.233,0.345,0.351c0.179,0.181,0.363,0.365,0.551,0.552
				c0.121,0.12,0.241,0.239,0.365,0.361c0.207,0.203,0.422,0.41,0.638,0.618c0.114,0.11,0.225,0.218,0.343,0.33
				c0.334,0.317,0.678,0.638,1.034,0.965c0.024,0.022,0.049,0.043,0.072,0.065c0.337,0.308,0.685,0.62,1.041,0.935
				c0.133,0.117,0.272,0.236,0.406,0.354c0.254,0.221,0.51,0.442,0.774,0.666c0.161,0.136,0.324,0.273,0.488,0.41
				c0.253,0.211,0.51,0.424,0.772,0.636c0.172,0.14,0.345,0.28,0.521,0.421c0.272,0.217,0.549,0.434,0.828,0.651
				c0.171,0.134,0.342,0.267,0.516,0.401c0.332,0.254,0.672,0.508,1.015,0.761c0.129,0.096,0.254,0.192,0.386,0.288
				c0.473,0.345,0.956,0.689,1.45,1.032c0.136,0.094,0.276,0.186,0.413,0.28c0.365,0.25,0.734,0.5,1.111,0.748
				c0.195,0.128,0.393,0.254,0.591,0.382c0.331,0.213,0.665,0.426,1.005,0.637c0.214,0.134,0.43,0.265,0.648,0.397
				c0.338,0.205,0.68,0.409,1.026,0.61c0.22,0.128,0.439,0.257,0.662,0.384c0.375,0.213,0.756,0.423,1.139,0.632
				c0.198,0.108,0.393,0.217,0.594,0.323c0.568,0.302,1.145,0.599,1.731,0.889c0.046,0.023,0.093,0.045,0.139,0.068
				c0.573,0.281,1.155,0.556,1.745,0.825c0.209,0.095,0.423,0.185,0.634,0.279c0.42,0.185,0.843,0.37,1.272,0.548
				c0.246,0.102,0.495,0.202,0.744,0.301c0.409,0.164,0.819,0.323,1.234,0.479c0.258,0.097,0.516,0.192,0.776,0.286
				c0.428,0.154,0.861,0.302,1.297,0.447c0.249,0.083,0.496,0.168,0.747,0.248c0.512,0.163,1.032,0.317,1.553,0.467
				c0.179,0.052,0.354,0.107,0.534,0.157c0.701,0.194,1.41,0.376,2.128,0.545c0.178,0.042,0.36,0.078,0.54,0.117
				c0.545,0.123,1.094,0.241,1.649,0.348c0.264,0.051,0.53,0.096,0.797,0.143c0.482,0.086,0.966,0.167,1.455,0.241
				c0.29,0.043,0.581,0.084,0.873,0.123c0.482,0.065,0.967,0.122,1.455,0.174c0.292,0.031,0.583,0.063,0.877,0.088
				c0.527,0.047,1.06,0.083,1.594,0.114c0.255,0.015,0.509,0.036,0.766,0.046c0.793,0.036,1.592,0.058,2.401,0.058
				c0.81,0,1.609-0.023,2.404-0.058c0.255-0.012,0.508-0.031,0.761-0.046c0.538-0.032,1.075-0.068,1.605-0.115
				c0.291-0.026,0.578-0.057,0.867-0.087c0.495-0.053,0.986-0.11,1.475-0.176c0.287-0.039,0.572-0.078,0.856-0.12
				c0.5-0.075,0.996-0.158,1.49-0.247c0.254-0.045,0.511-0.088,0.763-0.137c0.6-0.115,1.194-0.244,1.784-0.377
				c0.134-0.03,0.271-0.056,0.403-0.088c0.723-0.17,1.437-0.355,2.143-0.55c0.189-0.053,0.374-0.111,0.562-0.165
				c0.515-0.149,1.027-0.301,1.533-0.461c0.245-0.078,0.486-0.16,0.729-0.24c0.446-0.149,0.888-0.3,1.327-0.458
				c0.249-0.089,0.497-0.18,0.743-0.273c0.437-0.163,0.867-0.331,1.296-0.503c0.227-0.091,0.455-0.181,0.68-0.274
				c0.478-0.198,0.949-0.403,1.416-0.61c0.164-0.072,0.331-0.142,0.493-0.217c0.628-0.286,1.248-0.578,1.858-0.878
				c0.092-0.045,0.18-0.093,0.272-0.138c0.515-0.257,1.024-0.517,1.524-0.784c0.191-0.101,0.376-0.205,0.565-0.307
				c0.398-0.217,0.793-0.434,1.181-0.655c0.204-0.116,0.405-0.234,0.607-0.351c0.373-0.218,0.742-0.437,1.107-0.659
				c0.191-0.115,0.382-0.232,0.57-0.348c0.386-0.24,0.766-0.482,1.143-0.725c0.152-0.099,0.307-0.196,0.458-0.295
				c1.049-0.69,2.057-1.39,3.022-2.094c0.134-0.097,0.262-0.194,0.393-0.292c0.346-0.257,0.689-0.512,1.023-0.769
				c0.156-0.12,0.308-0.238,0.462-0.358c0.305-0.237,0.605-0.473,0.9-0.709c0.152-0.122,0.303-0.242,0.453-0.364
				c0.302-0.246,0.597-0.489,0.888-0.733c0.124-0.103,0.25-0.208,0.373-0.312c0.352-0.3,0.697-0.596,1.034-0.891
				c0.052-0.045,0.107-0.093,0.158-0.138c0.393-0.346,0.774-0.689,1.143-1.027c0.075-0.069,0.146-0.136,0.22-0.204
				c0.286-0.264,0.567-0.525,0.839-0.783c0.108-0.102,0.212-0.203,0.318-0.304c0.234-0.224,0.464-0.446,0.686-0.665
				c0.104-0.101,0.205-0.203,0.306-0.303c0.22-0.219,0.434-0.433,0.642-0.645c0.087-0.088,0.175-0.177,0.26-0.263
				c0.236-0.243,0.464-0.478,0.683-0.709c0.045-0.047,0.094-0.098,0.139-0.146c0.023-0.024,0.046-0.049,0.069-0.072
				c0.235-0.248,0.459-0.49,0.675-0.724l17.131,3.447c-13.953,21.672-38.237,35.209-64.399,35.209
				c-26.166,0-50.451-13.538-64.403-35.213L208.72,351.209z M354.711,409.919v51.403h-197.48v-0.001v-51.403v-48.355l17.569-3.532
				c16.2,29.359,47.4,48.004,81.2,48.004c33.794,0,64.994-18.643,81.195-47.998l17.517,3.526V409.919z M370.879,355.49
				c0.006-0.117,0.011-0.235,0.014-0.352c0.078-2.609,2.211-4.709,4.837-4.709h20.948c2.674,0,4.851,2.176,4.851,4.851v4.029v42.526
				h-30.649V355.49z M401.529,495.832h-0.001h-30.621v-26.427c0-0.183-0.015-0.362-0.027-0.542v-50.86h30.649V495.832z
				 M459.275,490.981c0,2.674-2.176,4.851-4.851,4.851h-36.728v-85.914v-38.474c25.266,12.922,41.579,39.009,41.579,68.046V490.981z
				"/>
			<path d="M344.989,173.634v-71.408c0-4.466-3.618-8.084-8.084-8.084h-165.24c-4.466,0-8.084,3.618-8.084,8.084v71.408
				c0,25.481,57.015,32.28,90.703,32.28C287.973,205.913,344.989,199.115,344.989,173.634z M179.749,173.516V110.31h149.072v63.207
				c-0.527,1.383-5.315,5.984-20.789,10.142c-14.607,3.926-33.694,6.087-53.747,6.087s-39.142-2.162-53.747-6.087
				C185.062,179.499,180.275,174.899,179.749,173.516z"/>
			<path d="M204.17,227.103c-4.466,0-8.084,3.618-8.084,8.084v34.493c0,4.466,3.618,8.084,8.084,8.084
				c4.466,0,8.084-3.618,8.084-8.084v-34.493C212.254,230.722,208.636,227.103,204.17,227.103z"/>
			<path d="M307.827,227.103c-4.466,0-8.084,3.618-8.084,8.084v34.493c0,4.466,3.618,8.084,8.084,8.084
				c4.466,0,8.084-3.618,8.084-8.084v-34.493C315.911,230.722,312.292,227.103,307.827,227.103z"/>
			<path d="M273.275,227.103c-4.466,0-8.084,3.618-8.084,8.084v34.493c0,4.466,3.619,8.084,8.084,8.084
				c4.466,0,8.084-3.618,8.084-8.084v-34.493C281.359,230.722,277.741,227.103,273.275,227.103z"/>
			<path d="M238.724,227.103c-4.466,0-8.084,3.618-8.084,8.084v34.493c0,4.466,3.618,8.084,8.084,8.084
				c4.466,0,8.084-3.618,8.084-8.084v-34.493C246.808,230.722,243.189,227.103,238.724,227.103z"/>
		</g>
	</g>
</g>
</svg>