<?xml version="1.0" standalone="no"?>
<!DOCTYPE svg PUBLIC "-//W3C//DTD SVG 20010904//EN"
 "http://www.w3.org/TR/2001/REC-SVG-20010904/DTD/svg10.dtd">
<svg version="1.0" xmlns="http://www.w3.org/2000/svg"
 width="500.000000pt" height="500.000000pt" viewBox="0 0 500.000000 500.000000"
 preserveAspectRatio="xMidYMid meet">

<g transform="translate(0.000000,500.000000) scale(0.100000,-0.100000)"
fill="#000000" stroke="none">
<path d="M1506 4565 c-68 -24 -133 -102 -150 -180 -5 -23 -75 -99 -264 -287
-221 -220 -263 -258 -299 -268 -63 -16 -124 -67 -156 -130 l-28 -55 3 -235 c3
-259 5 -265 70 -330 66 -67 83 -70 386 -70 l272 0 0 -1059 0 -1059 -182 -4
c-181 -3 -184 -3 -237 -33 -57 -32 -91 -69 -116 -128 -19 -46 -22 -276 -3
-295 9 -9 236 -12 960 -12 926 0 948 0 958 19 5 11 10 68 10 128 0 92 -4 115
-24 158 -27 59 -65 99 -121 128 -36 19 -60 22 -223 25 l-182 4 2 1061 3 1062
718 3 717 2 0 -130 0 -130 -158 0 c-150 0 -161 -1 -210 -26 -96 -48 -142 -133
-142 -263 0 -63 -1 -67 -28 -79 -39 -17 -89 -68 -115 -116 -22 -41 -22 -42
-25 -823 -3 -775 -2 -783 18 -803 20 -20 30 -20 710 -20 680 0 690 0 710 20
20 20 21 28 18 803 -3 781 -3 782 -25 823 -26 48 -76 99 -115 116 -26 12 -28
16 -28 76 0 130 -47 219 -141 266 -50 25 -60 26 -211 26 l-159 0 3 128 3 127
245 5 245 5 54 30 c29 16 64 43 77 60 50 66 54 89 54 322 0 198 -2 222 -21
263 -23 52 -62 95 -103 117 -16 8 -86 29 -155 47 -69 18 -536 142 -1037 276
l-911 244 -13 45 c-17 58 -90 132 -146 149 -60 18 -456 16 -508 -3z m468 -101
c15 -6 13 -12 -21 -46 -21 -22 -73 -72 -116 -111 l-78 -70 -114 113 c-81 81
-111 117 -102 123 14 10 403 2 431 -9z m-397 -186 l113 -112 -118 -121 c-64
-66 -120 -121 -124 -123 -10 -4 -11 392 -2 437 4 17 9 31 13 31 3 0 56 -50
118 -112z m497 96 c3 -9 6 -115 6 -237 l0 -222 -125 125 -125 125 112 112 c62
62 116 113 119 113 4 0 10 -7 13 -16z m308 -163 c101 -27 444 -118 763 -201
319 -84 584 -157 590 -162 5 -4 -342 -7 -770 -6 l-780 3 -3 208 c-1 127 1 207
7 207 5 0 92 -22 193 -49z m-1042 -191 l0 -180 -182 0 -183 0 180 180 c99 99
181 180 182 180 2 0 3 -81 3 -180z m543 -48 c64 -64 117 -121 117 -125 0 -4
-108 -7 -240 -7 -132 0 -240 3 -240 7 0 9 232 243 240 243 3 0 58 -53 123
-118z m2337 -244 c73 -50 75 -56 78 -291 2 -204 1 -213 -20 -252 -15 -26 -39
-48 -68 -62 l-44 -23 -1666 0 c-1602 0 -1667 1 -1706 19 -23 10 -52 34 -65 52
-23 33 -24 41 -27 242 -3 193 -2 211 17 251 13 26 35 50 58 64 l38 22 1686 0
1686 0 33 -22z m-2220 -726 c0 -4 -54 -61 -120 -127 l-120 -120 -120 120 c-66
66 -120 123 -120 127 0 5 108 8 240 8 132 0 240 -3 240 -8z m-432 -195 l122
-122 -125 -125 -125 -125 0 248 c0 136 1 247 3 247 1 0 57 -55 125 -123z m512
-129 l0 -243 -126 125 -125 125 121 118 c66 64 123 117 125 117 3 0 5 -109 5
-242z m1970 -47 c50 -27 82 -91 78 -161 l-3 -55 -457 -3 -458 -2 0 58 c0 74
31 137 80 163 32 17 63 19 380 19 317 0 348 -2 380 -19z m-2137 -169 l147
-147 -150 -150 -150 -150 -150 150 -150 150 147 147 c81 82 150 148 153 148 3
0 72 -66 153 -148z m2307 -167 c22 -13 44 -39 60 -70 l25 -50 3 -727 2 -728
-210 0 -210 0 0 123 c0 152 -15 208 -67 259 -75 73 -162 87 -254 41 -35 -18
-64 -43 -84 -71 -30 -43 -30 -45 -33 -198 l-3 -154 -205 0 -204 0 0 732 c0
717 0 733 20 774 21 43 53 70 99 85 14 4 251 7 526 6 481 -2 501 -3 535 -22z
m-2652 -228 l122 -122 -125 -125 -125 -125 0 248 c0 136 1 247 3 247 1 0 57
-55 125 -123z m512 -123 l0 -236 -126 118 -126 118 120 118 c66 65 123 118
126 118 3 0 6 -106 6 -236z m-167 -222 l147 -147 -150 -150 -150 -150 -150
150 -150 150 147 147 c81 82 150 148 153 148 3 0 72 -66 153 -148z m-393 -339
c36 -38 89 -93 117 -123 l53 -55 -125 -125 -125 -125 0 248 c0 136 3 247 8
247 4 0 37 -30 72 -67z m560 -175 l0 -241 -117 114 c-65 63 -120 118 -122 123
-3 7 227 246 236 246 2 0 3 -109 3 -242z m-195 -198 l120 -120 -245 0 -245 0
120 120 c66 66 122 120 125 120 3 0 59 -54 125 -120z m1853 20 c49 -30 62 -72
62 -200 l0 -110 -120 0 -120 0 0 121 c0 135 10 167 64 193 42 21 75 20 114 -4z
m-1180 -265 c57 -34 72 -70 72 -169 l0 -86 -871 0 -871 0 4 94 c3 93 4 96 38
131 19 19 48 40 65 45 17 4 364 8 780 7 731 -2 751 -3 783 -22z"/>
<path d="M3292 2199 c-55 -28 -116 -98 -131 -151 -9 -30 -11 -133 -9 -343 3
-330 2 -325 70 -394 18 -19 53 -44 78 -55 43 -20 61 -21 365 -21 237 0 329 3
357 13 62 22 114 67 142 123 l26 53 0 305 c0 341 -2 352 -71 420 -69 69 -76
71 -449 71 -321 0 -337 -1 -378 -21z m328 -249 l0 -170 -191 0 -191 0 3 113
c5 126 19 164 79 204 30 21 45 23 166 23 l134 0 0 -170z m398 150 c60 -37 72
-70 72 -202 l0 -118 -185 0 -185 0 0 170 0 170 133 0 c114 0 136 -3 165 -20z
m-400 -582 l-3 -173 -75 -3 c-41 -2 -104 0 -139 3 -55 6 -69 12 -103 43 -47
44 -57 82 -58 210 l0 92 190 0 190 0 -2 -172z m472 37 l0 -125 -36 -40 c-20
-22 -49 -43 -65 -48 -16 -4 -81 -5 -146 -2 l-118 5 -3 168 -2 167 185 0 185 0
0 -125z"/>
</g>
</svg>
