<?xml version="1.0" encoding="iso-8859-1"?>
<!-- Uploaded to: SVG Repo, www.svgrepo.com, Generator: SVG Repo Mixer Tools -->
<svg fill="#000000" version="1.1" id="Layer_1" xmlns="http://www.w3.org/2000/svg" xmlns:xlink="http://www.w3.org/1999/xlink" 
	 viewBox="0 0 496 496" xml:space="preserve">
<g>
	<g>
		<g>
			<path d="M496,139.592v-49.12L258.832,0.52L257.464,0h-18.928L0,90.48v49.12l16-6.072V480H0v16h496v-16h-16V133.528L496,139.592z
				 M392,480H104V224h288V480z M464,480h-56V208H88v272H32V127.456L241.472,48h13.064L464,127.456V480z M258.832,32.52L257.464,32
				h-18.928L16,116.408V101.52L241.472,16h13.064L480,101.52v14.88L258.832,32.52z"/>
			<path d="M120,192h256v-80H120V192z M136,128h224v48H136V128z"/>
			<rect x="328" y="144" width="16" height="16"/>
			<rect x="152" y="144" width="160" height="16"/>
			<path d="M376,304H120v160h256V304z M168,320h16v48h-16V320z M216,448h-80V320h16v64h48v-64h16V448z M360,448H232V320h128V448z"/>
			<rect x="248" y="416" width="16" height="16"/>
			<rect x="280" y="416" width="16" height="16"/>
			<rect x="248" y="384" width="16" height="16"/>
		</g>
	</g>
</g>
</svg>