<?xml version="1.0" encoding="iso-8859-1"?>
<!-- Uploaded to: SVG Repo, www.svgrepo.com, Generator: SVG Repo Mixer Tools -->
<svg fill="#000000" height="800px" width="800px" version="1.1" id="Layer_1" xmlns="http://www.w3.org/2000/svg" xmlns:xlink="http://www.w3.org/1999/xlink" 
	 viewBox="0 0 511.998 511.998" xml:space="preserve">
<g>
	<g>
		<g>
			<path d="M384.602,332.619c-22.274,0-40.396,18.121-40.396,40.394c0,22.274,18.122,40.396,40.396,40.396
				c6.189,0,12.131-1.365,17.662-4.058c4.029-1.962,5.705-6.819,3.744-10.848c-1.962-4.029-6.814-5.703-10.848-3.744
				c-3.299,1.606-6.851,2.42-10.558,2.42c-13.326,0-24.167-10.841-24.167-24.167c0-13.324,10.841-24.165,24.167-24.165
				c13.324,0,24.166,10.84,24.166,24.165c0,1.943-0.23,3.873-0.683,5.738c-1.059,4.354,1.612,8.743,5.967,9.803
				c4.353,1.06,8.743-1.613,9.803-5.967c0.758-3.118,1.144-6.338,1.144-9.573C424.998,350.74,406.877,332.619,384.602,332.619z"/>
			<path d="M103.028,332.619c-22.275,0-40.396,18.121-40.396,40.394c0,22.274,18.122,40.396,40.396,40.396
				c6.189,0,12.131-1.365,17.662-4.058c4.029-1.962,5.705-6.819,3.744-10.848c-1.962-4.029-6.815-5.703-10.848-3.744
				c-3.299,1.606-6.851,2.42-10.558,2.42c-13.326,0-24.167-10.841-24.167-24.167c0-13.324,10.841-24.165,24.167-24.165
				c13.324,0,24.166,10.84,24.166,24.165c0,1.943-0.23,3.873-0.683,5.738c-1.059,4.354,1.612,8.743,5.967,9.803
				c4.356,1.06,8.742-1.613,9.803-5.967c0.758-3.118,1.144-6.338,1.144-9.573C143.424,350.74,125.303,332.619,103.028,332.619z"/>
			<path d="M510.326,232.906l-48.699-63.564c-0.002-0.003-0.005-0.007-0.008-0.01l-27.075-35.338
				c-1.535-2.005-3.916-3.179-6.441-3.179h-60.71c-12.785,0-23.187,10.4-23.187,23.184v12.91h-24.121v-27.237v-30.611h137.149
				c4.483,0,8.115-3.632,8.115-8.115s-3.632-8.115-8.115-8.115H311.97c-4.483,0-8.115,3.632-8.115,8.115v30.61h-3.694
				c-8.838-23.202-26.039-30.996-38.857-36.799c-6.318-2.86-11.773-5.328-13.467-8.498c-7.24-13.533-26.729-28.024-44.202-28.024
				c-7.271,0-13.801,2.46-18.881,7.115c-11.732,10.745-41.238,21.615-77.007,28.365c-27.122,5.121-39.985,27.19-44.706,37.841
				H23.856C10.702,131.557,0,142.257,0,155.413v3.867c0,13.155,10.702,23.856,23.856,23.856h5.52l93.71,111.655
				c-6.416-1.646-13.136-2.524-20.059-2.524c-44.524,0-80.747,36.223-80.747,80.748c0,44.523,36.223,80.746,80.747,80.746
				c26.475,0,50.013-12.809,64.747-32.554h83.66c4.483,0,8.115-3.632,8.115-8.115s-3.632-8.115-8.115-8.115h-74.272
				c4.245-9.808,6.61-20.613,6.61-31.962c0-2.098-0.106-4.171-0.264-6.23l9.607,11.446c1.543,1.837,3.817,2.899,6.216,2.899h104.929
				c0.842,8.393,2.982,16.406,6.202,23.848H278.12c-4.483,0-8.115,3.632-8.115,8.115s3.632,8.115,8.115,8.115h41.732
				c14.734,19.745,38.272,32.554,64.748,32.554c36.297,0,67.069-24.076,77.205-57.096h27.006c12.785,0,23.187-10.401,23.187-23.187
				v-50.43v-32.459v-34.623v-18.127C512,236.057,511.411,234.322,510.326,232.906z M110.758,109.664
				c14.669-2.77,64.148-13.284,84.958-32.345c2.097-1.919,4.686-2.854,7.919-2.854c10.974,0,25.079,10.456,29.891,19.451
				c4.293,8.028,12.45,11.72,21.085,15.628c10.319,4.67,20.92,9.467,27.743,22.013h-201.1
				C86.238,123.233,95.439,112.556,110.758,109.664z M103.028,437.532c-35.575,0-64.518-28.942-64.518-64.517
				c0-35.576,28.943-64.519,64.518-64.519c35.575,0,64.517,28.943,64.517,64.519C167.545,408.591,138.604,437.532,103.028,437.532z
				 M303.855,166.909h-32.938c-4.483,0-8.115,3.632-8.115,8.115s3.632,8.115,8.115,8.115h32.938v43.399v136.085v2.278H203.117
				L50.566,183.139h192.577c4.483,0,8.115-3.632,8.115-8.115s-3.632-8.115-8.115-8.115H33.208c-0.015,0-0.029-0.002-0.043-0.002
				h-9.309c-4.206,0-7.627-3.421-7.627-7.627v-3.867c0-4.206,3.421-7.627,7.627-7.627h44.726l225.747,0.001c0,0,0.009,0,0.016,0.001
				c0.014,0,0.027-0.002,0.04-0.002h9.47V166.909z M320.085,226.537v-43.399h24.121v83.873v36.131
				c-9.399,5.455-17.61,12.737-24.121,21.378V226.537z M449.027,376.453c-0.003,0.069-0.012,0.137-0.016,0.208
				c-0.063,1.087-0.147,2.175-0.265,3.262c-0.003,0.029-0.008,0.058-0.011,0.088c-0.122,1.112-0.272,2.222-0.451,3.33
				c-0.013,0.084-0.031,0.166-0.044,0.25c-0.169,1.02-0.362,2.038-0.58,3.052c-6.274,29.05-32.157,50.889-63.057,50.889
				c-35.575,0-64.518-28.942-64.518-64.517c0-25.451,14.816-47.501,36.273-57.995c0.63-0.307,1.266-0.593,1.901-0.879
				c0.414-0.186,0.822-0.384,1.241-0.563c0.99-0.42,1.989-0.812,2.993-1.18c0.61-0.224,1.232-0.422,1.851-0.628
				c0.449-0.149,0.896-0.304,1.348-0.443c0.659-0.202,1.325-0.386,1.994-0.568c0.422-0.115,0.845-0.23,1.269-0.336
				c0.673-0.169,1.35-0.324,2.031-0.471c0.441-0.095,0.884-0.185,1.329-0.271c0.66-0.128,1.323-0.249,1.99-0.357
				c0.504-0.08,1.011-0.149,1.517-0.219c0.613-0.084,1.226-0.169,1.845-0.235c0.645-0.068,1.294-0.117,1.943-0.166
				c0.495-0.038,0.986-0.087,1.482-0.113c1.165-0.063,2.335-0.1,3.512-0.1c35.575,0,64.517,28.943,64.517,64.519
				C449.12,374.159,449.089,375.306,449.027,376.453z M495.77,314.935h-13.546c-2.684,0-4.869-2.185-4.869-4.869v-6.492
				c0-2.684,2.185-4.869,4.869-4.869h13.546V314.935z M495.77,282.476h-13.546c-11.633,0-21.098,9.465-21.098,21.098v6.492
				c0,11.633,9.465,21.098,21.098,21.098h13.546v42.315c0,3.836-3.122,6.957-6.957,6.957h-23.81c0.048-0.518,0.07-1.038,0.108-1.557
				c0.048-0.659,0.106-1.315,0.137-1.978c0.063-1.297,0.098-2.593,0.098-3.888c0-44.524-36.223-80.748-80.746-80.748
				c-1.267,0-2.526,0.039-3.784,0.096c-0.311,0.014-0.619,0.034-0.928,0.052c-1.044,0.06-2.084,0.138-3.12,0.238
				c-0.212,0.021-0.425,0.038-0.637,0.061c-2.609,0.271-5.19,0.669-7.744,1.19c-0.036,0.008-0.071,0.015-0.107,0.023
				c-1.259,0.259-2.51,0.549-3.754,0.869c-0.045,0.012-0.091,0.023-0.135,0.035c-1.326,0.343-2.648,0.709-3.957,1.121v-28.937
				v-91.989v-21.025c0-3.835,3.121-6.955,6.957-6.955h56.705l14.648,19.118h-22.52c-11.633,0-21.098,9.465-21.098,21.098v55.724
				c0,11.633,9.465,21.098,21.098,21.098h79.546V282.476z M495.77,247.853h-79.546c-2.684,0-4.869-2.184-4.869-4.869v-55.724
				c0-2.684,2.185-4.869,4.869-4.869h34.955l44.591,58.2V247.853z"/>
			<path d="M273.408,352.135c4.483,0,8.115-3.632,8.115-8.115V205.838c0-4.482-3.632-8.115-8.115-8.115s-8.115,3.632-8.115,8.115
				V344.02C265.294,348.502,268.926,352.135,273.408,352.135z"/>
			<path d="M234.847,197.723c-4.483,0-8.115,3.632-8.115,8.115V344.02c0,4.483,3.632,8.115,8.115,8.115s8.115-3.632,8.115-8.115
				V205.838C242.962,201.357,239.328,197.723,234.847,197.723z"/>
			<path d="M119.164,197.723c-4.483,0-8.115,3.632-8.115,8.115v18.753c0,4.483,3.632,8.115,8.115,8.115s8.115-3.632,8.115-8.115
				v-18.753C127.279,201.357,123.645,197.723,119.164,197.723z"/>
			<path d="M157.724,197.723c-4.483,0-8.115,3.632-8.115,8.115v63.679c0,4.483,3.632,8.115,8.115,8.115s8.115-3.632,8.115-8.115
				v-63.679C165.839,201.357,162.207,197.723,157.724,197.723z"/>
			<path d="M196.286,197.723c-4.483,0-8.115,3.632-8.115,8.115v111.443c0,4.483,3.632,8.115,8.115,8.115s8.115-3.632,8.115-8.115
				V205.838C204.4,201.357,200.768,197.723,196.286,197.723z"/>
		</g>
	</g>
</g>
</svg>