<?xml version="1.0" encoding="iso-8859-1"?>
<!-- Uploaded to: SVG Repo, www.svgrepo.com, Generator: SVG Repo Mixer Tools -->
<svg fill="#000000" version="1.1" id="Layer_1" xmlns="http://www.w3.org/2000/svg" xmlns:xlink="http://www.w3.org/1999/xlink" 
	 viewBox="0 0 512 512" xml:space="preserve">
<g>
	<g>
		<g>
			<path d="M501.551,240.327h-10.449v-20.898h-20.898v20.898h-88.816V52.245c0-5.771-4.679-10.449-10.449-10.449H360.49V20.898
				h-20.898v20.898H172.408V20.898H151.51v20.898h-10.449c-5.771,0-10.449,4.678-10.449,10.449v188.082H41.796v-20.898H20.898
				v20.898H10.449C4.678,240.327,0,245.005,0,250.775v229.878c0,5.771,4.678,10.449,10.449,10.449h130.612h229.878h130.612
				c5.77,0,10.449-4.678,10.449-10.449V250.775C512,245.005,507.321,240.327,501.551,240.327z M130.612,470.204H20.898V303.02
				h83.592v-20.898H20.898v-20.898h109.714V470.204z M287.347,470.204h-62.694v-73.143h20.898v52.245h20.898v-52.245h20.898V470.204
				z M360.49,250.775v219.429h-52.245v-73.143h15.674v-20.898H188.082v20.898h15.673v73.143H151.51V250.775V104.49h188.082V83.592
				H151.51V62.694h208.98V250.775z M491.102,282.122H407.51v20.898h83.592v167.184H381.388v-208.98h109.714V282.122z"/>
			<rect x="36.571" y="323.918" width="20.898" height="20.898"/>
			<rect x="67.918" y="323.918" width="20.898" height="20.898"/>
			<rect x="99.265" y="323.918" width="20.898" height="20.898"/>
			<rect x="36.571" y="360.49" width="20.898" height="20.898"/>
			<rect x="67.918" y="360.49" width="20.898" height="20.898"/>
			<rect x="99.265" y="360.49" width="20.898" height="20.898"/>
			<rect x="36.571" y="397.061" width="20.898" height="20.898"/>
			<rect x="67.918" y="397.061" width="20.898" height="20.898"/>
			<rect x="99.265" y="397.061" width="20.898" height="20.898"/>
			<rect x="36.571" y="433.633" width="20.898" height="20.898"/>
			<rect x="67.918" y="433.633" width="20.898" height="20.898"/>
			<rect x="99.265" y="433.633" width="20.898" height="20.898"/>
			<rect x="182.857" y="135.837" width="20.898" height="20.898"/>
			<rect x="224.653" y="135.837" width="20.898" height="20.898"/>
			<rect x="266.449" y="135.837" width="20.898" height="20.898"/>
			<rect x="182.857" y="172.408" width="20.898" height="20.898"/>
			<rect x="224.653" y="172.408" width="20.898" height="20.898"/>
			<rect x="266.449" y="172.408" width="20.898" height="20.898"/>
			<rect x="182.857" y="208.98" width="20.898" height="20.898"/>
			<rect x="224.653" y="208.98" width="20.898" height="20.898"/>
			<rect x="266.449" y="208.98" width="20.898" height="20.898"/>
			<rect x="182.857" y="245.551" width="20.898" height="20.898"/>
			<rect x="224.653" y="245.551" width="20.898" height="20.898"/>
			<rect x="266.449" y="245.551" width="20.898" height="20.898"/>
			<rect x="308.245" y="135.837" width="20.898" height="20.898"/>
			<rect x="308.245" y="172.408" width="20.898" height="20.898"/>
			<rect x="308.245" y="208.98" width="20.898" height="20.898"/>
			<rect x="308.245" y="245.551" width="20.898" height="20.898"/>
			<rect x="182.857" y="282.122" width="20.898" height="20.898"/>
			<rect x="224.653" y="282.122" width="20.898" height="20.898"/>
			<rect x="266.449" y="282.122" width="20.898" height="20.898"/>
			<rect x="182.857" y="318.694" width="20.898" height="20.898"/>
			<rect x="224.653" y="318.694" width="20.898" height="20.898"/>
			<rect x="266.449" y="318.694" width="20.898" height="20.898"/>
			<rect x="308.245" y="282.122" width="20.898" height="20.898"/>
			<rect x="308.245" y="318.694" width="20.898" height="20.898"/>
			<rect x="391.837" y="323.918" width="20.898" height="20.898"/>
			<rect x="423.184" y="323.918" width="20.898" height="20.898"/>
			<rect x="454.531" y="323.918" width="20.898" height="20.898"/>
			<rect x="391.837" y="360.49" width="20.898" height="20.898"/>
			<rect x="423.184" y="360.49" width="20.898" height="20.898"/>
			<rect x="454.531" y="360.49" width="20.898" height="20.898"/>
			<rect x="391.837" y="397.061" width="20.898" height="20.898"/>
			<rect x="423.184" y="397.061" width="20.898" height="20.898"/>
			<rect x="454.531" y="397.061" width="20.898" height="20.898"/>
			<rect x="391.837" y="433.633" width="20.898" height="20.898"/>
			<rect x="423.184" y="433.633" width="20.898" height="20.898"/>
			<rect x="454.531" y="433.633" width="20.898" height="20.898"/>
		</g>
	</g>
</g>
</svg>