<?xml version="1.0" encoding="iso-8859-1"?>
<!-- Uploaded to: SVG Repo, www.svgrepo.com, Generator: SVG Repo Mixer Tools -->
<svg fill="#000000" version="1.1" id="Layer_1" xmlns="http://www.w3.org/2000/svg" xmlns:xlink="http://www.w3.org/1999/xlink" 
	 viewBox="0 0 288.748 288.748" xml:space="preserve">
<g>
	<g>
		<g>
			<path d="M278.22,135.144h3.605l6.923-27.692h-5.912V84.375h-69.231v-9.231h-9.231v9.231h-18.462V65.912h-36.923v-9.231h-9.231
				v9.231h-36.923v18.462H84.374v-9.231h-9.231v9.231H10.528v23.077H0l6.923,27.692h3.605v50.769H1.297v46.154h286.154v-46.154
				h-9.231V135.144z M259.758,153.605v-18.462h9.231v18.462H259.758z M268.989,162.836v23.077h-9.231v-23.077H268.989z
				 M185.912,125.914v-9.231h91.011l-2.308,9.231H185.912z M241.297,153.605v-18.462h9.231v18.462H241.297z M250.528,162.836v23.077
				h-9.231v-23.077H250.528z M222.835,153.605v-18.462h9.231v18.462H222.835z M232.066,162.836v23.077h-9.231v-23.077H232.066z
				 M204.374,153.605v-18.462h9.231v18.462H204.374z M213.605,162.836v23.077h-9.231v-23.077H213.605z M195.143,135.144v18.462
				h-9.231v-18.462H195.143z M273.605,93.605v13.846H192.3l-15.383-13.846H273.605z M176.682,75.144v9.231h-10.025l-10.255-9.231
				H176.682z M144.374,76.74l34.126,30.711h-68.252L144.374,76.74z M112.067,125.914v-9.231h64.615v9.231H112.067z M176.681,135.144
				v50.769h-13.846v-50.769H176.681z M153.605,135.144v50.769h-18.462v-50.769H153.605z M125.912,135.144v50.769h-13.846v-50.769
				H125.912z M132.346,75.144l-10.255,9.231h-10.025c0,0,0-9.231,0-9.231H132.346z M19.758,93.605h92.077l-15.383,13.846H19.758
				V93.605z M93.605,153.605v-18.462h9.231v18.462H93.605z M102.835,162.836v23.077h-9.231v-23.077H102.835z M102.835,116.681v9.231
				H14.132l-2.308-9.231H102.835z M75.143,153.605v-18.462h9.231v18.462H75.143z M84.374,162.836v23.077h-9.231v-23.077H84.374z
				 M56.682,162.836h9.231v23.077h-9.231V162.836z M56.681,153.605v-18.462h9.231v18.462H56.681z M38.22,153.605v-18.462h9.231
				v18.462H38.22z M47.451,162.836v23.077H38.22v-23.077H47.451z M19.758,153.605v-18.462h9.231v18.462H19.758z M28.989,162.836
				v23.077h-9.231v-23.077H28.989z M93.605,222.836H10.528v-27.692h83.077V222.836z M185.912,222.835h-13.846V208.99h-9.231v13.846
				h-36.923V208.99h-9.231v13.846h-13.846v-27.692h83.077V222.835z M185.912,162.836h9.231v23.077h-9.231V162.836z M278.22,222.836
				h-83.077v-27.692h83.077V222.836z"/>
			<rect x="75.143" y="204.374" width="9.231" height="9.231"/>
			<rect x="56.682" y="204.374" width="9.231" height="9.231"/>
			<rect x="38.22" y="204.374" width="9.231" height="9.231"/>
			<rect x="19.758" y="204.374" width="9.231" height="9.231"/>
			<rect x="259.758" y="204.374" width="9.231" height="9.231"/>
			<rect x="241.297" y="204.374" width="9.231" height="9.231"/>
			<rect x="222.835" y="204.374" width="9.231" height="9.231"/>
			<rect x="204.374" y="204.374" width="9.231" height="9.231"/>
			<rect x="139.758" y="84.375" width="9.231" height="9.231"/>
		</g>
	</g>
</g>
</svg>