<?xml version="1.0" encoding="iso-8859-1"?>
<!-- Uploaded to: SVG Repo, www.svgrepo.com, Generator: SVG Repo Mixer Tools -->
<svg fill="#000000" height="800px" width="800px" version="1.1" id="Layer_1" xmlns="http://www.w3.org/2000/svg" xmlns:xlink="http://www.w3.org/1999/xlink" 
	 viewBox="0 0 512 512" xml:space="preserve">
<g>
	<g>
		<path d="M313.813,405.333c56.32,0,102.187-46.72,102.187-104.213c0.107-28.587-11.413-55.893-32-75.627
			c9.067-14.4,13.867-31.147,13.867-48.213c0-39.04-25.067-73.28-60.907-85.12c0.107-2.24,0.213-4.373,0.213-6.613
			C337.173,38.4,301.973,0,258.666,0c-43.307,0-78.613,38.4-78.613,85.547c0,1.92,0.107,3.947,0.213,5.973
			c-37.227,10.88-63.253,45.547-63.253,85.76c0,16.427,4.373,32.427,12.907,46.507c-21.547,19.947-33.813,48-33.92,77.333
			c0,57.493,45.867,104.213,102.187,104.213c8.747,0,17.387-1.173,25.813-3.52v88.853h-21.333c-5.867,0-10.667,4.8-10.667,10.667
			C192,507.2,196.8,512,202.666,512h32c5.867,0,10.667-4.8,10.667-10.667V394.667c0-0.32-0.107-0.747-0.213-1.067
			c3.733-1.92,7.36-4.16,10.88-6.507c3.52,2.453,7.147,4.587,10.88,6.507c-0.107,0.32-0.213,0.747-0.213,1.067v106.667
			c0,5.867,4.8,10.667,10.667,10.667h32C315.2,512,320,507.2,320,501.333c0-5.867-4.8-10.667-10.667-10.667H288v-88.853
			C296.426,404.16,305.066,405.333,313.813,405.333z M262.826,365.333c-1.92-1.493-4.373-2.347-6.827-2.347
			c-2.453,0-4.907,0.853-6.827,2.453C234.88,377.387,216.853,384,198.186,384c-44.587,0-80.853-37.227-80.853-82.88
			c0-26.24,12.267-50.987,33.173-66.88c4.693-3.52,5.653-10.24,2.133-14.933c0,0,0-0.107-0.107-0.107
			c-9.28-12.053-14.293-26.773-14.293-41.92c0-33.28,23.36-61.547,55.467-66.987c5.76-0.96,9.707-6.507,8.747-12.373
			c-0.747-4.053-1.067-8.213-1.067-12.373c0-35.413,25.707-64.213,57.28-64.213s57.173,28.8,57.173,64.213
			c0,4.267-0.427,8.427-1.067,12.693c-0.96,5.653,2.667,11.2,8.32,12.267c30.933,6.293,53.333,34.347,53.333,66.667
			c0,15.68-5.333,30.933-15.147,43.2c-3.733,4.587-2.987,11.307,1.6,15.04c0,0,0,0,0.107,0c20.053,15.787,31.787,40,31.68,65.6
			c0,45.76-36.267,82.88-80.853,82.88C295.146,383.893,277.12,377.28,262.826,365.333z"/>
	</g>
</g>
</svg>