<?xml version="1.0" encoding="iso-8859-1"?>
<!-- Uploaded to: SVG Repo, www.svgrepo.com, Generator: SVG Repo Mixer Tools -->
<svg fill="#000000" height="800px" width="800px" version="1.1" id="Layer_1" xmlns="http://www.w3.org/2000/svg" xmlns:xlink="http://www.w3.org/1999/xlink" 
	 viewBox="0 0 512 512" xml:space="preserve">
<g>
	<g>
		<g>
			<path d="M492.486,465.598V317.171c0-4.466-3.618-8.084-8.084-8.084c-4.466,0-8.084,3.619-8.084,8.084v148.322h-21.986v-22.717
				v-30.801v-30.802v-30.802c0-4.466-3.618-8.084-8.084-8.084h-98.447c-4.466,0-8.084,3.618-8.084,8.084v30.802v30.802v30.801
				v22.717H29.678v-207.35h24.623h79.253h29.803h79.253h25.429h78.914h27.733h78.913h22.718v32.081c0,4.466,3.618,8.084,8.084,8.084
				c4.466,0,8.084-3.618,8.084-8.084v-40.166c0-4.466-3.618-8.084-8.084-8.084h-23.419c-3.399-19.746-19.009-35.358-38.756-38.756
				v-14.629c0-4.466-3.618-8.084-8.084-8.084c-4.466,0-8.084,3.618-8.084,8.084v14.629c-19.745,3.399-35.356,19.01-38.755,38.756
				h-12.967c-3.399-19.746-19.009-35.358-38.756-38.756v-14.629c0-4.466-3.618-8.084-8.084-8.084c-4.466,0-8.084,3.618-8.084,8.084
				v14.629c-19.746,3.399-35.357,19.01-38.756,38.756H250.32l-5.076-107.086c-0.21-4.459-3.961-7.89-8.458-7.692
				c-4.459,0.21-7.903,3.998-7.692,8.458l5.039,106.319h-62.3l7.577-159.84h47.148l1.194,25.207c0.212,4.46,3.971,7.925,8.458,7.692
				c4.459-0.21,7.903-3.998,7.692-8.458l-1.521-32.086c0.015-0.274,0.016-0.55,0.002-0.826l-1.457-30.338
				c-0.008-0.153-0.028-0.302-0.044-0.453l-1.262-26.703h2.194c4.466,0,8.084-3.619,8.084-8.084S246.279,0,241.813,0h-10.669
				h-56.316h-10.67c-4.466,0-8.084,3.619-8.084,8.084s3.618,8.084,8.084,8.084h2.195l-1.265,26.692
				c-0.016,0.154-0.038,0.306-0.045,0.462l-1.457,30.338c-0.013,0.277-0.012,0.553,0.002,0.827l-7.939,167.485h-14.383
				L133.326,74.48c0.014-0.272,0.015-0.544,0.002-0.818l-1.457-30.338c-0.008-0.151-0.028-0.299-0.043-0.447l-1.266-26.708h2.194
				c4.466,0,8.084-3.619,8.084-8.084S137.222,0,132.756,0h-10.669H65.772h-10.67c-4.466,0-8.084,3.619-8.084,8.084
				s3.618,8.084,8.084,8.084h2.195L56.03,42.857c-0.016,0.155-0.038,0.308-0.045,0.467l-1.457,30.338
				c-0.013,0.277-0.012,0.553,0.002,0.828L46.59,241.974H21.594c-4.466,0-8.084,3.618-8.084,8.084v217.02
				c-7.91,3.207-13.509,10.96-13.509,20.008v3.32C0.001,502.313,9.688,512,21.594,512h397.314c4.466,0,8.084-3.618,8.084-8.084
				c0-4.466-3.619-8.084-8.084-8.084H21.594c-2.991,0-5.425-2.434-5.425-5.425v-3.32c0-2.991,2.434-5.425,5.425-5.425h326.205
				h98.447h38.154h6.005c2.991,0,5.425,2.434,5.425,5.425v3.32c0,2.991-2.434,5.425-5.425,5.425h-42.815
				c-4.466,0-8.084,3.619-8.084,8.084c0,4.466,3.619,8.084,8.084,8.084h42.815c11.906,0,21.593-9.687,21.593-21.593v-3.32
				C512.001,475.882,503.419,466.648,492.486,465.598z M414.143,218.684c14.505,0,26.743,9.895,30.317,23.289h-60.633
				C387.4,228.578,399.639,218.684,414.143,218.684z M307.497,218.684c14.505,0,26.743,9.895,30.317,23.289H277.18
				C280.755,228.578,292.992,218.684,307.497,218.684z M182.539,16.168h40.894l0.922,19.458h-42.74L182.539,16.168z M180.85,51.795
				h44.272l0.672,14.17h-45.615L180.85,51.795z M73.482,16.168h40.894l0.923,19.458h-42.74L73.482,16.168z M71.793,51.795h44.272
				l0.672,14.17H71.121L71.793,51.795z M70.355,82.133h47.148l7.575,159.84h-62.3L70.355,82.133z M438.163,465.492h-82.279V450.86
				h82.279V465.492z M438.163,434.691h-82.279v-14.632h82.279V434.691z M438.163,403.89h-82.279v-14.633h82.279V403.89z
				 M438.163,373.088h-82.279v-14.633h82.279V373.088z"/>
			<path d="M446.247,315.338h-98.447c-4.466,0-8.084,3.619-8.084,8.084s3.618,8.084,8.084,8.084h98.447
				c4.466,0,8.084-3.619,8.084-8.084S450.712,315.338,446.247,315.338z"/>
			<path d="M302.582,342.287h-54.973c-4.466,0-8.084,3.618-8.084,8.084v49.842c0,4.466,3.619,8.084,8.084,8.084h54.973
				c4.466,0,8.084-3.618,8.084-8.084v-49.842C310.666,345.905,307.046,342.287,302.582,342.287z M294.498,392.128h-38.804v-33.673
				h38.804V392.128z"/>
			<path d="M302.582,315.338h-54.973c-4.466,0-8.084,3.619-8.084,8.084s3.619,8.084,8.084,8.084h54.973
				c4.466,0,8.084-3.619,8.084-8.084S307.046,315.338,302.582,315.338z"/>
			<path d="M209.304,342.287h-54.973c-4.466,0-8.084,3.618-8.084,8.084v49.842c0,4.466,3.619,8.084,8.084,8.084h54.973
				c4.466,0,8.084-3.618,8.084-8.084v-49.842C217.388,345.905,213.769,342.287,209.304,342.287z M201.22,392.128h-38.804v-33.673
				h38.804V392.128z"/>
			<path d="M209.304,315.338h-54.973c-4.466,0-8.084,3.619-8.084,8.084s3.619,8.084,8.084,8.084h54.973
				c4.466,0,8.084-3.619,8.084-8.084S213.769,315.338,209.304,315.338z"/>
			<path d="M116.026,342.287H61.054c-4.466,0-8.084,3.618-8.084,8.084v49.842c0,4.466,3.619,8.084,8.084,8.084h54.973
				c4.466,0,8.084-3.618,8.084-8.084v-49.842C124.11,345.905,120.491,342.287,116.026,342.287z M107.942,392.128H69.138v-33.673
				h38.804V392.128z"/>
			<path d="M116.026,315.338H61.054c-4.466,0-8.084,3.619-8.084,8.084s3.619,8.084,8.084,8.084h54.973
				c4.466,0,8.084-3.619,8.084-8.084S120.491,315.338,116.026,315.338z"/>
		</g>
	</g>
</g>
</svg>